SplineFontDB: 3.2
FontName: AxiomNovaRegenerated-Regular
FullName: AxiomNova Regenerated Regular
FamilyName: AxiomNova Regenerated
Weight: Medium
Copyright: Copyright (c) 2026, doran
Version: 001.000
ItalicAngle: 0
UnderlinePosition: -100
UnderlineWidth: 50
Ascent: 800
Descent: 200
InvalidEm: 0
sfntRevision: 0x00010000
LayerCount: 2
Layer: 0 1 "Back" 1
Layer: 1 1 "Fore" 0
XUID: [1021 51 1025553504 7766]
StyleMap: 0x0000
FSType: 0
OS2Version: 4
OS2_WeightWidthSlopeOnly: 0
OS2_UseTypoMetrics: 1
CreationTime: 1778451323
ModificationTime: 1778462363
PfmFamily: 17
TTFWeight: 420
TTFWidth: 5
LineGap: 90
VLineGap: 0
Panose: 2 0 5 3 0 0 0 0 0 0
OS2TypoAscent: 720
OS2TypoAOffset: 0
OS2TypoDescent: -190
OS2TypoDOffset: 0
OS2TypoLinegap: 90
OS2WinAscent: 780
OS2WinAOffset: 0
OS2WinDescent: 230
OS2WinDOffset: 0
HheadAscent: 720
HheadAOffset: 0
HheadDescent: -190
HheadDOffset: 0
OS2SubXSize: 650
OS2SubYSize: 700
OS2SubXOff: 0
OS2SubYOff: 140
OS2SupXSize: 650
OS2SupYSize: 700
OS2SupXOff: 0
OS2SupYOff: 480
OS2StrikeYSize: 49
OS2StrikeYPos: 258
OS2CapHeight: 700
OS2XHeight: 510
OS2Vendor: 'PfEd'
OS2CodePages: 00000001.00000000
OS2UnicodeRanges: 00000001.00000000.00000000.00000000
Lookup: 258 0 0 "'kern' Horizontal Kerning in Latin lookup 0" { "'kern' Horizontal Kerning in Latin lookup 0 subtable"  } ['kern' ('latn' <'dflt' > ) ]
DEI: 91125
ShortTable: cvt  2
  33
  633
EndShort
ShortTable: maxp 16
  1
  0
  86
  374
  4
  0
  0
  2
  0
  1
  1
  0
  64
  46
  0
  0
EndShort
LangName: 1033 "" "" "" "FontForge 2.0 : AxiomNova Regenerated Regular : 10-5-2026" "" "Version 001.000"
GaspTable: 1 65535 2 0
Encoding: UnicodeBmp
UnicodeInterp: none
NameList: Adobe Glyph List
DisplaySize: -48
AntiAlias: 1
FitToEm: 0
WinInfo: 63 21 13
BeginChars: 65539 89

StartChar: .notdef
Encoding: 65536 -1 0
Width: 364
GlyphClass: 1
Flags: W
LayerCount: 2
Fore
SplineSet
33 0 m 1,0,-1
 33 666 l 1,1,-1
 298 666 l 1,2,-1
 298 0 l 1,3,-1
 33 0 l 1,0,-1
66 33 m 1,4,-1
 265 33 l 1,5,-1
 265 633 l 1,6,-1
 66 633 l 1,7,-1
 66 33 l 1,4,-1
EndSplineSet
EndChar

StartChar: exclam
Encoding: 33 33 4
Width: 901
GlyphClass: 1
Flags: W
LayerCount: 2
Fore
SplineSet
500 188 m 1,0,-1
 500 196 l 1,1,-1
 400 196 l 1,2,-1
 400 188 l 1,3,-1
 392 188 l 1,4,-1
 392 196 l 1,5,-1
 383 196 l 1,6,-1
 383 205 l 1,7,-1
 392 205 l 1,8,-1
 392 663 l 1,9,-1
 383 663 l 1,10,-1
 383 671 l 1,11,-1
 392 671 l 1,12,-1
 388 778 l 1,13,-1
 511 778 l 1,14,-1
 508 188 l 1,15,-1
 500 188 l 1,0,-1
413 135 m 1,16,-1
 475 135 l 1,17,-1
 475 126 l 1,18,-1
 492 126 l 1,19,-1
 492 117 l 1,20,-1
 501 117 l 1,21,-1
 501 109 l 1,22,-1
 510 109 l 1,23,-1
 510 100 l 1,24,-1
 518 100 l 1,25,-1
 518 39 l 1,26,-1
 510 39 l 1,27,-1
 510 21 l 1,28,-1
 501 21 l 1,29,-1
 501 13 l 1,30,-1
 492 13 l 1,31,-1
 492 4 l 1,32,-1
 483 4 l 1,33,-1
 483 -5 l 1,34,-1
 405 -5 l 1,35,-1
 405 4 l 1,36,-1
 396 4 l 1,37,-1
 396 13 l 1,38,-1
 387 13 l 1,39,-1
 387 21 l 1,40,-1
 378 21 l 1,41,-1
 378 30 l 1,42,-1
 370 30 l 1,43,-1
 370 91 l 1,44,-1
 378 91 l 1,45,-1
 378 109 l 1,46,-1
 387 109 l 1,47,-1
 387 117 l 1,48,-1
 396 117 l 1,49,-1
 396 126 l 1,50,-1
 413 126 l 1,51,-1
 413 135 l 1,16,-1
EndSplineSet
EndChar

StartChar: quotedbl
Encoding: 34 34 5
Width: 568
GlyphClass: 1
Flags: W
LayerCount: 2
Fore
SplineSet
354 740 m 1,0,-1
 438 740 l 1,1,-1
 438 728 l 1,2,-1
 462 728 l 1,3,-1
 462 716 l 1,4,-1
 474 716 l 1,5,-1
 474 704 l 1,6,-1
 486 704 l 1,7,-1
 486 680 l 1,8,-1
 498 680 l 1,9,-1
 498 535 l 1,10,-1
 486 535 l 1,11,-1
 486 498 l 1,12,-1
 474 498 l 1,13,-1
 474 474 l 1,14,-1
 462 474 l 1,15,-1
 462 462 l 1,16,-1
 450 462 l 1,17,-1
 450 438 l 1,18,-1
 438 438 l 1,19,-1
 438 426 l 1,20,-1
 414 426 l 1,21,-1
 414 414 l 1,22,-1
 402 414 l 1,23,-1
 402 402 l 1,24,-1
 378 402 l 1,25,-1
 378 390 l 1,26,-1
 306 390 l 1,27,-1
 306 402 l 1,28,-1
 330 402 l 1,29,-1
 330 414 l 1,30,-1
 342 414 l 1,31,-1
 342 426 l 1,32,-1
 354 426 l 1,33,-1
 354 438 l 1,34,-1
 366 438 l 1,35,-1
 366 462 l 1,36,-1
 378 462 l 1,37,-1
 378 486 l 1,38,-1
 390 486 l 1,39,-1
 390 547 l 1,40,-1
 378 547 l 1,41,-1
 378 559 l 1,42,-1
 342 559 l 1,43,-1
 342 571 l 1,44,-1
 330 571 l 1,45,-1
 330 583 l 1,46,-1
 318 583 l 1,47,-1
 318 595 l 1,48,-1
 306 595 l 1,49,-1
 306 620 l 1,50,-1
 294 620 l 1,51,-1
 294 692 l 1,52,-1
 306 692 l 1,53,-1
 306 704 l 1,54,-1
 318 704 l 1,55,-1
 318 716 l 1,56,-1
 330 716 l 1,57,-1
 330 728 l 1,58,-1
 354 728 l 1,59,-1
 354 740 l 1,0,-1
123 740 m 1,60,-1
 208 740 l 1,61,-1
 208 728 l 1,62,-1
 232 728 l 1,63,-1
 232 716 l 1,64,-1
 244 716 l 1,65,-1
 244 704 l 1,66,-1
 256 704 l 1,67,-1
 256 680 l 1,68,-1
 268 680 l 1,69,-1
 268 535 l 1,70,-1
 256 535 l 1,71,-1
 256 498 l 1,72,-1
 244 498 l 1,73,-1
 244 474 l 1,74,-1
 232 474 l 1,75,-1
 232 462 l 1,76,-1
 220 462 l 1,77,-1
 220 438 l 1,78,-1
 208 438 l 1,79,-1
 208 426 l 1,80,-1
 183 426 l 1,81,-1
 183 414 l 1,82,-1
 171 414 l 1,83,-1
 171 402 l 1,84,-1
 147 402 l 1,85,-1
 147 390 l 1,86,-1
 74 390 l 1,87,-1
 74 402 l 1,88,-1
 98 402 l 1,89,-1
 98 414 l 1,90,-1
 111 414 l 1,91,-1
 111 426 l 1,92,-1
 123 426 l 1,93,-1
 123 438 l 1,94,-1
 135 438 l 1,95,-1
 135 462 l 1,96,-1
 147 462 l 1,97,-1
 147 486 l 1,98,-1
 159 486 l 1,99,-1
 159 547 l 1,100,-1
 147 547 l 1,101,-1
 147 559 l 1,102,-1
 111 559 l 1,103,-1
 111 571 l 1,104,-1
 98 571 l 1,105,-1
 98 583 l 1,106,-1
 86 583 l 1,107,-1
 86 595 l 1,108,-1
 74 595 l 1,109,-1
 74 620 l 1,110,-1
 62 620 l 1,111,-1
 62 692 l 1,112,-1
 74 692 l 1,113,-1
 74 704 l 1,114,-1
 86 704 l 1,115,-1
 86 716 l 1,116,-1
 98 716 l 1,117,-1
 98 728 l 1,118,-1
 123 728 l 1,119,-1
 123 740 l 1,60,-1
EndSplineSet
EndChar

StartChar: numbersign
Encoding: 35 35 6
Width: 806
GlyphClass: 1
Flags: W
LayerCount: 2
Fore
SplineSet
661 700 m 1,0,-1
 670 700 l 1,1,-1
 670 691 l 1,2,-1
 678 691 l 1,3,-1
 678 683 l 1,4,-1
 670 683 l 1,5,-1
 670 657 l 1,6,-1
 661 657 l 1,7,-1
 661 623 l 1,8,-1
 652 623 l 1,9,-1
 652 589 l 1,10,-1
 644 589 l 1,11,-1
 644 555 l 1,12,-1
 635 555 l 1,13,-1
 635 521 l 1,14,-1
 627 521 l 1,15,-1
 627 495 l 1,16,-1
 721 495 l 1,17,-1
 721 418 l 1,18,-1
 601 418 l 1,19,-1
 601 393 l 1,20,-1
 593 393 l 1,21,-1
 593 359 l 1,22,-1
 584 359 l 1,23,-1
 584 324 l 1,24,-1
 576 324 l 1,25,-1
 576 290 l 1,26,-1
 567 290 l 1,27,-1
 567 273 l 1,28,-1
 661 273 l 1,29,-1
 661 196 l 1,30,-1
 550 196 l 1,31,-1
 550 188 l 1,32,-1
 542 188 l 1,33,-1
 542 154 l 1,34,-1
 533 154 l 1,35,-1
 533 111 l 1,36,-1
 524 111 l 1,37,-1
 524 85 l 1,38,-1
 516 85 l 1,39,-1
 516 51 l 1,40,-1
 507 51 l 1,41,-1
 507 9 l 1,42,-1
 499 9 l 1,43,-1
 499 0 l 1,44,-1
 413 0 l 1,45,-1
 413 34 l 1,46,-1
 422 34 l 1,47,-1
 422 77 l 1,48,-1
 431 77 l 1,49,-1
 431 111 l 1,50,-1
 439 111 l 1,51,-1
 439 145 l 1,52,-1
 448 145 l 1,53,-1
 448 179 l 1,54,-1
 456 179 l 1,55,-1
 456 196 l 1,56,-1
 251 196 l 1,57,-1
 251 162 l 1,58,-1
 243 162 l 1,59,-1
 243 128 l 1,60,-1
 234 128 l 1,61,-1
 234 94 l 1,62,-1
 226 94 l 1,63,-1
 226 60 l 1,64,-1
 217 60 l 1,65,-1
 217 26 l 1,66,-1
 209 26 l 1,67,-1
 209 0 l 1,68,-1
 115 0 l 1,69,-1
 115 17 l 1,70,-1
 123 17 l 1,71,-1
 123 51 l 1,72,-1
 132 51 l 1,73,-1
 132 85 l 1,74,-1
 140 85 l 1,75,-1
 140 120 l 1,76,-1
 149 120 l 1,77,-1
 149 154 l 1,78,-1
 157 154 l 1,79,-1
 157 188 l 1,80,-1
 166 188 l 1,81,-1
 166 196 l 1,82,-1
 72 196 l 1,83,-1
 72 273 l 1,84,-1
 183 273 l 1,85,-1
 183 299 l 1,86,-1
 192 299 l 1,87,-1
 192 333 l 1,88,-1
 200 333 l 1,89,-1
 200 367 l 1,90,-1
 209 367 l 1,91,-1
 209 401 l 1,92,-1
 217 401 l 1,93,-1
 217 418 l 1,94,-1
 123 418 l 1,95,-1
 123 487 l 1,96,-1
 115 487 l 1,97,-1
 115 495 l 1,98,-1
 234 495 l 1,99,-1
 234 504 l 1,100,-1
 243 504 l 1,101,-1
 243 538 l 1,102,-1
 251 538 l 1,103,-1
 251 572 l 1,104,-1
 260 572 l 1,105,-1
 260 606 l 1,106,-1
 268 606 l 1,107,-1
 268 640 l 1,108,-1
 277 640 l 1,109,-1
 277 674 l 1,110,-1
 285 674 l 1,111,-1
 285 691 l 1,112,-1
 294 691 l 1,113,-1
 294 700 l 1,114,-1
 302 700 l 1,115,-1
 302 691 l 1,116,-1
 379 691 l 1,117,-1
 379 683 l 1,118,-1
 371 683 l 1,119,-1
 371 649 l 1,120,-1
 362 649 l 1,121,-1
 362 615 l 1,122,-1
 354 615 l 1,123,-1
 354 580 l 1,124,-1
 345 580 l 1,125,-1
 345 546 l 1,126,-1
 337 546 l 1,127,-1
 337 512 l 1,128,-1
 328 512 l 1,129,-1
 328 495 l 1,130,-1
 533 495 l 1,131,-1
 533 504 l 1,132,-1
 542 504 l 1,133,-1
 542 538 l 1,134,-1
 550 538 l 1,135,-1
 550 572 l 1,136,-1
 559 572 l 1,137,-1
 559 606 l 1,138,-1
 567 606 l 1,139,-1
 567 640 l 1,140,-1
 576 640 l 1,141,-1
 576 674 l 1,142,-1
 584 674 l 1,143,-1
 584 700 l 1,144,-1
 644 700 l 1,145,-1
 644 691 l 1,146,-1
 661 691 l 1,147,-1
 661 700 l 1,0,-1
482 273 m 1,148,-1
 482 307 l 1,149,-1
 490 307 l 1,150,-1
 490 341 l 1,151,-1
 499 341 l 1,152,-1
 499 376 l 1,153,-1
 507 376 l 1,154,-1
 507 401 l 1,155,-1
 516 401 l 1,156,-1
 516 418 l 1,157,-1
 302 418 l 1,158,-1
 302 376 l 1,159,-1
 294 376 l 1,160,-1
 294 341 l 1,161,-1
 285 341 l 1,162,-1
 285 307 l 1,163,-1
 277 307 l 1,164,-1
 277 273 l 1,165,-1
 482 273 l 1,148,-1
EndSplineSet
EndChar

StartChar: dollar
Encoding: 36 36 7
Width: 725
GlyphClass: 1
Flags: W
LayerCount: 2
Fore
SplineSet
434 144 m 1,0,-1
 434 153 l 1,1,-1
 452 153 l 1,2,-1
 452 162 l 1,3,-1
 469 162 l 1,4,-1
 469 170 l 1,5,-1
 478 170 l 1,6,-1
 478 179 l 1,7,-1
 486 179 l 1,8,-1
 486 188 l 1,9,-1
 495 188 l 1,10,-1
 495 205 l 1,11,-1
 503 205 l 1,12,-1
 503 257 l 1,13,-1
 495 257 l 1,14,-1
 495 274 l 1,15,-1
 486 274 l 1,16,-1
 486 283 l 1,17,-1
 478 283 l 1,18,-1
 478 291 l 1,19,-1
 460 291 l 1,20,-1
 460 300 l 1,21,-1
 452 300 l 1,22,-1
 452 309 l 1,23,-1
 426 309 l 1,24,-1
 429 144 l 1,25,-1
 434 144 l 1,0,-1
300 620 m 1,26,-1
 279 620 l 1,27,-1
 279 611 l 1,28,-1
 253 611 l 1,29,-1
 253 602 l 1,30,-1
 244 602 l 1,31,-1
 244 594 l 1,32,-1
 236 594 l 1,33,-1
 236 576 l 1,34,-1
 227 576 l 1,35,-1
 227 507 l 1,36,-1
 236 507 l 1,37,-1
 236 499 l 1,38,-1
 244 499 l 1,39,-1
 244 490 l 1,40,-1
 261 490 l 1,41,-1
 261 481 l 1,42,-1
 287 481 l 1,43,-1
 287 473 l 1,44,-1
 300 473 l 1,45,-1
 300 620 l 1,26,-1
89 196 m 1,46,-1
 97 196 l 1,47,-1
 97 188 l 1,48,-1
 115 188 l 1,49,-1
 115 179 l 1,50,-1
 132 179 l 1,51,-1
 132 170 l 1,52,-1
 158 170 l 1,53,-1
 158 162 l 1,54,-1
 184 162 l 1,55,-1
 184 153 l 1,56,-1
 218 153 l 1,57,-1
 218 144 l 1,58,-1
 279 144 l 1,59,-1
 279 136 l 1,60,-1
 306 136 l 1,61,-1
 308 165 l 1,62,-1
 300 165 l 1,63,-1
 300 173 l 1,64,-1
 291 173 l 1,65,-1
 291 182 l 1,66,-1
 300 182 l 1,67,-1
 300 343 l 1,68,-1
 296 343 l 1,69,-1
 296 352 l 1,70,-1
 253 352 l 1,71,-1
 253 360 l 1,72,-1
 227 360 l 1,73,-1
 227 369 l 1,74,-1
 201 369 l 1,75,-1
 201 378 l 1,76,-1
 184 378 l 1,77,-1
 184 386 l 1,78,-1
 166 386 l 1,79,-1
 166 395 l 1,80,-1
 149 395 l 1,81,-1
 149 404 l 1,82,-1
 140 404 l 1,83,-1
 140 412 l 1,84,-1
 132 412 l 1,85,-1
 132 421 l 1,86,-1
 123 421 l 1,87,-1
 123 430 l 1,88,-1
 115 430 l 1,89,-1
 115 438 l 1,90,-1
 106 438 l 1,91,-1
 106 447 l 1,92,-1
 97 447 l 1,93,-1
 97 464 l 1,94,-1
 89 464 l 1,95,-1
 89 490 l 1,96,-1
 80 490 l 1,97,-1
 80 585 l 1,98,-1
 89 585 l 1,99,-1
 89 620 l 1,100,-1
 97 620 l 1,101,-1
 97 637 l 1,102,-1
 106 637 l 1,103,-1
 106 646 l 1,104,-1
 115 646 l 1,105,-1
 115 654 l 1,106,-1
 123 654 l 1,107,-1
 123 663 l 1,108,-1
 132 663 l 1,109,-1
 132 672 l 1,110,-1
 140 672 l 1,111,-1
 140 680 l 1,112,-1
 149 680 l 1,113,-1
 149 689 l 1,114,-1
 166 689 l 1,115,-1
 166 697 l 1,116,-1
 184 697 l 1,117,-1
 184 706 l 1,118,-1
 210 706 l 1,119,-1
 210 715 l 1,120,-1
 236 715 l 1,121,-1
 236 723 l 1,122,-1
 279 723 l 1,123,-1
 279 732 l 1,124,-1
 297 732 l 1,125,-1
 296 755 l 1,126,-1
 419 755 l 1,127,-1
 419 732 l 1,128,-1
 478 732 l 1,129,-1
 478 723 l 1,130,-1
 529 723 l 1,131,-1
 529 715 l 1,132,-1
 564 715 l 1,133,-1
 564 706 l 1,134,-1
 590 706 l 1,135,-1
 590 585 l 1,136,-1
 581 585 l 1,137,-1
 581 594 l 1,138,-1
 555 594 l 1,139,-1
 555 602 l 1,140,-1
 521 602 l 1,141,-1
 521 611 l 1,142,-1
 486 611 l 1,143,-1
 486 620 l 1,144,-1
 426 620 l 1,145,-1
 426 628 l 1,146,-1
 421 628 l 1,147,-1
 424 438 l 1,148,-1
 452 438 l 1,149,-1
 452 430 l 1,150,-1
 478 430 l 1,151,-1
 478 421 l 1,152,-1
 503 421 l 1,153,-1
 503 412 l 1,154,-1
 529 412 l 1,155,-1
 529 404 l 1,156,-1
 547 404 l 1,157,-1
 547 395 l 1,158,-1
 564 395 l 1,159,-1
 564 386 l 1,160,-1
 573 386 l 1,161,-1
 573 378 l 1,162,-1
 590 378 l 1,163,-1
 590 369 l 1,164,-1
 599 369 l 1,165,-1
 599 360 l 1,166,-1
 607 360 l 1,167,-1
 607 352 l 1,168,-1
 616 352 l 1,169,-1
 616 334 l 1,170,-1
 624 334 l 1,171,-1
 624 317 l 1,172,-1
 633 317 l 1,173,-1
 633 300 l 1,174,-1
 642 300 l 1,175,-1
 642 179 l 1,176,-1
 633 179 l 1,177,-1
 633 162 l 1,178,-1
 624 162 l 1,179,-1
 624 144 l 1,180,-1
 616 144 l 1,181,-1
 616 127 l 1,182,-1
 607 127 l 1,183,-1
 607 118 l 1,184,-1
 599 118 l 1,185,-1
 599 110 l 1,186,-1
 590 110 l 1,187,-1
 590 101 l 1,188,-1
 581 101 l 1,189,-1
 581 92 l 1,190,-1
 573 92 l 1,191,-1
 573 84 l 1,192,-1
 555 84 l 1,193,-1
 555 75 l 1,194,-1
 547 75 l 1,195,-1
 547 67 l 1,196,-1
 529 67 l 1,197,-1
 529 58 l 1,198,-1
 503 58 l 1,199,-1
 503 49 l 1,200,-1
 469 49 l 1,201,-1
 469 41 l 1,202,-1
 430 41 l 1,203,-1
 431 0 l 1,204,-1
 296 0 l 1,205,-1
 298 32 l 1,206,-1
 253 32 l 1,207,-1
 253 41 l 1,208,-1
 192 41 l 1,209,-1
 192 49 l 1,210,-1
 158 49 l 1,211,-1
 158 58 l 1,212,-1
 123 58 l 1,213,-1
 123 67 l 1,214,-1
 89 67 l 1,215,-1
 89 75 l 1,216,-1
 80 75 l 1,217,-1
 80 136 l 1,218,-1
 89 136 l 1,219,-1
 89 196 l 1,46,-1
EndSplineSet
EndChar

StartChar: percent
Encoding: 37 37 8
Width: 637
GlyphClass: 1
Flags: W
LayerCount: 2
Fore
SplineSet
200 711 m 1,0,-1
 257 711 l 1,1,-1
 257 708 l 1,2,-1
 266 706 l 1,3,-1
 277 713 l 1,4,-1
 275 706 l 1,5,-1
 275 703 l 1,6,-1
 283 703 l 1,7,-1
 283 700 l 1,8,-1
 288 700 l 1,9,-1
 288 698 l 1,10,-1
 293 698 l 1,11,-1
 293 695 l 1,12,-1
 296 695 l 1,13,-1
 296 693 l 1,14,-1
 301 693 l 1,15,-1
 301 690 l 1,16,-1
 304 690 l 1,17,-1
 304 688 l 1,18,-1
 306 688 l 1,19,-1
 306 685 l 1,20,-1
 309 685 l 1,21,-1
 309 682 l 1,22,-1
 311 682 l 1,23,-1
 311 680 l 1,24,-1
 314 680 l 1,25,-1
 314 677 l 1,26,-1
 316 677 l 1,27,-1
 316 675 l 1,28,-1
 319 675 l 1,29,-1
 319 672 l 1,30,-1
 322 672 l 1,31,-1
 322 667 l 1,32,-1
 324 667 l 1,33,-1
 324 664 l 1,34,-1
 327 664 l 1,35,-1
 327 659 l 1,36,-1
 329 659 l 1,37,-1
 329 651 l 1,38,-1
 332 651 l 1,39,-1
 332 646 l 1,40,-1
 335 646 l 1,41,-1
 335 636 l 1,42,-1
 337 636 l 1,43,-1
 337 623 l 1,44,-1
 340 624 l 1,45,-1
 340 591 l 1,46,-1
 337 589 l 1,47,-1
 337 574 l 1,48,-1
 335 574 l 1,49,-1
 335 566 l 1,50,-1
 332 566 l 1,51,-1
 332 558 l 1,52,-1
 329 558 l 1,53,-1
 329 553 l 1,54,-1
 327 553 l 1,55,-1
 327 548 l 1,56,-1
 324 548 l 1,57,-1
 324 545 l 1,58,-1
 322 545 l 1,59,-1
 322 540 l 1,60,-1
 319 540 l 1,61,-1
 319 537 l 1,62,-1
 316 537 l 1,63,-1
 316 535 l 1,64,-1
 314 535 l 1,65,-1
 314 532 l 1,66,-1
 311 532 l 1,67,-1
 311 530 l 1,68,-1
 309 530 l 1,69,-1
 309 527 l 1,70,-1
 306 527 l 1,71,-1
 306 524 l 1,72,-1
 304 524 l 1,73,-1
 304 522 l 1,74,-1
 301 522 l 1,75,-1
 301 519 l 1,76,-1
 296 519 l 1,77,-1
 296 517 l 1,78,-1
 291 517 l 1,79,-1
 291 514 l 1,80,-1
 285 514 l 1,81,-1
 285 512 l 1,82,-1
 280 512 l 1,83,-1
 280 509 l 1,84,-1
 272 509 l 1,85,-1
 272 506 l 1,86,-1
 262 506 l 1,87,-1
 262 504 l 1,88,-1
 244 504 l 1,89,-1
 244 501 l 1,90,-1
 202 501 l 1,91,-1
 202 504 l 1,92,-1
 190 504 l 1,93,-1
 190 506 l 1,94,-1
 179 506 l 1,95,-1
 179 509 l 1,96,-1
 171 509 l 1,97,-1
 171 512 l 1,98,-1
 166 512 l 1,99,-1
 166 514 l 1,100,-1
 161 514 l 1,101,-1
 161 517 l 1,102,-1
 156 517 l 1,103,-1
 156 519 l 1,104,-1
 153 519 l 1,105,-1
 153 522 l 1,106,-1
 148 522 l 1,107,-1
 148 524 l 1,108,-1
 145 524 l 1,109,-1
 145 527 l 1,110,-1
 143 527 l 1,111,-1
 143 530 l 1,112,-1
 140 530 l 1,113,-1
 140 532 l 1,114,-1
 138 532 l 1,115,-1
 138 535 l 1,116,-1
 135 535 l 1,117,-1
 135 537 l 1,118,-1
 132 537 l 1,119,-1
 130 546 l 1,120,-1
 128 546 l 1,121,-1
 130 548 l 1,122,-1
 127 548 l 1,123,-1
 127 550 l 1,124,-1
 125 550 l 1,125,-1
 125 555 l 1,126,-1
 122 555 l 1,127,-1
 122 563 l 1,128,-1
 119 563 l 1,129,-1
 119 571 l 1,130,-1
 117 571 l 1,131,-1
 117 584 l 1,132,-1
 114 584 l 1,133,-1
 114 631 l 1,134,-1
 117 631 l 1,135,-1
 117 641 l 1,136,-1
 119 641 l 1,137,-1
 119 649 l 1,138,-1
 122 649 l 1,139,-1
 122 657 l 1,140,-1
 125 657 l 1,141,-1
 125 662 l 1,142,-1
 127 662 l 1,143,-1
 127 667 l 1,144,-1
 130 667 l 1,145,-1
 130 670 l 1,146,-1
 132 670 l 1,147,-1
 132 675 l 1,148,-1
 135 675 l 1,149,-1
 135 677 l 1,150,-1
 138 677 l 1,151,-1
 138 680 l 1,152,-1
 140 680 l 1,153,-1
 140 682 l 1,154,-1
 143 682 l 1,155,-1
 143 685 l 1,156,-1
 145 685 l 1,157,-1
 145 688 l 1,158,-1
 148 688 l 1,159,-1
 148 690 l 1,160,-1
 151 690 l 1,161,-1
 151 693 l 1,162,-1
 156 693 l 1,163,-1
 156 695 l 1,164,-1
 161 695 l 1,165,-1
 161 698 l 1,166,-1
 163 698 l 1,167,-1
 163 700 l 1,168,-1
 171 700 l 1,169,-1
 171 703 l 1,170,-1
 179 703 l 1,171,-1
 179 706 l 1,172,-1
 187 706 l 1,173,-1
 187 708 l 1,174,-1
 200 708 l 1,175,-1
 200 711 l 1,0,-1
247 532 m 1,176,-1
 247 535 l 1,177,-1
 257 535 l 1,178,-1
 257 537 l 1,179,-1
 265 537 l 1,180,-1
 265 540 l 1,181,-1
 267 540 l 1,182,-1
 267 542 l 1,183,-1
 272 542 l 1,184,-1
 272 545 l 1,185,-1
 275 545 l 1,186,-1
 275 548 l 1,187,-1
 280 548 l 1,188,-1
 280 550 l 1,189,-1
 283 550 l 1,190,-1
 283 555 l 1,191,-1
 285 555 l 1,192,-1
 285 558 l 1,193,-1
 288 558 l 1,194,-1
 288 563 l 1,195,-1
 291 563 l 1,196,-1
 291 568 l 1,197,-1
 293 568 l 1,198,-1
 293 574 l 1,199,-1
 296 574 l 1,200,-1
 296 586 l 1,201,-1
 298 586 l 1,202,-1
 298 623 l 1,203,-1
 296 623 l 1,204,-1
 296 633 l 1,205,-1
 293 633 l 1,206,-1
 293 641 l 1,207,-1
 291 641 l 1,208,-1
 291 649 l 1,209,-1
 288 649 l 1,210,-1
 288 651 l 1,211,-1
 285 651 l 1,212,-1
 285 657 l 1,213,-1
 283 657 l 1,214,-1
 283 659 l 1,215,-1
 280 659 l 1,216,-1
 280 662 l 1,217,-1
 277 662 l 1,218,-1
 277 664 l 1,219,-1
 275 664 l 1,220,-1
 275 667 l 1,221,-1
 272 667 l 1,222,-1
 272 670 l 1,223,-1
 270 670 l 1,224,-1
 270 672 l 1,225,-1
 265 672 l 1,226,-1
 265 675 l 1,227,-1
 257 675 l 1,228,-1
 257 677 l 1,229,-1
 247 677 l 1,230,-1
 247 680 l 1,231,-1
 208 680 l 1,232,-1
 208 677 l 1,233,-1
 195 677 l 1,234,-1
 195 675 l 1,235,-1
 190 675 l 1,236,-1
 190 672 l 1,237,-1
 184 672 l 1,238,-1
 184 670 l 1,239,-1
 179 670 l 1,240,-1
 179 667 l 1,241,-1
 176 667 l 1,242,-1
 176 664 l 1,243,-1
 174 664 l 1,244,-1
 174 662 l 1,245,-1
 171 662 l 1,246,-1
 171 659 l 1,247,-1
 169 659 l 1,248,-1
 169 654 l 1,249,-1
 166 654 l 1,250,-1
 166 649 l 1,251,-1
 163 649 l 1,252,-1
 163 644 l 1,253,-1
 161 644 l 1,254,-1
 161 636 l 1,255,-1
 158 636 l 1,256,-1
 158 626 l 1,257,-1
 156 626 l 1,258,-1
 156 586 l 1,259,-1
 158 586 l 1,260,-1
 158 574 l 1,261,-1
 161 574 l 1,262,-1
 161 568 l 1,263,-1
 163 568 l 1,264,-1
 163 561 l 1,265,-1
 166 561 l 1,266,-1
 166 558 l 1,267,-1
 169 558 l 1,268,-1
 169 553 l 1,269,-1
 171 553 l 1,270,-1
 171 550 l 1,271,-1
 174 550 l 1,272,-1
 174 548 l 1,273,-1
 176 548 l 1,274,-1
 176 545 l 1,275,-1
 179 545 l 1,276,-1
 179 544 l 1,277,-1
 182 544 l 1,278,-1
 184 540 l 1,279,-1
 190 540 l 1,280,-1
 190 537 l 1,281,-1
 195 537 l 1,282,-1
 195 535 l 1,283,-1
 205 535 l 1,284,-1
 205 532 l 1,285,-1
 247 532 l 1,176,-1
408 228 m 1,286,-1
 465 228 l 1,287,-1
 465 225 l 1,288,-1
 475 225 l 1,289,-1
 475 223 l 1,290,-1
 483 223 l 1,291,-1
 483 220 l 1,292,-1
 491 220 l 1,293,-1
 491 218 l 1,294,-1
 496 218 l 1,295,-1
 496 215 l 1,296,-1
 501 215 l 1,297,-1
 501 212 l 1,298,-1
 504 212 l 1,299,-1
 504 210 l 1,300,-1
 509 210 l 1,301,-1
 509 207 l 1,302,-1
 512 207 l 1,303,-1
 512 205 l 1,304,-1
 514 205 l 1,305,-1
 514 202 l 1,306,-1
 517 202 l 1,307,-1
 517 200 l 1,308,-1
 519 200 l 1,309,-1
 519 197 l 1,310,-1
 522 197 l 1,311,-1
 522 194 l 1,312,-1
 524 194 l 1,313,-1
 524 192 l 1,314,-1
 527 192 l 1,315,-1
 527 189 l 1,316,-1
 530 189 l 1,317,-1
 530 184 l 1,318,-1
 532 184 l 1,319,-1
 532 181 l 1,320,-1
 535 181 l 1,321,-1
 535 176 l 1,322,-1
 537 176 l 1,323,-1
 537 168 l 1,324,-1
 540 168 l 1,325,-1
 540 163 l 1,326,-1
 543 163 l 1,327,-1
 543 153 l 1,328,-1
 545 153 l 1,329,-1
 545 140 l 1,330,-1
 548 140 l 1,331,-1
 548 106 l 1,332,-1
 545 106 l 1,333,-1
 545 91 l 1,334,-1
 543 91 l 1,335,-1
 543 83 l 1,336,-1
 540 83 l 1,337,-1
 540 75 l 1,338,-1
 537 75 l 1,339,-1
 537 70 l 1,340,-1
 535 70 l 1,341,-1
 535 65 l 1,342,-1
 532 65 l 1,343,-1
 532 62 l 1,344,-1
 530 62 l 1,345,-1
 530 57 l 1,346,-1
 527 57 l 1,347,-1
 527 54 l 1,348,-1
 524 54 l 1,349,-1
 524 52 l 1,350,-1
 522 52 l 1,351,-1
 522 49 l 1,352,-1
 519 49 l 1,353,-1
 519 46 l 1,354,-1
 517 46 l 1,355,-1
 517 44 l 1,356,-1
 514 44 l 1,357,-1
 514 41 l 1,358,-1
 512 41 l 1,359,-1
 512 39 l 1,360,-1
 509 39 l 1,361,-1
 509 36 l 1,362,-1
 504 36 l 1,363,-1
 504 34 l 1,364,-1
 499 34 l 1,365,-1
 499 31 l 1,366,-1
 493 31 l 1,367,-1
 493 28 l 1,368,-1
 488 28 l 1,369,-1
 488 26 l 1,370,-1
 480 26 l 1,371,-1
 480 23 l 1,372,-1
 470 23 l 1,373,-1
 470 21 l 1,374,-1
 452 21 l 1,375,-1
 452 18 l 1,376,-1
 410 18 l 1,377,-1
 410 21 l 1,378,-1
 398 21 l 1,379,-1
 398 23 l 1,380,-1
 387 23 l 1,381,-1
 387 26 l 1,382,-1
 379 26 l 1,383,-1
 379 28 l 1,384,-1
 374 28 l 1,385,-1
 374 31 l 1,386,-1
 369 31 l 1,387,-1
 369 34 l 1,388,-1
 364 34 l 1,389,-1
 364 36 l 1,390,-1
 361 36 l 1,391,-1
 361 39 l 1,392,-1
 356 39 l 1,393,-1
 356 41 l 1,394,-1
 353 41 l 1,395,-1
 353 44 l 1,396,-1
 351 44 l 1,397,-1
 351 46 l 1,398,-1
 348 46 l 1,399,-1
 348 49 l 1,400,-1
 346 49 l 1,401,-1
 346 52 l 1,402,-1
 343 52 l 1,403,-1
 343 54 l 1,404,-1
 340 54 l 1,405,-1
 340 59 l 1,406,-1
 338 59 l 1,407,-1
 338 65 l 1,408,-1
 335 65 l 1,409,-1
 335 67 l 1,410,-1
 333 67 l 1,411,-1
 333 72 l 1,412,-1
 330 72 l 1,413,-1
 330 80 l 1,414,-1
 327 80 l 1,415,-1
 327 88 l 1,416,-1
 325 88 l 1,417,-1
 325 101 l 1,418,-1
 322 101 l 1,419,-1
 322 148 l 1,420,-1
 325 148 l 1,421,-1
 325 158 l 1,422,-1
 327 158 l 1,423,-1
 327 166 l 1,424,-1
 330 166 l 1,425,-1
 330 174 l 1,426,-1
 333 174 l 1,427,-1
 333 179 l 1,428,-1
 335 179 l 1,429,-1
 335 184 l 1,430,-1
 338 184 l 1,431,-1
 338 187 l 1,432,-1
 340 187 l 1,433,-1
 340 192 l 1,434,-1
 343 192 l 1,435,-1
 343 194 l 1,436,-1
 346 194 l 1,437,-1
 346 197 l 1,438,-1
 348 197 l 1,439,-1
 348 200 l 1,440,-1
 351 200 l 1,441,-1
 351 202 l 1,442,-1
 353 202 l 1,443,-1
 353 205 l 1,444,-1
 356 205 l 1,445,-1
 356 207 l 1,446,-1
 358 207 l 1,447,-1
 358 210 l 1,448,-1
 364 210 l 1,449,-1
 364 212 l 1,450,-1
 369 212 l 1,451,-1
 369 215 l 1,452,-1
 371 215 l 1,453,-1
 371 218 l 1,454,-1
 379 218 l 1,455,-1
 379 220 l 1,456,-1
 387 220 l 1,457,-1
 387 223 l 1,458,-1
 395 223 l 1,459,-1
 395 225 l 1,460,-1
 408 225 l 1,461,-1
 408 228 l 1,286,-1
454 49 m 1,462,-1
 454 52 l 1,463,-1
 465 52 l 1,464,-1
 465 54 l 1,465,-1
 472 54 l 1,466,-1
 472 57 l 1,467,-1
 475 57 l 1,468,-1
 475 59 l 1,469,-1
 480 59 l 1,470,-1
 480 62 l 1,471,-1
 483 62 l 1,472,-1
 483 65 l 1,473,-1
 488 65 l 1,474,-1
 488 67 l 1,475,-1
 491 67 l 1,476,-1
 491 72 l 1,477,-1
 493 72 l 1,478,-1
 493 75 l 1,479,-1
 496 75 l 1,480,-1
 496 80 l 1,481,-1
 499 80 l 1,482,-1
 499 86 l 1,483,-1
 501 86 l 1,484,-1
 501 91 l 1,485,-1
 504 91 l 1,486,-1
 504 104 l 1,487,-1
 506 104 l 1,488,-1
 506 140 l 1,489,-1
 504 140 l 1,490,-1
 504 150 l 1,491,-1
 501 150 l 1,492,-1
 501 158 l 1,493,-1
 499 158 l 1,494,-1
 499 166 l 1,495,-1
 496 166 l 1,496,-1
 496 168 l 1,497,-1
 493 168 l 1,498,-1
 493 174 l 1,499,-1
 491 174 l 1,500,-1
 491 176 l 1,501,-1
 488 176 l 1,502,-1
 488 179 l 1,503,-1
 485 179 l 1,504,-1
 485 181 l 1,505,-1
 483 181 l 1,506,-1
 483 184 l 1,507,-1
 480 184 l 1,508,-1
 480 187 l 1,509,-1
 478 187 l 1,510,-1
 478 189 l 1,511,-1
 472 189 l 1,512,-1
 472 192 l 1,513,-1
 465 192 l 1,514,-1
 465 194 l 1,515,-1
 454 194 l 1,516,-1
 454 197 l 1,517,-1
 416 197 l 1,518,-1
 416 194 l 1,519,-1
 403 194 l 1,520,-1
 403 192 l 1,521,-1
 398 192 l 1,522,-1
 398 189 l 1,523,-1
 392 189 l 1,524,-1
 392 187 l 1,525,-1
 387 187 l 1,526,-1
 387 184 l 1,527,-1
 384 184 l 1,528,-1
 384 181 l 1,529,-1
 382 181 l 1,530,-1
 382 179 l 1,531,-1
 379 179 l 1,532,-1
 379 176 l 1,533,-1
 376 176 l 1,534,-1
 376 171 l 1,535,-1
 374 171 l 1,536,-1
 374 166 l 1,537,-1
 371 166 l 1,538,-1
 371 160 l 1,539,-1
 369 160 l 1,540,-1
 369 153 l 1,541,-1
 366 153 l 1,542,-1
 366 142 l 1,543,-1
 364 142 l 1,544,-1
 364 104 l 1,545,-1
 366 104 l 1,546,-1
 366 91 l 1,547,-1
 369 91 l 1,548,-1
 369 86 l 1,549,-1
 371 86 l 1,550,-1
 371 78 l 1,551,-1
 374 78 l 1,552,-1
 374 75 l 1,553,-1
 376 75 l 1,554,-1
 376 70 l 1,555,-1
 379 70 l 1,556,-1
 379 67 l 1,557,-1
 382 67 l 1,558,-1
 382 65 l 1,559,-1
 384 65 l 1,560,-1
 384 62 l 1,561,-1
 387 62 l 1,562,-1
 387 59 l 1,563,-1
 392 59 l 1,564,-1
 392 57 l 1,565,-1
 398 57 l 1,566,-1
 398 54 l 1,567,-1
 403 54 l 1,568,-1
 403 52 l 1,569,-1
 413 52 l 1,570,-1
 413 49 l 1,571,-1
 454 49 l 1,462,-1
219 7 m 1,572,-1
 219 15 l 1,573,-1
 119 15 l 1,574,-1
 119 7 l 1,575,-1
 111 7 l 1,576,-1
 111 15 l 1,577,-1
 102 15 l 1,578,-1
 102 24 l 1,579,-1
 111 24 l 1,580,-1
 322 476 l 1,581,-1
 318 482 l 1,582,-1
 323 494 l 1,583,-1
 322 484 l 1,584,-1
 432 699 l 1,585,-1
 555 699 l 1,586,-1
 227 7 l 1,587,-1
 219 7 l 1,572,-1
EndSplineSet
EndChar

StartChar: ampersand
Encoding: 38 38 9
Width: 824
GlyphClass: 1
Flags: W
LayerCount: 2
Fore
SplineSet
589 358 m 1,0,-1
 697 358 l 1,1,-1
 697 333 l 1,2,-1
 689 333 l 1,3,-1
 689 292 l 1,4,-1
 680 292 l 1,5,-1
 680 267 l 1,6,-1
 672 267 l 1,7,-1
 672 242 l 1,8,-1
 664 242 l 1,9,-1
 664 217 l 1,10,-1
 655 217 l 1,11,-1
 655 200 l 1,12,-1
 647 200 l 1,13,-1
 647 183 l 1,14,-1
 639 183 l 1,15,-1
 639 167 l 1,16,-1
 630 167 l 1,17,-1
 630 150 l 1,18,-1
 622 150 l 1,19,-1
 622 133 l 1,20,-1
 630 133 l 1,21,-1
 630 125 l 1,22,-1
 639 125 l 1,23,-1
 639 117 l 1,24,-1
 647 117 l 1,25,-1
 647 108 l 1,26,-1
 655 108 l 1,27,-1
 655 100 l 1,28,-1
 664 100 l 1,29,-1
 664 92 l 1,30,-1
 672 92 l 1,31,-1
 672 83 l 1,32,-1
 680 83 l 1,33,-1
 680 67 l 1,34,-1
 689 67 l 1,35,-1
 689 58 l 1,36,-1
 697 58 l 1,37,-1
 697 50 l 1,38,-1
 705 50 l 1,39,-1
 705 42 l 1,40,-1
 714 42 l 1,41,-1
 714 33 l 1,42,-1
 730 33 l 1,43,-1
 730 25 l 1,44,-1
 739 25 l 1,45,-1
 739 17 l 1,46,-1
 689 17 l 1,47,-1
 689 8 l 1,48,-1
 589 8 l 1,49,-1
 589 17 l 1,50,-1
 580 17 l 1,51,-1
 580 25 l 1,52,-1
 572 25 l 1,53,-1
 572 33 l 1,54,-1
 564 33 l 1,55,-1
 564 50 l 1,56,-1
 555 50 l 1,57,-1
 555 58 l 1,58,-1
 530 58 l 1,59,-1
 530 50 l 1,60,-1
 522 50 l 1,61,-1
 522 42 l 1,62,-1
 505 42 l 1,63,-1
 505 33 l 1,64,-1
 489 33 l 1,65,-1
 489 25 l 1,66,-1
 464 25 l 1,67,-1
 464 17 l 1,68,-1
 439 17 l 1,69,-1
 439 8 l 1,70,-1
 405 8 l 1,71,-1
 405 0 l 1,72,-1
 247 0 l 1,73,-1
 247 8 l 1,74,-1
 214 8 l 1,75,-1
 214 17 l 1,76,-1
 189 17 l 1,77,-1
 189 25 l 1,78,-1
 172 25 l 1,79,-1
 172 33 l 1,80,-1
 155 33 l 1,81,-1
 155 42 l 1,82,-1
 147 42 l 1,83,-1
 147 50 l 1,84,-1
 139 50 l 1,85,-1
 139 58 l 1,86,-1
 130 58 l 1,87,-1
 130 67 l 1,88,-1
 122 67 l 1,89,-1
 122 75 l 1,90,-1
 114 75 l 1,91,-1
 114 83 l 1,92,-1
 105 83 l 1,93,-1
 105 92 l 1,94,-1
 97 92 l 1,95,-1
 97 108 l 1,96,-1
 89 108 l 1,97,-1
 89 125 l 1,98,-1
 80 125 l 1,99,-1
 80 158 l 1,100,-1
 72 158 l 1,101,-1
 72 242 l 1,102,-1
 80 242 l 1,103,-1
 80 267 l 1,104,-1
 89 267 l 1,105,-1
 89 283 l 1,106,-1
 97 283 l 1,107,-1
 97 300 l 1,108,-1
 105 300 l 1,109,-1
 105 317 l 1,110,-1
 114 317 l 1,111,-1
 114 325 l 1,112,-1
 122 325 l 1,113,-1
 122 333 l 1,114,-1
 130 333 l 1,115,-1
 130 342 l 1,116,-1
 139 342 l 1,117,-1
 139 350 l 1,118,-1
 147 350 l 1,119,-1
 147 358 l 1,120,-1
 155 358 l 1,121,-1
 155 367 l 1,122,-1
 172 367 l 1,123,-1
 172 375 l 1,124,-1
 180 375 l 1,125,-1
 180 383 l 1,126,-1
 197 383 l 1,127,-1
 197 392 l 1,128,-1
 222 392 l 1,129,-1
 222 400 l 1,130,-1
 247 400 l 1,131,-1
 247 417 l 1,132,-1
 239 417 l 1,133,-1
 239 425 l 1,134,-1
 230 425 l 1,135,-1
 230 433 l 1,136,-1
 222 433 l 1,137,-1
 222 450 l 1,138,-1
 214 450 l 1,139,-1
 214 458 l 1,140,-1
 205 458 l 1,141,-1
 205 475 l 1,142,-1
 197 475 l 1,143,-1
 197 500 l 1,144,-1
 189 500 l 1,145,-1
 189 583 l 1,146,-1
 197 583 l 1,147,-1
 197 608 l 1,148,-1
 205 608 l 1,149,-1
 205 625 l 1,150,-1
 214 625 l 1,151,-1
 214 633 l 1,152,-1
 222 633 l 1,153,-1
 222 642 l 1,154,-1
 230 642 l 1,155,-1
 230 650 l 1,156,-1
 239 650 l 1,157,-1
 239 658 l 1,158,-1
 247 658 l 1,159,-1
 247 667 l 1,160,-1
 264 667 l 1,161,-1
 264 675 l 1,162,-1
 289 675 l 1,163,-1
 289 683 l 1,164,-1
 314 683 l 1,165,-1
 314 692 l 1,166,-1
 372 692 l 1,167,-1
 372 700 l 1,168,-1
 414 700 l 1,169,-1
 414 692 l 1,170,-1
 497 692 l 1,171,-1
 497 683 l 1,172,-1
 530 683 l 1,173,-1
 530 675 l 1,174,-1
 555 675 l 1,175,-1
 555 583 l 1,176,-1
 530 583 l 1,177,-1
 530 592 l 1,178,-1
 505 592 l 1,179,-1
 505 600 l 1,180,-1
 464 600 l 1,181,-1
 464 608 l 1,182,-1
 364 608 l 1,183,-1
 364 600 l 1,184,-1
 339 600 l 1,185,-1
 339 592 l 1,186,-1
 330 592 l 1,187,-1
 330 583 l 1,188,-1
 322 583 l 1,189,-1
 322 575 l 1,190,-1
 314 575 l 1,191,-1
 314 567 l 1,192,-1
 305 567 l 1,193,-1
 305 508 l 1,194,-1
 314 508 l 1,195,-1
 314 492 l 1,196,-1
 322 492 l 1,197,-1
 322 475 l 1,198,-1
 330 475 l 1,199,-1
 330 458 l 1,200,-1
 339 458 l 1,201,-1
 339 450 l 1,202,-1
 347 450 l 1,203,-1
 347 442 l 1,204,-1
 355 442 l 1,205,-1
 355 433 l 1,206,-1
 364 433 l 1,207,-1
 364 417 l 1,208,-1
 372 417 l 1,209,-1
 372 408 l 1,210,-1
 380 408 l 1,211,-1
 380 400 l 1,212,-1
 389 400 l 1,213,-1
 389 392 l 1,214,-1
 397 392 l 1,215,-1
 397 383 l 1,216,-1
 405 383 l 1,217,-1
 405 375 l 1,218,-1
 414 375 l 1,219,-1
 414 367 l 1,220,-1
 422 367 l 1,221,-1
 422 358 l 1,222,-1
 430 358 l 1,223,-1
 430 350 l 1,224,-1
 439 350 l 1,225,-1
 439 342 l 1,226,-1
 447 342 l 1,227,-1
 447 333 l 1,228,-1
 455 333 l 1,229,-1
 455 325 l 1,230,-1
 464 325 l 1,231,-1
 464 317 l 1,232,-1
 472 317 l 1,233,-1
 472 308 l 1,234,-1
 480 308 l 1,235,-1
 480 300 l 1,236,-1
 489 300 l 1,237,-1
 489 292 l 1,238,-1
 497 292 l 1,239,-1
 497 283 l 1,240,-1
 505 283 l 1,241,-1
 505 275 l 1,242,-1
 514 275 l 1,243,-1
 514 267 l 1,244,-1
 522 267 l 1,245,-1
 522 250 l 1,246,-1
 530 250 l 1,247,-1
 530 242 l 1,248,-1
 539 242 l 1,249,-1
 539 233 l 1,250,-1
 547 233 l 1,251,-1
 547 225 l 1,252,-1
 555 225 l 1,253,-1
 555 217 l 1,254,-1
 564 217 l 1,255,-1
 564 242 l 1,256,-1
 572 242 l 1,257,-1
 572 258 l 1,258,-1
 580 258 l 1,259,-1
 580 300 l 1,260,-1
 589 300 l 1,261,-1
 589 358 l 1,0,-1
397 83 m 1,262,-1
 397 92 l 1,263,-1
 422 92 l 1,264,-1
 422 100 l 1,265,-1
 447 100 l 1,266,-1
 447 108 l 1,267,-1
 464 108 l 1,268,-1
 464 117 l 1,269,-1
 480 117 l 1,270,-1
 480 125 l 1,271,-1
 489 125 l 1,272,-1
 489 142 l 1,273,-1
 480 142 l 1,274,-1
 480 158 l 1,275,-1
 472 158 l 1,276,-1
 472 167 l 1,277,-1
 464 167 l 1,278,-1
 464 175 l 1,279,-1
 455 175 l 1,280,-1
 455 183 l 1,281,-1
 447 183 l 1,282,-1
 447 200 l 1,283,-1
 439 200 l 1,284,-1
 439 208 l 1,285,-1
 430 208 l 1,286,-1
 430 217 l 1,287,-1
 422 217 l 1,288,-1
 422 225 l 1,289,-1
 414 225 l 1,290,-1
 414 233 l 1,291,-1
 405 233 l 1,292,-1
 405 250 l 1,293,-1
 397 250 l 1,294,-1
 397 258 l 1,295,-1
 389 258 l 1,296,-1
 389 267 l 1,297,-1
 380 267 l 1,298,-1
 380 275 l 1,299,-1
 372 275 l 1,300,-1
 372 283 l 1,301,-1
 364 283 l 1,302,-1
 364 292 l 1,303,-1
 355 292 l 1,304,-1
 355 300 l 1,305,-1
 347 300 l 1,306,-1
 347 308 l 1,307,-1
 339 308 l 1,308,-1
 339 317 l 1,309,-1
 330 317 l 1,310,-1
 330 325 l 1,311,-1
 322 325 l 1,312,-1
 322 333 l 1,313,-1
 314 333 l 1,314,-1
 314 342 l 1,315,-1
 289 342 l 1,316,-1
 289 333 l 1,317,-1
 272 333 l 1,318,-1
 272 325 l 1,319,-1
 255 325 l 1,320,-1
 255 317 l 1,321,-1
 247 317 l 1,322,-1
 247 308 l 1,323,-1
 230 308 l 1,324,-1
 230 300 l 1,325,-1
 222 300 l 1,326,-1
 222 292 l 1,327,-1
 214 292 l 1,328,-1
 214 283 l 1,329,-1
 205 283 l 1,330,-1
 205 267 l 1,331,-1
 197 267 l 1,332,-1
 197 242 l 1,333,-1
 189 242 l 1,334,-1
 189 167 l 1,335,-1
 197 167 l 1,336,-1
 197 150 l 1,337,-1
 205 150 l 1,338,-1
 205 133 l 1,339,-1
 214 133 l 1,340,-1
 214 125 l 1,341,-1
 222 125 l 1,342,-1
 222 117 l 1,343,-1
 230 117 l 1,344,-1
 230 108 l 1,345,-1
 239 108 l 1,346,-1
 239 100 l 1,347,-1
 255 100 l 1,348,-1
 255 92 l 1,349,-1
 289 92 l 1,350,-1
 289 83 l 1,351,-1
 397 83 l 1,262,-1
EndSplineSet
EndChar

StartChar: quotesingle
Encoding: 39 39 10
Width: 568
GlyphClass: 1
Flags: W
LayerCount: 2
Fore
SplineSet
235 740 m 1,0,-1
 320 740 l 1,1,-1
 320 728 l 1,2,-1
 344 728 l 1,3,-1
 344 716 l 1,4,-1
 356 716 l 1,5,-1
 356 704 l 1,6,-1
 368 704 l 1,7,-1
 368 680 l 1,8,-1
 380 680 l 1,9,-1
 380 535 l 1,10,-1
 368 535 l 1,11,-1
 368 498 l 1,12,-1
 356 498 l 1,13,-1
 356 474 l 1,14,-1
 344 474 l 1,15,-1
 344 462 l 1,16,-1
 332 462 l 1,17,-1
 332 438 l 1,18,-1
 320 438 l 1,19,-1
 320 426 l 1,20,-1
 295 426 l 1,21,-1
 295 414 l 1,22,-1
 283 414 l 1,23,-1
 283 402 l 1,24,-1
 259 402 l 1,25,-1
 259 390 l 1,26,-1
 186 390 l 1,27,-1
 186 402 l 1,28,-1
 210 402 l 1,29,-1
 210 414 l 1,30,-1
 223 414 l 1,31,-1
 223 426 l 1,32,-1
 235 426 l 1,33,-1
 235 438 l 1,34,-1
 247 438 l 1,35,-1
 247 462 l 1,36,-1
 259 462 l 1,37,-1
 259 486 l 1,38,-1
 271 486 l 1,39,-1
 271 547 l 1,40,-1
 259 547 l 1,41,-1
 259 559 l 1,42,-1
 223 559 l 1,43,-1
 223 571 l 1,44,-1
 210 571 l 1,45,-1
 210 583 l 1,46,-1
 198 583 l 1,47,-1
 198 595 l 1,48,-1
 186 595 l 1,49,-1
 186 620 l 1,50,-1
 174 620 l 1,51,-1
 174 692 l 1,52,-1
 186 692 l 1,53,-1
 186 704 l 1,54,-1
 198 704 l 1,55,-1
 198 716 l 1,56,-1
 210 716 l 1,57,-1
 210 728 l 1,58,-1
 235 728 l 1,59,-1
 235 740 l 1,0,-1
EndSplineSet
EndChar

StartChar: parenleft
Encoding: 40 40 11
Width: 520
GlyphClass: 1
Flags: W
LayerCount: 2
Fore
SplineSet
205 685 m 1,0,-1
 205 700 l 1,1,-1
 219 700 l 1,2,-1
 219 693 l 1,3,-1
 293 693 l 1,4,-1
 293 678 l 1,5,-1
 286 678 l 1,6,-1
 286 671 l 1,7,-1
 278 671 l 1,8,-1
 278 663 l 1,9,-1
 271 663 l 1,10,-1
 271 648 l 1,11,-1
 264 648 l 1,12,-1
 264 641 l 1,13,-1
 256 641 l 1,14,-1
 256 626 l 1,15,-1
 249 626 l 1,16,-1
 249 619 l 1,17,-1
 241 619 l 1,18,-1
 241 604 l 1,19,-1
 234 604 l 1,20,-1
 234 589 l 1,21,-1
 227 589 l 1,22,-1
 227 575 l 1,23,-1
 219 575 l 1,24,-1
 219 560 l 1,25,-1
 212 560 l 1,26,-1
 212 538 l 1,27,-1
 205 538 l 1,28,-1
 205 523 l 1,29,-1
 197 523 l 1,30,-1
 197 494 l 1,31,-1
 190 494 l 1,32,-1
 190 472 l 1,33,-1
 183 472 l 1,34,-1
 183 420 l 1,35,-1
 175 420 l 1,36,-1
 175 273 l 1,37,-1
 183 273 l 1,38,-1
 183 228 l 1,39,-1
 190 228 l 1,40,-1
 190 199 l 1,41,-1
 197 199 l 1,42,-1
 197 177 l 1,43,-1
 205 177 l 1,44,-1
 205 155 l 1,45,-1
 212 155 l 1,46,-1
 212 140 l 1,47,-1
 219 140 l 1,48,-1
 219 125 l 1,49,-1
 227 125 l 1,50,-1
 227 111 l 1,51,-1
 234 111 l 1,52,-1
 234 103 l 1,53,-1
 241 103 l 1,54,-1
 241 88 l 1,55,-1
 249 88 l 1,56,-1
 249 74 l 1,57,-1
 256 74 l 1,58,-1
 256 66 l 1,59,-1
 264 66 l 1,60,-1
 264 52 l 1,61,-1
 271 52 l 1,62,-1
 271 44 l 1,63,-1
 278 44 l 1,64,-1
 278 29 l 1,65,-1
 286 29 l 1,66,-1
 286 22 l 1,67,-1
 293 22 l 1,68,-1
 293 7 l 1,69,-1
 205 7 l 1,70,-1
 205 0 l 1,71,-1
 197 0 l 1,72,-1
 197 7 l 1,73,-1
 190 7 l 1,74,-1
 190 22 l 1,75,-1
 183 22 l 1,76,-1
 183 29 l 1,77,-1
 175 29 l 1,78,-1
 175 44 l 1,79,-1
 168 44 l 1,80,-1
 168 52 l 1,81,-1
 160 52 l 1,82,-1
 160 66 l 1,83,-1
 153 66 l 1,84,-1
 153 74 l 1,85,-1
 146 74 l 1,86,-1
 146 88 l 1,87,-1
 138 88 l 1,88,-1
 138 103 l 1,89,-1
 131 103 l 1,90,-1
 131 111 l 1,91,-1
 124 111 l 1,92,-1
 124 125 l 1,93,-1
 116 125 l 1,94,-1
 116 147 l 1,95,-1
 109 147 l 1,96,-1
 109 162 l 1,97,-1
 101 162 l 1,98,-1
 101 177 l 1,99,-1
 94 177 l 1,100,-1
 94 206 l 1,101,-1
 87 206 l 1,102,-1
 87 236 l 1,103,-1
 79 236 l 1,104,-1
 79 273 l 1,105,-1
 72 273 l 1,106,-1
 72 427 l 1,107,-1
 79 427 l 1,108,-1
 79 472 l 1,109,-1
 87 472 l 1,110,-1
 87 501 l 1,111,-1
 94 501 l 1,112,-1
 94 523 l 1,113,-1
 101 523 l 1,114,-1
 101 538 l 1,115,-1
 109 538 l 1,116,-1
 109 553 l 1,117,-1
 116 553 l 1,118,-1
 116 567 l 1,119,-1
 124 567 l 1,120,-1
 124 582 l 1,121,-1
 131 582 l 1,122,-1
 131 597 l 1,123,-1
 138 597 l 1,124,-1
 138 604 l 1,125,-1
 146 604 l 1,126,-1
 146 619 l 1,127,-1
 153 619 l 1,128,-1
 153 626 l 1,129,-1
 160 626 l 1,130,-1
 160 641 l 1,131,-1
 168 641 l 1,132,-1
 168 648 l 1,133,-1
 175 648 l 1,134,-1
 175 663 l 1,135,-1
 183 663 l 1,136,-1
 183 671 l 1,137,-1
 190 671 l 1,138,-1
 190 678 l 1,139,-1
 197 678 l 1,140,-1
 197 685 l 1,141,-1
 205 685 l 1,0,-1
EndSplineSet
EndChar

StartChar: parenright
Encoding: 41 41 12
Width: 520
GlyphClass: 1
Flags: W
LayerCount: 2
Fore
SplineSet
72 685 m 1,0,-1
 72 700 l 1,1,-1
 87 700 l 1,2,-1
 87 693 l 1,3,-1
 94 693 l 1,4,-1
 94 700 l 1,5,-1
 168 700 l 1,6,-1
 168 693 l 1,7,-1
 175 693 l 1,8,-1
 175 685 l 1,9,-1
 183 685 l 1,10,-1
 183 678 l 1,11,-1
 190 678 l 1,12,-1
 190 663 l 1,13,-1
 197 663 l 1,14,-1
 197 656 l 1,15,-1
 205 656 l 1,16,-1
 205 648 l 1,17,-1
 212 648 l 1,18,-1
 212 634 l 1,19,-1
 219 634 l 1,20,-1
 219 626 l 1,21,-1
 227 626 l 1,22,-1
 227 612 l 1,23,-1
 234 612 l 1,24,-1
 234 604 l 1,25,-1
 241 604 l 1,26,-1
 241 589 l 1,27,-1
 249 589 l 1,28,-1
 249 575 l 1,29,-1
 256 575 l 1,30,-1
 256 567 l 1,31,-1
 264 567 l 1,32,-1
 264 545 l 1,33,-1
 271 545 l 1,34,-1
 271 531 l 1,35,-1
 278 531 l 1,36,-1
 278 508 l 1,37,-1
 286 508 l 1,38,-1
 286 486 l 1,39,-1
 293 486 l 1,40,-1
 293 449 l 1,41,-1
 300 449 l 1,42,-1
 300 258 l 1,43,-1
 293 258 l 1,44,-1
 293 214 l 1,45,-1
 286 214 l 1,46,-1
 286 184 l 1,47,-1
 278 184 l 1,48,-1
 278 162 l 1,49,-1
 271 162 l 1,50,-1
 271 147 l 1,51,-1
 264 147 l 1,52,-1
 264 125 l 1,53,-1
 256 125 l 1,54,-1
 256 111 l 1,55,-1
 249 111 l 1,56,-1
 249 96 l 1,57,-1
 241 96 l 1,58,-1
 241 81 l 1,59,-1
 234 81 l 1,60,-1
 234 74 l 1,61,-1
 227 74 l 1,62,-1
 227 59 l 1,63,-1
 219 59 l 1,64,-1
 219 52 l 1,65,-1
 212 52 l 1,66,-1
 212 37 l 1,67,-1
 205 37 l 1,68,-1
 205 29 l 1,69,-1
 197 29 l 1,70,-1
 197 22 l 1,71,-1
 190 22 l 1,72,-1
 190 15 l 1,73,-1
 183 15 l 1,74,-1
 183 7 l 1,75,-1
 175 7 l 1,76,-1
 175 0 l 1,77,-1
 124 0 l 1,78,-1
 124 7 l 1,79,-1
 79 7 l 1,80,-1
 79 15 l 1,81,-1
 87 15 l 1,82,-1
 87 22 l 1,83,-1
 94 22 l 1,84,-1
 94 29 l 1,85,-1
 101 29 l 1,86,-1
 101 37 l 1,87,-1
 109 37 l 1,88,-1
 109 52 l 1,89,-1
 116 52 l 1,90,-1
 116 66 l 1,91,-1
 124 66 l 1,92,-1
 124 74 l 1,93,-1
 131 74 l 1,94,-1
 131 88 l 1,95,-1
 138 88 l 1,96,-1
 138 96 l 1,97,-1
 146 96 l 1,98,-1
 146 111 l 1,99,-1
 153 111 l 1,100,-1
 153 125 l 1,101,-1
 160 125 l 1,102,-1
 160 140 l 1,103,-1
 168 140 l 1,104,-1
 168 155 l 1,105,-1
 175 155 l 1,106,-1
 175 177 l 1,107,-1
 183 177 l 1,108,-1
 183 199 l 1,109,-1
 190 199 l 1,110,-1
 190 236 l 1,111,-1
 197 236 l 1,112,-1
 197 442 l 1,113,-1
 190 442 l 1,114,-1
 190 479 l 1,115,-1
 183 479 l 1,116,-1
 183 508 l 1,117,-1
 175 508 l 1,118,-1
 175 531 l 1,119,-1
 168 531 l 1,120,-1
 168 545 l 1,121,-1
 160 545 l 1,122,-1
 160 567 l 1,123,-1
 153 567 l 1,124,-1
 153 582 l 1,125,-1
 146 582 l 1,126,-1
 146 597 l 1,127,-1
 138 597 l 1,128,-1
 138 604 l 1,129,-1
 131 604 l 1,130,-1
 131 619 l 1,131,-1
 124 619 l 1,132,-1
 124 634 l 1,133,-1
 116 634 l 1,134,-1
 116 641 l 1,135,-1
 109 641 l 1,136,-1
 109 648 l 1,137,-1
 101 648 l 1,138,-1
 101 663 l 1,139,-1
 94 663 l 1,140,-1
 94 671 l 1,141,-1
 87 671 l 1,142,-1
 87 678 l 1,143,-1
 79 678 l 1,144,-1
 79 685 l 1,145,-1
 72 685 l 1,0,-1
EndSplineSet
EndChar

StartChar: asterisk
Encoding: 42 42 13
Width: 921
GlyphClass: 1
Flags: W
LayerCount: 2
Fore
SplineSet
416 525 m 1,0,-1
 492 525 l 1,1,-1
 492 446 l 1,2,-1
 550 503 l 1,3,-1
 603.983052086 449.016947914 l 1,4,5
 603.008547009 449.008547009 603.008547009 449.008547009 546 392 c 1,6,-1
 645 392 l 1,7,-1
 645 315 l 1,8,-1
 606 315 l 1,9,-1
 606 322 l 1,10,-1
 543 322 l 1,11,-1
 617 247 l 1,12,-1
 563 192 l 1,13,-1
 536 220 l 1,14,-1
 541 224 l 1,15,-1
 492 273 l 1,16,-1
 492 175 l 1,17,-1
 416 175 l 1,18,-1
 416 261 l 1,19,-1
 356 202 l 1,20,-1
 302 256 l 1,21,-1
 361 315 l 1,22,-1
 295 315 l 1,23,-1
 295 322 l 1,24,-1
 282 322 l 1,25,-1
 282 315 l 1,26,-1
 263 315 l 1,27,-1
 263 392 l 1,28,-1
 364 392 l 1,29,-1
 316 440 l 1,30,-1
 320 445 l 1,31,-1
 311 454 l 1,32,-1
 307 449 l 1,33,-1
 293 463 l 1,34,-1
 347 517 l 2,35,36
 348 517 348 517 416 449 c 1,37,-1
 416 525 l 1,0,-1
EndSplineSet
EndChar

StartChar: plus
Encoding: 43 43 14
Width: 921
GlyphClass: 1
Flags: W
LayerCount: 2
Fore
SplineSet
416 525 m 1,0,-1
 492 525 l 1,1,-1
 492 392 l 1,2,-1
 645 392 l 1,3,-1
 645 315 l 1,4,-1
 606 315 l 1,5,-1
 606 322 l 1,6,-1
 511 322 l 1,7,-1
 511 315 l 1,8,-1
 505 315 l 1,9,-1
 505 322 l 1,10,-1
 498 322 l 1,11,-1
 498 315 l 1,12,-1
 492 315 l 1,13,-1
 492 175 l 1,14,-1
 416 175 l 1,15,-1
 416 315 l 1,16,-1
 295 315 l 1,17,-1
 295 322 l 1,18,-1
 282 322 l 1,19,-1
 282 315 l 1,20,-1
 263 315 l 1,21,-1
 263 392 l 1,22,-1
 416 392 l 1,23,-1
 416 525 l 1,0,-1
EndSplineSet
EndChar

StartChar: comma
Encoding: 44 44 15
Width: 568
GlyphClass: 1
Flags: W
LayerCount: 2
Fore
SplineSet
235 357 m 1,0,-1
 320 357 l 1,1,-1
 320 345 l 1,2,-1
 344 345 l 1,3,-1
 344 333 l 1,4,-1
 356 333 l 1,5,-1
 356 321 l 1,6,-1
 368 321 l 1,7,-1
 368 296 l 1,8,-1
 380 296 l 1,9,-1
 380 152 l 1,10,-1
 368 152 l 1,11,-1
 368 116 l 1,12,-1
 356 116 l 1,13,-1
 356 92 l 1,14,-1
 344 92 l 1,15,-1
 344 80 l 1,16,-1
 332 80 l 1,17,-1
 332 56 l 1,18,-1
 320 56 l 1,19,-1
 320 43 l 1,20,-1
 295 43 l 1,21,-1
 295 31 l 1,22,-1
 283 31 l 1,23,-1
 283 19 l 1,24,-1
 259 19 l 1,25,-1
 259 7 l 1,26,-1
 186 7 l 1,27,-1
 186 19 l 1,28,-1
 210 19 l 1,29,-1
 210 31 l 1,30,-1
 223 31 l 1,31,-1
 223 43 l 1,32,-1
 235 43 l 1,33,-1
 235 56 l 1,34,-1
 247 56 l 1,35,-1
 247 80 l 1,36,-1
 259 80 l 1,37,-1
 259 104 l 1,38,-1
 271 104 l 1,39,-1
 271 164 l 1,40,-1
 259 164 l 1,41,-1
 259 176 l 1,42,-1
 223 176 l 1,43,-1
 223 188 l 1,44,-1
 210 188 l 1,45,-1
 210 200 l 1,46,-1
 198 200 l 1,47,-1
 198 212 l 1,48,-1
 186 212 l 1,49,-1
 186 236 l 1,50,-1
 174 236 l 1,51,-1
 174 308 l 1,52,-1
 186 308 l 1,53,-1
 186 321 l 1,54,-1
 198 321 l 1,55,-1
 198 333 l 1,56,-1
 210 333 l 1,57,-1
 210 345 l 1,58,-1
 235 345 l 1,59,-1
 235 357 l 1,0,-1
EndSplineSet
EndChar

StartChar: hyphen
Encoding: 45 45 16
Width: 1171
GlyphClass: 1
Flags: W
LayerCount: 2
Fore
SplineSet
862 438 m 1,0,-1
 958 438 l 1,1,-1
 958 273 l 1,2,-1
 199 273 l 1,3,-1
 199 438 l 1,4,-1
 779 438 l 1,5,-1
 862 438 l 1,0,-1
EndSplineSet
EndChar

StartChar: period
Encoding: 46 46 17
Width: 901
GlyphClass: 1
Flags: W
LayerCount: 2
Fore
SplineSet
413 207 m 1,0,-1
 475 207 l 1,1,-1
 475 198 l 1,2,-1
 492 198 l 1,3,-1
 492 189 l 1,4,-1
 501 189 l 1,5,-1
 501 181 l 1,6,-1
 510 181 l 1,7,-1
 510 172 l 1,8,-1
 518 172 l 1,9,-1
 518 111 l 1,10,-1
 510 111 l 1,11,-1
 510 93 l 1,12,-1
 501 93 l 1,13,-1
 501 85 l 1,14,-1
 492 85 l 1,15,-1
 492 76 l 1,16,-1
 483 76 l 1,17,-1
 483 67 l 1,18,-1
 405 67 l 1,19,-1
 405 76 l 1,20,-1
 396 76 l 1,21,-1
 396 85 l 1,22,-1
 387 85 l 1,23,-1
 387 93 l 1,24,-1
 378 93 l 1,25,-1
 378 102 l 1,26,-1
 370 102 l 1,27,-1
 370 163 l 1,28,-1
 378 163 l 1,29,-1
 378 181 l 1,30,-1
 387 181 l 1,31,-1
 387 189 l 1,32,-1
 396 189 l 1,33,-1
 396 198 l 1,34,-1
 413 198 l 1,35,-1
 413 207 l 1,0,-1
EndSplineSet
EndChar

StartChar: slash
Encoding: 47 47 18
Width: 520
GlyphClass: 1
Flags: W
LayerCount: 2
Fore
SplineSet
156 40 m 1,0,-1
 156 48 l 1,1,-1
 56 48 l 1,2,-1
 56 40 l 1,3,-1
 48 40 l 1,4,-1
 48 48 l 1,5,-1
 39 48 l 1,6,-1
 39 57 l 1,7,-1
 48 57 l 1,8,-1
 257 509 l 1,9,-1
 248 509 l 1,10,-1
 248 517 l 1,11,-1
 257 517 l 1,12,-1
 369 732 l 1,13,-1
 492 732 l 1,14,-1
 164 40 l 1,15,-1
 156 40 l 1,0,-1
EndSplineSet
EndChar

StartChar: zero
Encoding: 48 48 19
Width: 770
GlyphClass: 1
Flags: W
LayerCount: 2
Fore
SplineSet
345 700 m 1,0,-1
 439 700 l 1,1,-1
 439 691 l 1,2,-1
 481 691 l 1,3,-1
 481 683 l 1,4,-1
 515 683 l 1,5,-1
 515 674 l 1,6,-1
 532 674 l 1,7,-1
 532 666 l 1,8,-1
 550 666 l 1,9,-1
 550 657 l 1,10,-1
 558 657 l 1,11,-1
 558 649 l 1,12,-1
 575 649 l 1,13,-1
 575 640 l 1,14,-1
 584 640 l 1,15,-1
 584 632 l 1,16,-1
 592 632 l 1,17,-1
 592 623 l 1,18,-1
 601 623 l 1,19,-1
 601 615 l 1,20,-1
 609 615 l 1,21,-1
 609 606 l 1,22,-1
 618 606 l 1,23,-1
 618 589 l 1,24,-1
 626 589 l 1,25,-1
 626 580 l 1,26,-1
 635 580 l 1,27,-1
 635 563 l 1,28,-1
 643 563 l 1,29,-1
 643 546 l 1,30,-1
 652 546 l 1,31,-1
 652 529 l 1,32,-1
 660 529 l 1,33,-1
 660 504 l 1,34,-1
 669 504 l 1,35,-1
 669 470 l 1,36,-1
 678 470 l 1,37,-1
 678 427 l 1,38,-1
 686 427 l 1,39,-1
 686 273 l 1,40,-1
 678 273 l 1,41,-1
 678 222 l 1,42,-1
 669 222 l 1,43,-1
 669 188 l 1,44,-1
 660 188 l 1,45,-1
 660 162 l 1,46,-1
 652 162 l 1,47,-1
 652 145 l 1,48,-1
 643 145 l 1,49,-1
 643 128 l 1,50,-1
 635 128 l 1,51,-1
 635 111 l 1,52,-1
 626 111 l 1,53,-1
 626 102 l 1,54,-1
 618 102 l 1,55,-1
 618 85 l 1,56,-1
 609 85 l 1,57,-1
 609 77 l 1,58,-1
 601 77 l 1,59,-1
 601 68 l 1,60,-1
 592 68 l 1,61,-1
 592 60 l 1,62,-1
 584 60 l 1,63,-1
 584 51 l 1,64,-1
 567 51 l 1,65,-1
 567 43 l 1,66,-1
 558 43 l 1,67,-1
 558 34 l 1,68,-1
 541 34 l 1,69,-1
 541 26 l 1,70,-1
 524 26 l 1,71,-1
 524 17 l 1,72,-1
 498 17 l 1,73,-1
 498 9 l 1,74,-1
 464 9 l 1,75,-1
 464 0 l 1,76,-1
 293 0 l 1,77,-1
 293 9 l 1,78,-1
 268 9 l 1,79,-1
 268 17 l 1,80,-1
 242 17 l 1,81,-1
 242 26 l 1,82,-1
 225 26 l 1,83,-1
 225 34 l 1,84,-1
 217 34 l 1,85,-1
 217 43 l 1,86,-1
 200 43 l 1,87,-1
 200 51 l 1,88,-1
 191 51 l 1,89,-1
 191 60 l 1,90,-1
 182 60 l 1,91,-1
 182 68 l 1,92,-1
 174 68 l 1,93,-1
 174 77 l 1,94,-1
 165 77 l 1,95,-1
 165 85 l 1,96,-1
 157 85 l 1,97,-1
 157 102 l 1,98,-1
 148 102 l 1,99,-1
 148 111 l 1,100,-1
 140 111 l 1,101,-1
 140 128 l 1,102,-1
 131 128 l 1,103,-1
 131 145 l 1,104,-1
 123 145 l 1,105,-1
 123 162 l 1,106,-1
 114 162 l 1,107,-1
 114 179 l 1,108,-1
 106 179 l 1,109,-1
 106 213 l 1,110,-1
 97 213 l 1,111,-1
 97 248 l 1,112,-1
 89 248 l 1,113,-1
 89 324 l 1,114,-1
 80 324 l 1,115,-1
 80 367 l 1,116,-1
 89 367 l 1,117,-1
 89 452 l 1,118,-1
 97 452 l 1,119,-1
 97 487 l 1,120,-1
 106 487 l 1,121,-1
 106 512 l 1,122,-1
 114 512 l 1,123,-1
 114 538 l 1,124,-1
 123 538 l 1,125,-1
 123 555 l 1,126,-1
 131 555 l 1,127,-1
 131 572 l 1,128,-1
 140 572 l 1,129,-1
 140 580 l 1,130,-1
 148 580 l 1,131,-1
 148 598 l 1,132,-1
 157 598 l 1,133,-1
 157 606 l 1,134,-1
 165 606 l 1,135,-1
 165 615 l 1,136,-1
 174 615 l 1,137,-1
 174 623 l 1,138,-1
 182 623 l 1,139,-1
 182 632 l 1,140,-1
 191 632 l 1,141,-1
 191 640 l 1,142,-1
 200 640 l 1,143,-1
 200 649 l 1,144,-1
 217 649 l 1,145,-1
 217 657 l 1,146,-1
 225 657 l 1,147,-1
 225 666 l 1,148,-1
 242 666 l 1,149,-1
 242 674 l 1,150,-1
 268 674 l 1,151,-1
 268 683 l 1,152,-1
 293 683 l 1,153,-1
 293 691 l 1,154,-1
 345 691 l 1,155,-1
 345 700 l 1,0,-1
430 94 m 1,156,-1
 430 102 l 1,157,-1
 456 102 l 1,158,-1
 456 111 l 1,159,-1
 473 111 l 1,160,-1
 473 120 l 1,161,-1
 481 120 l 1,162,-1
 481 128 l 1,163,-1
 498 128 l 1,164,-1
 498 137 l 1,165,-1
 507 137 l 1,166,-1
 507 154 l 1,167,-1
 515 154 l 1,168,-1
 515 162 l 1,169,-1
 524 162 l 1,170,-1
 524 179 l 1,171,-1
 532 179 l 1,172,-1
 532 196 l 1,173,-1
 541 196 l 1,174,-1
 541 222 l 1,175,-1
 550 222 l 1,176,-1
 550 265 l 1,177,-1
 558 265 l 1,178,-1
 558 427 l 1,179,-1
 550 427 l 1,180,-1
 550 470 l 1,181,-1
 541 470 l 1,182,-1
 541 504 l 1,183,-1
 532 504 l 1,184,-1
 532 521 l 1,185,-1
 524 521 l 1,186,-1
 524 529 l 1,187,-1
 515 529 l 1,188,-1
 515 546 l 1,189,-1
 507 546 l 1,190,-1
 507 555 l 1,191,-1
 498 555 l 1,192,-1
 498 563 l 1,193,-1
 490 563 l 1,194,-1
 490 572 l 1,195,-1
 473 572 l 1,196,-1
 473 580 l 1,197,-1
 464 580 l 1,198,-1
 464 589 l 1,199,-1
 439 589 l 1,200,-1
 439 598 l 1,201,-1
 336 598 l 1,202,-1
 336 589 l 1,203,-1
 310 589 l 1,204,-1
 310 580 l 1,205,-1
 293 580 l 1,206,-1
 293 572 l 1,207,-1
 285 572 l 1,208,-1
 285 563 l 1,209,-1
 268 563 l 1,210,-1
 268 546 l 1,211,-1
 259 546 l 1,212,-1
 259 538 l 1,213,-1
 251 538 l 1,214,-1
 251 529 l 1,215,-1
 242 529 l 1,216,-1
 242 512 l 1,217,-1
 234 512 l 1,218,-1
 234 487 l 1,219,-1
 225 487 l 1,220,-1
 225 452 l 1,221,-1
 217 452 l 1,222,-1
 217 384 l 1,223,-1
 208 384 l 1,224,-1
 208 299 l 1,225,-1
 217 299 l 1,226,-1
 217 239 l 1,227,-1
 225 239 l 1,228,-1
 225 213 l 1,229,-1
 234 213 l 1,230,-1
 234 188 l 1,231,-1
 242 188 l 1,232,-1
 242 171 l 1,233,-1
 251 171 l 1,234,-1
 251 154 l 1,235,-1
 259 154 l 1,236,-1
 259 145 l 1,237,-1
 268 145 l 1,238,-1
 268 137 l 1,239,-1
 276 137 l 1,240,-1
 276 128 l 1,241,-1
 285 128 l 1,242,-1
 285 120 l 1,243,-1
 293 120 l 1,244,-1
 293 111 l 1,245,-1
 310 111 l 1,246,-1
 310 102 l 1,247,-1
 345 102 l 1,248,-1
 345 94 l 1,249,-1
 430 94 l 1,156,-1
EndSplineSet
EndChar

StartChar: one
Encoding: 49 49 20
Width: 520
GlyphClass: 1
Flags: W
LayerCount: 2
Fore
SplineSet
214 700 m 1,0,-1
 311 700 l 1,1,-1
 311 0 l 1,2,-1
 187 0 l 1,3,-1
 187 567 l 1,4,-1
 169 567 l 1,5,-1
 169 558 l 1,6,-1
 152 558 l 1,7,-1
 152 549 l 1,8,-1
 134 549 l 1,9,-1
 134 541 l 1,10,-1
 116 541 l 1,11,-1
 116 532 l 1,12,-1
 99 532 l 1,13,-1
 99 523 l 1,14,-1
 81 523 l 1,15,-1
 81 514 l 1,16,-1
 72 514 l 1,17,-1
 72 647 l 1,18,-1
 90 647 l 1,19,-1
 90 656 l 1,20,-1
 116 656 l 1,21,-1
 116 665 l 1,22,-1
 143 665 l 1,23,-1
 143 673 l 1,24,-1
 161 673 l 1,25,-1
 161 682 l 1,26,-1
 178 682 l 1,27,-1
 178 691 l 1,28,-1
 214 691 l 1,29,-1
 214 700 l 1,0,-1
EndSplineSet
EndChar

StartChar: two
Encoding: 50 50 21
Width: 633
GlyphClass: 1
Flags: W
LayerCount: 2
Fore
SplineSet
219 700 m 1,0,-1
 331 700 l 1,1,-1
 331 691 l 1,2,-1
 374 691 l 1,3,-1
 374 683 l 1,4,-1
 409 683 l 1,5,-1
 409 674 l 1,6,-1
 426 674 l 1,7,-1
 426 665 l 1,8,-1
 444 665 l 1,9,-1
 444 657 l 1,10,-1
 461 657 l 1,11,-1
 461 648 l 1,12,-1
 470 648 l 1,13,-1
 470 640 l 1,14,-1
 478 640 l 1,15,-1
 478 631 l 1,16,-1
 487 631 l 1,17,-1
 487 622 l 1,18,-1
 495 622 l 1,19,-1
 495 614 l 1,20,-1
 504 614 l 1,21,-1
 504 596 l 1,22,-1
 513 596 l 1,23,-1
 513 588 l 1,24,-1
 521 588 l 1,25,-1
 521 570 l 1,26,-1
 530 570 l 1,27,-1
 530 536 l 1,28,-1
 539 536 l 1,29,-1
 539 449 l 1,30,-1
 530 449 l 1,31,-1
 530 406 l 1,32,-1
 521 406 l 1,33,-1
 521 389 l 1,34,-1
 513 389 l 1,35,-1
 513 372 l 1,36,-1
 504 372 l 1,37,-1
 504 346 l 1,38,-1
 495 346 l 1,39,-1
 495 337 l 1,40,-1
 487 337 l 1,41,-1
 487 320 l 1,42,-1
 478 320 l 1,43,-1
 478 311 l 1,44,-1
 470 311 l 1,45,-1
 470 302 l 1,46,-1
 461 302 l 1,47,-1
 461 285 l 1,48,-1
 452 285 l 1,49,-1
 452 277 l 1,50,-1
 444 277 l 1,51,-1
 444 268 l 1,52,-1
 435 268 l 1,53,-1
 435 259 l 1,54,-1
 426 259 l 1,55,-1
 426 251 l 1,56,-1
 418 251 l 1,57,-1
 418 242 l 1,58,-1
 409 242 l 1,59,-1
 409 233 l 1,60,-1
 400 233 l 1,61,-1
 400 225 l 1,62,-1
 392 225 l 1,63,-1
 392 216 l 1,64,-1
 383 216 l 1,65,-1
 383 207 l 1,66,-1
 374 207 l 1,67,-1
 374 199 l 1,68,-1
 357 199 l 1,69,-1
 357 190 l 1,70,-1
 349 190 l 1,71,-1
 349 181 l 1,72,-1
 340 181 l 1,73,-1
 340 173 l 1,74,-1
 331 173 l 1,75,-1
 331 164 l 1,76,-1
 314 164 l 1,77,-1
 314 156 l 1,78,-1
 305 156 l 1,79,-1
 305 147 l 1,80,-1
 288 147 l 1,81,-1
 288 138 l 1,82,-1
 279 138 l 1,83,-1
 279 130 l 1,84,-1
 271 130 l 1,85,-1
 271 121 l 1,86,-1
 253 121 l 1,87,-1
 253 112 l 1,88,-1
 245 112 l 1,89,-1
 245 104 l 1,90,-1
 547 104 l 1,91,-1
 547 0 l 1,92,-1
 81 0 l 1,93,-1
 81 9 l 1,94,-1
 72 9 l 1,95,-1
 72 17 l 1,96,-1
 81 17 l 1,97,-1
 81 86 l 1,98,-1
 72 86 l 1,99,-1
 72 95 l 1,100,-1
 81 95 l 1,101,-1
 81 104 l 1,102,-1
 89 104 l 1,103,-1
 89 112 l 1,104,-1
 98 112 l 1,105,-1
 98 121 l 1,106,-1
 107 121 l 1,107,-1
 107 130 l 1,108,-1
 124 130 l 1,109,-1
 124 138 l 1,110,-1
 132 138 l 1,111,-1
 132 147 l 1,112,-1
 141 147 l 1,113,-1
 141 156 l 1,114,-1
 150 156 l 1,115,-1
 150 164 l 1,116,-1
 158 164 l 1,117,-1
 158 173 l 1,118,-1
 176 173 l 1,119,-1
 176 181 l 1,120,-1
 184 181 l 1,121,-1
 184 190 l 1,122,-1
 193 190 l 1,123,-1
 193 199 l 1,124,-1
 202 199 l 1,125,-1
 202 207 l 1,126,-1
 210 207 l 1,127,-1
 210 216 l 1,128,-1
 219 216 l 1,129,-1
 219 225 l 1,130,-1
 236 225 l 1,131,-1
 236 233 l 1,132,-1
 245 233 l 1,133,-1
 245 242 l 1,134,-1
 253 242 l 1,135,-1
 253 251 l 1,136,-1
 262 251 l 1,137,-1
 262 259 l 1,138,-1
 271 259 l 1,139,-1
 271 268 l 1,140,-1
 279 268 l 1,141,-1
 279 277 l 1,142,-1
 288 277 l 1,143,-1
 288 285 l 1,144,-1
 297 285 l 1,145,-1
 297 294 l 1,146,-1
 305 294 l 1,147,-1
 305 302 l 1,148,-1
 314 302 l 1,149,-1
 314 311 l 1,150,-1
 323 311 l 1,151,-1
 323 320 l 1,152,-1
 331 320 l 1,153,-1
 331 328 l 1,154,-1
 340 328 l 1,155,-1
 340 346 l 1,156,-1
 349 346 l 1,157,-1
 349 354 l 1,158,-1
 357 354 l 1,159,-1
 357 372 l 1,160,-1
 366 372 l 1,161,-1
 366 380 l 1,162,-1
 374 380 l 1,163,-1
 374 398 l 1,164,-1
 383 398 l 1,165,-1
 383 415 l 1,166,-1
 392 415 l 1,167,-1
 392 441 l 1,168,-1
 400 441 l 1,169,-1
 400 519 l 1,170,-1
 392 519 l 1,171,-1
 392 536 l 1,172,-1
 383 536 l 1,173,-1
 383 553 l 1,174,-1
 374 553 l 1,175,-1
 374 562 l 1,176,-1
 366 562 l 1,177,-1
 366 570 l 1,178,-1
 349 570 l 1,179,-1
 349 579 l 1,180,-1
 323 579 l 1,181,-1
 323 588 l 1,182,-1
 262 588 l 1,183,-1
 262 596 l 1,184,-1
 228 596 l 1,185,-1
 228 588 l 1,186,-1
 167 588 l 1,187,-1
 167 579 l 1,188,-1
 141 579 l 1,189,-1
 141 570 l 1,190,-1
 115 570 l 1,191,-1
 115 562 l 1,192,-1
 98 562 l 1,193,-1
 98 553 l 1,194,-1
 81 553 l 1,195,-1
 81 665 l 1,196,-1
 98 665 l 1,197,-1
 98 674 l 1,198,-1
 132 674 l 1,199,-1
 132 683 l 1,200,-1
 167 683 l 1,201,-1
 167 691 l 1,202,-1
 219 691 l 1,203,-1
 219 700 l 1,0,-1
EndSplineSet
EndChar

StartChar: three
Encoding: 51 51 22
Width: 618
GlyphClass: 1
Flags: W
LayerCount: 2
Fore
SplineSet
72 137 m 1,0,-1
 81 137 l 1,1,-1
 81 128 l 1,2,-1
 98 128 l 1,3,-1
 98 120 l 1,4,-1
 123 120 l 1,5,-1
 123 111 l 1,6,-1
 157 111 l 1,7,-1
 157 102 l 1,8,-1
 209 102 l 1,9,-1
 209 94 l 1,10,-1
 268 94 l 1,11,-1
 268 102 l 1,12,-1
 328 102 l 1,13,-1
 328 111 l 1,14,-1
 354 111 l 1,15,-1
 354 120 l 1,16,-1
 371 120 l 1,17,-1
 371 128 l 1,18,-1
 379 128 l 1,19,-1
 379 137 l 1,20,-1
 388 137 l 1,21,-1
 388 145 l 1,22,-1
 396 145 l 1,23,-1
 396 171 l 1,24,-1
 405 171 l 1,25,-1
 405 239 l 1,26,-1
 396 239 l 1,27,-1
 396 256 l 1,28,-1
 388 256 l 1,29,-1
 388 265 l 1,30,-1
 379 265 l 1,31,-1
 379 273 l 1,32,-1
 371 273 l 1,33,-1
 371 282 l 1,34,-1
 362 282 l 1,35,-1
 362 290 l 1,36,-1
 345 290 l 1,37,-1
 345 299 l 1,38,-1
 311 299 l 1,39,-1
 311 307 l 1,40,-1
 174 307 l 1,41,-1
 174 401 l 1,42,-1
 268 401 l 1,43,-1
 268 410 l 1,44,-1
 311 410 l 1,45,-1
 311 418 l 1,46,-1
 337 418 l 1,47,-1
 337 427 l 1,48,-1
 354 427 l 1,49,-1
 354 435 l 1,50,-1
 362 435 l 1,51,-1
 362 444 l 1,52,-1
 371 444 l 1,53,-1
 371 452 l 1,54,-1
 379 452 l 1,55,-1
 379 470 l 1,56,-1
 388 470 l 1,57,-1
 388 538 l 1,58,-1
 379 538 l 1,59,-1
 379 555 l 1,60,-1
 371 555 l 1,61,-1
 371 563 l 1,62,-1
 362 563 l 1,63,-1
 362 572 l 1,64,-1
 354 572 l 1,65,-1
 354 580 l 1,66,-1
 337 580 l 1,67,-1
 337 589 l 1,68,-1
 302 589 l 1,69,-1
 302 598 l 1,70,-1
 200 598 l 1,71,-1
 200 589 l 1,72,-1
 157 589 l 1,73,-1
 157 580 l 1,74,-1
 132 580 l 1,75,-1
 132 572 l 1,76,-1
 115 572 l 1,77,-1
 115 563 l 1,78,-1
 98 563 l 1,79,-1
 98 555 l 1,80,-1
 81 555 l 1,81,-1
 81 666 l 1,82,-1
 98 666 l 1,83,-1
 98 674 l 1,84,-1
 123 674 l 1,85,-1
 123 683 l 1,86,-1
 157 683 l 1,87,-1
 157 691 l 1,88,-1
 209 691 l 1,89,-1
 209 700 l 1,90,-1
 320 700 l 1,91,-1
 320 691 l 1,92,-1
 362 691 l 1,93,-1
 362 683 l 1,94,-1
 396 683 l 1,95,-1
 396 674 l 1,96,-1
 413 674 l 1,97,-1
 413 666 l 1,98,-1
 431 666 l 1,99,-1
 431 657 l 1,100,-1
 448 657 l 1,101,-1
 448 649 l 1,102,-1
 456 649 l 1,103,-1
 456 640 l 1,104,-1
 465 640 l 1,105,-1
 465 632 l 1,106,-1
 473 632 l 1,107,-1
 473 623 l 1,108,-1
 482 623 l 1,109,-1
 482 615 l 1,110,-1
 490 615 l 1,111,-1
 490 606 l 1,112,-1
 499 606 l 1,113,-1
 499 589 l 1,114,-1
 507 589 l 1,115,-1
 507 563 l 1,116,-1
 516 563 l 1,117,-1
 516 470 l 1,118,-1
 507 470 l 1,119,-1
 507 444 l 1,120,-1
 499 444 l 1,121,-1
 499 427 l 1,122,-1
 490 427 l 1,123,-1
 490 418 l 1,124,-1
 482 418 l 1,125,-1
 482 410 l 1,126,-1
 473 410 l 1,127,-1
 473 401 l 1,128,-1
 465 401 l 1,129,-1
 465 393 l 1,130,-1
 456 393 l 1,131,-1
 456 384 l 1,132,-1
 448 384 l 1,133,-1
 448 376 l 1,134,-1
 431 376 l 1,135,-1
 431 367 l 1,136,-1
 413 367 l 1,137,-1
 413 350 l 1,138,-1
 439 350 l 1,139,-1
 439 341 l 1,140,-1
 456 341 l 1,141,-1
 456 333 l 1,142,-1
 465 333 l 1,143,-1
 465 324 l 1,144,-1
 482 324 l 1,145,-1
 482 316 l 1,146,-1
 490 316 l 1,147,-1
 490 307 l 1,148,-1
 499 307 l 1,149,-1
 499 299 l 1,150,-1
 507 299 l 1,151,-1
 507 282 l 1,152,-1
 516 282 l 1,153,-1
 516 265 l 1,154,-1
 524 265 l 1,155,-1
 524 239 l 1,156,-1
 533 239 l 1,157,-1
 533 154 l 1,158,-1
 524 154 l 1,159,-1
 524 128 l 1,160,-1
 516 128 l 1,161,-1
 516 111 l 1,162,-1
 507 111 l 1,163,-1
 507 94 l 1,164,-1
 499 94 l 1,165,-1
 499 85 l 1,166,-1
 490 85 l 1,167,-1
 490 68 l 1,168,-1
 482 68 l 1,169,-1
 482 60 l 1,170,-1
 465 60 l 1,171,-1
 465 51 l 1,172,-1
 456 51 l 1,173,-1
 456 43 l 1,174,-1
 448 43 l 1,175,-1
 448 34 l 1,176,-1
 431 34 l 1,177,-1
 431 26 l 1,178,-1
 405 26 l 1,179,-1
 405 17 l 1,180,-1
 388 17 l 1,181,-1
 388 9 l 1,182,-1
 345 9 l 1,183,-1
 345 0 l 1,184,-1
 166 0 l 1,185,-1
 166 9 l 1,186,-1
 115 9 l 1,187,-1
 115 17 l 1,188,-1
 81 17 l 1,189,-1
 81 26 l 1,190,-1
 72 26 l 1,191,-1
 72 137 l 1,0,-1
EndSplineSet
EndChar

StartChar: four
Encoding: 52 52 23
Width: 698
GlyphClass: 1
Flags: W
LayerCount: 2
Fore
SplineSet
356 700 m 1,0,-1
 533 700 l 1,1,-1
 533 328 l 1,2,-1
 542 328 l 1,3,-1
 542 248 l 1,4,-1
 613 248 l 1,5,-1
 613 151 l 1,6,-1
 542 151 l 1,7,-1
 542 142 l 1,8,-1
 533 142 l 1,9,-1
 533 124 l 1,10,-1
 542 124 l 1,11,-1
 542 0 l 1,12,-1
 409 0 l 1,13,-1
 409 151 l 1,14,-1
 90 151 l 1,15,-1
 90 142 l 1,16,-1
 81 142 l 1,17,-1
 81 151 l 1,18,-1
 72 151 l 1,19,-1
 72 159 l 1,20,-1
 81 159 l 1,21,-1
 81 257 l 1,22,-1
 90 257 l 1,23,-1
 90 266 l 1,24,-1
 99 266 l 1,25,-1
 99 284 l 1,26,-1
 107 284 l 1,27,-1
 107 301 l 1,28,-1
 116 301 l 1,29,-1
 116 310 l 1,30,-1
 125 310 l 1,31,-1
 125 328 l 1,32,-1
 134 328 l 1,33,-1
 134 346 l 1,34,-1
 143 346 l 1,35,-1
 143 354 l 1,36,-1
 152 354 l 1,37,-1
 152 372 l 1,38,-1
 161 372 l 1,39,-1
 161 381 l 1,40,-1
 169 381 l 1,41,-1
 169 399 l 1,42,-1
 178 399 l 1,43,-1
 178 416 l 1,44,-1
 187 416 l 1,45,-1
 187 425 l 1,46,-1
 196 425 l 1,47,-1
 196 443 l 1,48,-1
 205 443 l 1,49,-1
 205 461 l 1,50,-1
 214 461 l 1,51,-1
 214 470 l 1,52,-1
 223 470 l 1,53,-1
 223 487 l 1,54,-1
 231 487 l 1,55,-1
 231 505 l 1,56,-1
 240 505 l 1,57,-1
 240 514 l 1,58,-1
 249 514 l 1,59,-1
 249 532 l 1,60,-1
 258 532 l 1,61,-1
 258 549 l 1,62,-1
 267 549 l 1,63,-1
 267 558 l 1,64,-1
 276 558 l 1,65,-1
 276 576 l 1,66,-1
 285 576 l 1,67,-1
 285 585 l 1,68,-1
 294 585 l 1,69,-1
 294 603 l 1,70,-1
 302 603 l 1,71,-1
 302 620 l 1,72,-1
 311 620 l 1,73,-1
 311 629 l 1,74,-1
 320 629 l 1,75,-1
 320 647 l 1,76,-1
 329 647 l 1,77,-1
 329 665 l 1,78,-1
 338 665 l 1,79,-1
 338 673 l 1,80,-1
 347 673 l 1,81,-1
 347 691 l 1,82,-1
 356 691 l 1,83,-1
 356 700 l 1,0,-1
409 248 m 1,84,-1
 409 585 l 1,85,-1
 400 585 l 1,86,-1
 400 576 l 1,87,-1
 391 576 l 1,88,-1
 391 558 l 1,89,-1
 382 558 l 1,90,-1
 382 549 l 1,91,-1
 373 549 l 1,92,-1
 373 532 l 1,93,-1
 364 532 l 1,94,-1
 364 523 l 1,95,-1
 356 523 l 1,96,-1
 356 505 l 1,97,-1
 347 505 l 1,98,-1
 347 487 l 1,99,-1
 338 487 l 1,100,-1
 338 478 l 1,101,-1
 329 478 l 1,102,-1
 329 461 l 1,103,-1
 320 461 l 1,104,-1
 320 452 l 1,105,-1
 311 452 l 1,106,-1
 311 434 l 1,107,-1
 302 434 l 1,108,-1
 302 416 l 1,109,-1
 294 416 l 1,110,-1
 294 408 l 1,111,-1
 285 408 l 1,112,-1
 285 390 l 1,113,-1
 276 390 l 1,114,-1
 276 381 l 1,115,-1
 267 381 l 1,116,-1
 267 363 l 1,117,-1
 258 363 l 1,118,-1
 258 354 l 1,119,-1
 249 354 l 1,120,-1
 249 337 l 1,121,-1
 240 337 l 1,122,-1
 240 328 l 1,123,-1
 231 328 l 1,124,-1
 231 310 l 1,125,-1
 223 310 l 1,126,-1
 223 292 l 1,127,-1
 214 292 l 1,128,-1
 214 284 l 1,129,-1
 205 284 l 1,130,-1
 205 266 l 1,131,-1
 196 266 l 1,132,-1
 196 257 l 1,133,-1
 187 257 l 1,134,-1
 187 248 l 1,135,-1
 409 248 l 1,84,-1
EndSplineSet
EndChar

StartChar: five
Encoding: 53 53 24
Width: 633
GlyphClass: 1
Flags: W
LayerCount: 2
Fore
SplineSet
72 138 m 1,0,-1
 81 138 l 1,1,-1
 81 130 l 1,2,-1
 107 130 l 1,3,-1
 107 121 l 1,4,-1
 124 121 l 1,5,-1
 124 112 l 1,6,-1
 158 112 l 1,7,-1
 158 104 l 1,8,-1
 219 104 l 1,9,-1
 219 95 l 1,10,-1
 279 95 l 1,11,-1
 279 104 l 1,12,-1
 340 104 l 1,13,-1
 340 112 l 1,14,-1
 357 112 l 1,15,-1
 357 121 l 1,16,-1
 374 121 l 1,17,-1
 374 130 l 1,18,-1
 383 130 l 1,19,-1
 383 138 l 1,20,-1
 392 138 l 1,21,-1
 392 147 l 1,22,-1
 400 147 l 1,23,-1
 400 156 l 1,24,-1
 409 156 l 1,25,-1
 409 181 l 1,26,-1
 418 181 l 1,27,-1
 418 251 l 1,28,-1
 409 251 l 1,29,-1
 409 268 l 1,30,-1
 400 268 l 1,31,-1
 400 285 l 1,32,-1
 392 285 l 1,33,-1
 392 294 l 1,34,-1
 383 294 l 1,35,-1
 383 302 l 1,36,-1
 374 302 l 1,37,-1
 374 311 l 1,38,-1
 357 311 l 1,39,-1
 357 320 l 1,40,-1
 323 320 l 1,41,-1
 323 328 l 1,42,-1
 124 328 l 1,43,-1
 124 320 l 1,44,-1
 89 320 l 1,45,-1
 89 432 l 1,46,-1
 98 432 l 1,47,-1
 98 657 l 1,48,-1
 107 657 l 1,49,-1
 107 700 l 1,50,-1
 115 700 l 1,51,-1
 115 691 l 1,52,-1
 158 691 l 1,53,-1
 158 700 l 1,54,-1
 513 700 l 1,55,-1
 513 596 l 1,56,-1
 228 596 l 1,57,-1
 228 588 l 1,58,-1
 219 588 l 1,59,-1
 219 510 l 1,60,-1
 210 510 l 1,61,-1
 210 432 l 1,62,-1
 357 432 l 1,63,-1
 357 423 l 1,64,-1
 400 423 l 1,65,-1
 400 415 l 1,66,-1
 426 415 l 1,67,-1
 426 406 l 1,68,-1
 444 406 l 1,69,-1
 444 398 l 1,70,-1
 461 398 l 1,71,-1
 461 389 l 1,72,-1
 478 389 l 1,73,-1
 478 380 l 1,74,-1
 487 380 l 1,75,-1
 487 372 l 1,76,-1
 495 372 l 1,77,-1
 495 363 l 1,78,-1
 504 363 l 1,79,-1
 504 354 l 1,80,-1
 513 354 l 1,81,-1
 513 346 l 1,82,-1
 521 346 l 1,83,-1
 521 328 l 1,84,-1
 530 328 l 1,85,-1
 530 311 l 1,86,-1
 539 311 l 1,87,-1
 539 285 l 1,88,-1
 547 285 l 1,89,-1
 547 156 l 1,90,-1
 539 156 l 1,91,-1
 539 130 l 1,92,-1
 530 130 l 1,93,-1
 530 112 l 1,94,-1
 521 112 l 1,95,-1
 521 95 l 1,96,-1
 513 95 l 1,97,-1
 513 86 l 1,98,-1
 504 86 l 1,99,-1
 504 78 l 1,100,-1
 495 78 l 1,101,-1
 495 69 l 1,102,-1
 487 69 l 1,103,-1
 487 60 l 1,104,-1
 478 60 l 1,105,-1
 478 52 l 1,106,-1
 470 52 l 1,107,-1
 470 43 l 1,108,-1
 452 43 l 1,109,-1
 452 35 l 1,110,-1
 444 35 l 1,111,-1
 444 26 l 1,112,-1
 418 26 l 1,113,-1
 418 17 l 1,114,-1
 392 17 l 1,115,-1
 392 9 l 1,116,-1
 349 9 l 1,117,-1
 349 0 l 1,118,-1
 158 0 l 1,119,-1
 158 9 l 1,120,-1
 115 9 l 1,121,-1
 115 17 l 1,122,-1
 81 17 l 1,123,-1
 81 26 l 1,124,-1
 72 26 l 1,125,-1
 72 138 l 1,0,-1
EndSplineSet
EndChar

StartChar: six
Encoding: 54 54 25
Width: 695
GlyphClass: 1
Flags: W
LayerCount: 2
Fore
SplineSet
345 444 m 1,0,-1
 448 444 l 1,1,-1
 448 435 l 1,2,-1
 482 435 l 1,3,-1
 482 427 l 1,4,-1
 499 427 l 1,5,-1
 499 418 l 1,6,-1
 516 418 l 1,7,-1
 516 410 l 1,8,-1
 533 410 l 1,9,-1
 533 401 l 1,10,-1
 542 401 l 1,11,-1
 542 393 l 1,12,-1
 550 393 l 1,13,-1
 550 384 l 1,14,-1
 559 384 l 1,15,-1
 559 376 l 1,16,-1
 567 376 l 1,17,-1
 567 367 l 1,18,-1
 576 367 l 1,19,-1
 576 359 l 1,20,-1
 584 359 l 1,21,-1
 584 341 l 1,22,-1
 593 341 l 1,23,-1
 593 316 l 1,24,-1
 601 316 l 1,25,-1
 601 290 l 1,26,-1
 610 290 l 1,27,-1
 610 154 l 1,28,-1
 601 154 l 1,29,-1
 601 128 l 1,30,-1
 593 128 l 1,31,-1
 593 111 l 1,32,-1
 584 111 l 1,33,-1
 584 94 l 1,34,-1
 576 94 l 1,35,-1
 576 85 l 1,36,-1
 567 85 l 1,37,-1
 567 77 l 1,38,-1
 559 77 l 1,39,-1
 559 68 l 1,40,-1
 550 68 l 1,41,-1
 550 60 l 1,42,-1
 542 60 l 1,43,-1
 542 51 l 1,44,-1
 533 51 l 1,45,-1
 533 43 l 1,46,-1
 524 43 l 1,47,-1
 524 34 l 1,48,-1
 507 34 l 1,49,-1
 507 26 l 1,50,-1
 490 26 l 1,51,-1
 490 17 l 1,52,-1
 465 17 l 1,53,-1
 465 9 l 1,54,-1
 431 9 l 1,55,-1
 431 0 l 1,56,-1
 277 0 l 1,57,-1
 277 9 l 1,58,-1
 243 9 l 1,59,-1
 243 17 l 1,60,-1
 226 17 l 1,61,-1
 226 26 l 1,62,-1
 209 26 l 1,63,-1
 209 34 l 1,64,-1
 192 34 l 1,65,-1
 192 43 l 1,66,-1
 183 43 l 1,67,-1
 183 51 l 1,68,-1
 174 51 l 1,69,-1
 174 60 l 1,70,-1
 166 60 l 1,71,-1
 166 68 l 1,72,-1
 157 68 l 1,73,-1
 157 77 l 1,74,-1
 149 77 l 1,75,-1
 149 85 l 1,76,-1
 140 85 l 1,77,-1
 140 94 l 1,78,-1
 132 94 l 1,79,-1
 132 111 l 1,80,-1
 123 111 l 1,81,-1
 123 128 l 1,82,-1
 115 128 l 1,83,-1
 115 145 l 1,84,-1
 106 145 l 1,85,-1
 106 162 l 1,86,-1
 98 162 l 1,87,-1
 98 188 l 1,88,-1
 89 188 l 1,89,-1
 89 230 l 1,90,-1
 81 230 l 1,91,-1
 81 299 l 1,92,-1
 72 299 l 1,93,-1
 72 350 l 1,94,-1
 81 350 l 1,95,-1
 81 427 l 1,96,-1
 89 427 l 1,97,-1
 89 470 l 1,98,-1
 98 470 l 1,99,-1
 98 504 l 1,100,-1
 106 504 l 1,101,-1
 106 521 l 1,102,-1
 115 521 l 1,103,-1
 115 546 l 1,104,-1
 123 546 l 1,105,-1
 123 563 l 1,106,-1
 132 563 l 1,107,-1
 132 572 l 1,108,-1
 140 572 l 1,109,-1
 140 589 l 1,110,-1
 149 589 l 1,111,-1
 149 598 l 1,112,-1
 157 598 l 1,113,-1
 157 615 l 1,114,-1
 166 615 l 1,115,-1
 166 623 l 1,116,-1
 174 623 l 1,117,-1
 174 632 l 1,118,-1
 183 632 l 1,119,-1
 183 640 l 1,120,-1
 200 640 l 1,121,-1
 200 649 l 1,122,-1
 209 649 l 1,123,-1
 209 657 l 1,124,-1
 226 657 l 1,125,-1
 226 666 l 1,126,-1
 243 666 l 1,127,-1
 243 674 l 1,128,-1
 260 674 l 1,129,-1
 260 683 l 1,130,-1
 285 683 l 1,131,-1
 285 691 l 1,132,-1
 337 691 l 1,133,-1
 337 700 l 1,134,-1
 482 700 l 1,135,-1
 482 691 l 1,136,-1
 524 691 l 1,137,-1
 524 683 l 1,138,-1
 559 683 l 1,139,-1
 559 572 l 1,140,-1
 542 572 l 1,141,-1
 542 580 l 1,142,-1
 516 580 l 1,143,-1
 516 589 l 1,144,-1
 482 589 l 1,145,-1
 482 598 l 1,146,-1
 345 598 l 1,147,-1
 345 589 l 1,148,-1
 320 589 l 1,149,-1
 320 580 l 1,150,-1
 302 580 l 1,151,-1
 302 572 l 1,152,-1
 285 572 l 1,153,-1
 285 563 l 1,154,-1
 277 563 l 1,155,-1
 277 555 l 1,156,-1
 268 555 l 1,157,-1
 268 546 l 1,158,-1
 260 546 l 1,159,-1
 260 538 l 1,160,-1
 251 538 l 1,161,-1
 251 521 l 1,162,-1
 243 521 l 1,163,-1
 243 512 l 1,164,-1
 234 512 l 1,165,-1
 234 495 l 1,166,-1
 226 495 l 1,167,-1
 226 470 l 1,168,-1
 217 470 l 1,169,-1
 217 435 l 1,170,-1
 209 435 l 1,171,-1
 209 384 l 1,172,-1
 217 384 l 1,173,-1
 217 393 l 1,174,-1
 234 393 l 1,175,-1
 234 401 l 1,176,-1
 251 401 l 1,177,-1
 251 410 l 1,178,-1
 268 410 l 1,179,-1
 268 418 l 1,180,-1
 285 418 l 1,181,-1
 285 427 l 1,182,-1
 311 427 l 1,183,-1
 311 435 l 1,184,-1
 345 435 l 1,185,-1
 345 444 l 1,0,-1
388 94 m 1,186,-1
 388 102 l 1,187,-1
 422 102 l 1,188,-1
 422 111 l 1,189,-1
 439 111 l 1,190,-1
 439 120 l 1,191,-1
 448 120 l 1,192,-1
 448 128 l 1,193,-1
 456 128 l 1,194,-1
 456 137 l 1,195,-1
 465 137 l 1,196,-1
 465 154 l 1,197,-1
 473 154 l 1,198,-1
 473 171 l 1,199,-1
 482 171 l 1,200,-1
 482 273 l 1,201,-1
 473 273 l 1,202,-1
 473 290 l 1,203,-1
 465 290 l 1,204,-1
 465 307 l 1,205,-1
 456 307 l 1,206,-1
 456 316 l 1,207,-1
 448 316 l 1,208,-1
 448 324 l 1,209,-1
 431 324 l 1,210,-1
 431 333 l 1,211,-1
 413 333 l 1,212,-1
 413 341 l 1,213,-1
 388 341 l 1,214,-1
 388 350 l 1,215,-1
 294 350 l 1,216,-1
 294 341 l 1,217,-1
 268 341 l 1,218,-1
 268 333 l 1,219,-1
 243 333 l 1,220,-1
 243 324 l 1,221,-1
 226 324 l 1,222,-1
 226 316 l 1,223,-1
 209 316 l 1,224,-1
 209 205 l 1,225,-1
 217 205 l 1,226,-1
 217 179 l 1,227,-1
 226 179 l 1,228,-1
 226 162 l 1,229,-1
 234 162 l 1,230,-1
 234 145 l 1,231,-1
 243 145 l 1,232,-1
 243 137 l 1,233,-1
 251 137 l 1,234,-1
 251 128 l 1,235,-1
 260 128 l 1,236,-1
 260 120 l 1,237,-1
 268 120 l 1,238,-1
 268 111 l 1,239,-1
 285 111 l 1,240,-1
 285 102 l 1,241,-1
 311 102 l 1,242,-1
 311 94 l 1,243,-1
 388 94 l 1,186,-1
EndSplineSet
EndChar

StartChar: seven
Encoding: 55 55 26
Width: 674
GlyphClass: 1
Flags: W
LayerCount: 2
Fore
SplineSet
571 700 m 1,0,-1
 588 700 l 1,1,-1
 588 612 l 1,2,-1
 580 612 l 1,3,-1
 580 604 l 1,4,-1
 571 604 l 1,5,-1
 571 578 l 1,6,-1
 562 578 l 1,7,-1
 562 560 l 1,8,-1
 553 560 l 1,9,-1
 553 542 l 1,10,-1
 544 542 l 1,11,-1
 544 525 l 1,12,-1
 536 525 l 1,13,-1
 536 508 l 1,14,-1
 527 508 l 1,15,-1
 527 490 l 1,16,-1
 518 490 l 1,17,-1
 518 472 l 1,18,-1
 510 472 l 1,19,-1
 510 446 l 1,20,-1
 501 446 l 1,21,-1
 501 429 l 1,22,-1
 492 429 l 1,23,-1
 492 411 l 1,24,-1
 483 411 l 1,25,-1
 483 394 l 1,26,-1
 474 394 l 1,27,-1
 474 376 l 1,28,-1
 466 376 l 1,29,-1
 466 359 l 1,30,-1
 457 359 l 1,31,-1
 457 341 l 1,32,-1
 448 341 l 1,33,-1
 448 315 l 1,34,-1
 440 315 l 1,35,-1
 440 298 l 1,36,-1
 431 298 l 1,37,-1
 431 280 l 1,38,-1
 422 280 l 1,39,-1
 422 262 l 1,40,-1
 413 262 l 1,41,-1
 413 245 l 1,42,-1
 404 245 l 1,43,-1
 404 228 l 1,44,-1
 396 228 l 1,45,-1
 396 210 l 1,46,-1
 387 210 l 1,47,-1
 387 192 l 1,48,-1
 378 192 l 1,49,-1
 378 166 l 1,50,-1
 370 166 l 1,51,-1
 370 149 l 1,52,-1
 361 149 l 1,53,-1
 361 131 l 1,54,-1
 352 131 l 1,55,-1
 352 114 l 1,56,-1
 343 114 l 1,57,-1
 343 96 l 1,58,-1
 334 96 l 1,59,-1
 334 79 l 1,60,-1
 326 79 l 1,61,-1
 326 61 l 1,62,-1
 317 61 l 1,63,-1
 317 35 l 1,64,-1
 308 35 l 1,65,-1
 308 18 l 1,66,-1
 300 18 l 1,67,-1
 300 9 l 1,68,-1
 291 9 l 1,69,-1
 291 0 l 1,70,-1
 160 0 l 1,71,-1
 160 18 l 1,72,-1
 168 18 l 1,73,-1
 168 35 l 1,74,-1
 177 35 l 1,75,-1
 177 61 l 1,76,-1
 186 61 l 1,77,-1
 186 79 l 1,78,-1
 194 79 l 1,79,-1
 194 96 l 1,80,-1
 203 96 l 1,81,-1
 203 114 l 1,82,-1
 212 114 l 1,83,-1
 212 131 l 1,84,-1
 221 131 l 1,85,-1
 221 158 l 1,86,-1
 230 158 l 1,87,-1
 230 175 l 1,88,-1
 238 175 l 1,89,-1
 238 192 l 1,90,-1
 247 192 l 1,91,-1
 247 210 l 1,92,-1
 256 210 l 1,93,-1
 256 228 l 1,94,-1
 264 228 l 1,95,-1
 264 245 l 1,96,-1
 273 245 l 1,97,-1
 273 262 l 1,98,-1
 282 262 l 1,99,-1
 282 280 l 1,100,-1
 291 280 l 1,101,-1
 291 306 l 1,102,-1
 300 306 l 1,103,-1
 300 324 l 1,104,-1
 308 324 l 1,105,-1
 308 341 l 1,106,-1
 317 341 l 1,107,-1
 317 359 l 1,108,-1
 326 359 l 1,109,-1
 326 376 l 1,110,-1
 334 376 l 1,111,-1
 334 394 l 1,112,-1
 343 394 l 1,113,-1
 343 411 l 1,114,-1
 352 411 l 1,115,-1
 352 438 l 1,116,-1
 361 438 l 1,117,-1
 361 455 l 1,118,-1
 370 455 l 1,119,-1
 370 472 l 1,120,-1
 378 472 l 1,121,-1
 378 490 l 1,122,-1
 387 490 l 1,123,-1
 387 508 l 1,124,-1
 396 508 l 1,125,-1
 396 525 l 1,126,-1
 404 525 l 1,127,-1
 404 542 l 1,128,-1
 413 542 l 1,129,-1
 413 560 l 1,130,-1
 422 560 l 1,131,-1
 422 586 l 1,132,-1
 431 586 l 1,133,-1
 431 595 l 1,134,-1
 90 595 l 1,135,-1
 90 586 l 1,136,-1
 81 586 l 1,137,-1
 81 595 l 1,138,-1
 72 595 l 1,139,-1
 72 665 l 1,140,-1
 81 665 l 1,141,-1
 81 674 l 1,142,-1
 72 674 l 1,143,-1
 72 691 l 1,144,-1
 81 691 l 1,145,-1
 81 700 l 1,146,-1
 562 700 l 1,147,-1
 562 691 l 1,148,-1
 571 691 l 1,149,-1
 571 700 l 1,0,-1
EndSplineSet
EndChar

StartChar: eight
Encoding: 56 56 27
Width: 704
GlyphClass: 1
Flags: W
LayerCount: 2
Fore
SplineSet
285 700 m 1,0,-1
 396 700 l 1,1,-1
 396 691 l 1,2,-1
 448 691 l 1,3,-1
 448 683 l 1,4,-1
 473 683 l 1,5,-1
 473 674 l 1,6,-1
 499 674 l 1,7,-1
 499 666 l 1,8,-1
 516 666 l 1,9,-1
 516 657 l 1,10,-1
 524 657 l 1,11,-1
 524 649 l 1,12,-1
 542 649 l 1,13,-1
 542 640 l 1,14,-1
 550 640 l 1,15,-1
 550 632 l 1,16,-1
 559 632 l 1,17,-1
 559 623 l 1,18,-1
 567 623 l 1,19,-1
 567 606 l 1,20,-1
 576 606 l 1,21,-1
 576 589 l 1,22,-1
 584 589 l 1,23,-1
 584 563 l 1,24,-1
 593 563 l 1,25,-1
 593 470 l 1,26,-1
 584 470 l 1,27,-1
 584 444 l 1,28,-1
 576 444 l 1,29,-1
 576 427 l 1,30,-1
 567 427 l 1,31,-1
 567 418 l 1,32,-1
 559 418 l 1,33,-1
 559 410 l 1,34,-1
 550 410 l 1,35,-1
 550 401 l 1,36,-1
 542 401 l 1,37,-1
 542 393 l 1,38,-1
 533 393 l 1,39,-1
 533 384 l 1,40,-1
 524 384 l 1,41,-1
 524 376 l 1,42,-1
 507 376 l 1,43,-1
 507 359 l 1,44,-1
 524 359 l 1,45,-1
 524 350 l 1,46,-1
 542 350 l 1,47,-1
 542 341 l 1,48,-1
 550 341 l 1,49,-1
 550 333 l 1,50,-1
 567 333 l 1,51,-1
 567 324 l 1,52,-1
 576 324 l 1,53,-1
 576 316 l 1,54,-1
 584 316 l 1,55,-1
 584 307 l 1,56,-1
 593 307 l 1,57,-1
 593 290 l 1,58,-1
 601 290 l 1,59,-1
 601 273 l 1,60,-1
 610 273 l 1,61,-1
 610 248 l 1,62,-1
 618 248 l 1,63,-1
 618 145 l 1,64,-1
 610 145 l 1,65,-1
 610 120 l 1,66,-1
 601 120 l 1,67,-1
 601 102 l 1,68,-1
 593 102 l 1,69,-1
 593 94 l 1,70,-1
 584 94 l 1,71,-1
 584 77 l 1,72,-1
 576 77 l 1,73,-1
 576 68 l 1,74,-1
 567 68 l 1,75,-1
 567 60 l 1,76,-1
 559 60 l 1,77,-1
 559 51 l 1,78,-1
 542 51 l 1,79,-1
 542 43 l 1,80,-1
 533 43 l 1,81,-1
 533 34 l 1,82,-1
 516 34 l 1,83,-1
 516 26 l 1,84,-1
 499 26 l 1,85,-1
 499 17 l 1,86,-1
 473 17 l 1,87,-1
 473 9 l 1,88,-1
 439 9 l 1,89,-1
 439 0 l 1,90,-1
 260 0 l 1,91,-1
 260 9 l 1,92,-1
 226 9 l 1,93,-1
 226 17 l 1,94,-1
 200 17 l 1,95,-1
 200 26 l 1,96,-1
 183 26 l 1,97,-1
 183 34 l 1,98,-1
 166 34 l 1,99,-1
 166 43 l 1,100,-1
 149 43 l 1,101,-1
 149 51 l 1,102,-1
 140 51 l 1,103,-1
 140 60 l 1,104,-1
 132 60 l 1,105,-1
 132 68 l 1,106,-1
 123 68 l 1,107,-1
 123 77 l 1,108,-1
 115 77 l 1,109,-1
 115 85 l 1,110,-1
 106 85 l 1,111,-1
 106 94 l 1,112,-1
 98 94 l 1,113,-1
 98 111 l 1,114,-1
 89 111 l 1,115,-1
 89 128 l 1,116,-1
 81 128 l 1,117,-1
 81 154 l 1,118,-1
 72 154 l 1,119,-1
 72 239 l 1,120,-1
 81 239 l 1,121,-1
 81 265 l 1,122,-1
 89 265 l 1,123,-1
 89 282 l 1,124,-1
 98 282 l 1,125,-1
 98 290 l 1,126,-1
 106 290 l 1,127,-1
 106 307 l 1,128,-1
 115 307 l 1,129,-1
 115 316 l 1,130,-1
 123 316 l 1,131,-1
 123 324 l 1,132,-1
 132 324 l 1,133,-1
 132 333 l 1,134,-1
 149 333 l 1,135,-1
 149 341 l 1,136,-1
 157 341 l 1,137,-1
 157 350 l 1,138,-1
 174 350 l 1,139,-1
 174 359 l 1,140,-1
 192 359 l 1,141,-1
 192 367 l 1,142,-1
 183 367 l 1,143,-1
 183 376 l 1,144,-1
 166 376 l 1,145,-1
 166 384 l 1,146,-1
 157 384 l 1,147,-1
 157 393 l 1,148,-1
 149 393 l 1,149,-1
 149 401 l 1,150,-1
 140 401 l 1,151,-1
 140 410 l 1,152,-1
 132 410 l 1,153,-1
 132 418 l 1,154,-1
 123 418 l 1,155,-1
 123 435 l 1,156,-1
 115 435 l 1,157,-1
 115 452 l 1,158,-1
 106 452 l 1,159,-1
 106 478 l 1,160,-1
 98 478 l 1,161,-1
 98 546 l 1,162,-1
 106 546 l 1,163,-1
 106 580 l 1,164,-1
 115 580 l 1,165,-1
 115 598 l 1,166,-1
 123 598 l 1,167,-1
 123 606 l 1,168,-1
 132 606 l 1,169,-1
 132 623 l 1,170,-1
 140 623 l 1,171,-1
 140 632 l 1,172,-1
 149 632 l 1,173,-1
 149 640 l 1,174,-1
 157 640 l 1,175,-1
 157 649 l 1,176,-1
 166 649 l 1,177,-1
 166 657 l 1,178,-1
 183 657 l 1,179,-1
 183 666 l 1,180,-1
 200 666 l 1,181,-1
 200 674 l 1,182,-1
 217 674 l 1,183,-1
 217 683 l 1,184,-1
 243 683 l 1,185,-1
 243 691 l 1,186,-1
 285 691 l 1,187,-1
 285 700 l 1,0,-1
405 94 m 1,188,-1
 405 102 l 1,189,-1
 431 102 l 1,190,-1
 431 111 l 1,191,-1
 448 111 l 1,192,-1
 448 120 l 1,193,-1
 456 120 l 1,194,-1
 456 128 l 1,195,-1
 465 128 l 1,196,-1
 465 137 l 1,197,-1
 473 137 l 1,198,-1
 473 145 l 1,199,-1
 482 145 l 1,200,-1
 482 171 l 1,201,-1
 490 171 l 1,202,-1
 490 239 l 1,203,-1
 482 239 l 1,204,-1
 482 256 l 1,205,-1
 473 256 l 1,206,-1
 473 273 l 1,207,-1
 465 273 l 1,208,-1
 465 282 l 1,209,-1
 456 282 l 1,210,-1
 456 290 l 1,211,-1
 439 290 l 1,212,-1
 439 299 l 1,213,-1
 422 299 l 1,214,-1
 422 307 l 1,215,-1
 388 307 l 1,216,-1
 388 316 l 1,217,-1
 302 316 l 1,218,-1
 302 307 l 1,219,-1
 268 307 l 1,220,-1
 268 299 l 1,221,-1
 251 299 l 1,222,-1
 251 290 l 1,223,-1
 234 290 l 1,224,-1
 234 282 l 1,225,-1
 226 282 l 1,226,-1
 226 273 l 1,227,-1
 217 273 l 1,228,-1
 217 256 l 1,229,-1
 209 256 l 1,230,-1
 209 239 l 1,231,-1
 200 239 l 1,232,-1
 200 171 l 1,233,-1
 209 171 l 1,234,-1
 209 145 l 1,235,-1
 217 145 l 1,236,-1
 217 137 l 1,237,-1
 226 137 l 1,238,-1
 226 128 l 1,239,-1
 234 128 l 1,240,-1
 234 120 l 1,241,-1
 243 120 l 1,242,-1
 243 111 l 1,243,-1
 260 111 l 1,244,-1
 260 102 l 1,245,-1
 277 102 l 1,246,-1
 277 94 l 1,247,-1
 405 94 l 1,188,-1
396 401 m 1,248,-1
 396 410 l 1,249,-1
 422 410 l 1,250,-1
 422 418 l 1,251,-1
 439 418 l 1,252,-1
 439 427 l 1,253,-1
 448 427 l 1,254,-1
 448 435 l 1,255,-1
 456 435 l 1,256,-1
 456 444 l 1,257,-1
 465 444 l 1,258,-1
 465 470 l 1,259,-1
 473 470 l 1,260,-1
 473 529 l 1,261,-1
 465 529 l 1,262,-1
 465 546 l 1,263,-1
 456 546 l 1,264,-1
 456 563 l 1,265,-1
 448 563 l 1,266,-1
 448 572 l 1,267,-1
 439 572 l 1,268,-1
 439 580 l 1,269,-1
 431 580 l 1,270,-1
 431 589 l 1,271,-1
 413 589 l 1,272,-1
 413 598 l 1,273,-1
 388 598 l 1,274,-1
 388 606 l 1,275,-1
 320 606 l 1,276,-1
 320 598 l 1,277,-1
 285 598 l 1,278,-1
 285 589 l 1,279,-1
 268 589 l 1,280,-1
 268 580 l 1,281,-1
 251 580 l 1,282,-1
 251 572 l 1,283,-1
 243 572 l 1,284,-1
 243 555 l 1,285,-1
 234 555 l 1,286,-1
 234 538 l 1,287,-1
 226 538 l 1,288,-1
 226 452 l 1,289,-1
 234 452 l 1,290,-1
 234 444 l 1,291,-1
 243 444 l 1,292,-1
 243 435 l 1,293,-1
 251 435 l 1,294,-1
 251 427 l 1,295,-1
 260 427 l 1,296,-1
 260 418 l 1,297,-1
 277 418 l 1,298,-1
 277 410 l 1,299,-1
 302 410 l 1,300,-1
 302 401 l 1,301,-1
 396 401 l 1,248,-1
EndSplineSet
EndChar

StartChar: nine
Encoding: 57 57 28
Width: 704
GlyphClass: 1
Flags: W
LayerCount: 2
Fore
SplineSet
115 137 m 1,0,-1
 123 137 l 1,1,-1
 123 128 l 1,2,-1
 140 128 l 1,3,-1
 140 120 l 1,4,-1
 157 120 l 1,5,-1
 157 111 l 1,6,-1
 183 111 l 1,7,-1
 183 102 l 1,8,-1
 226 102 l 1,9,-1
 226 94 l 1,10,-1
 320 94 l 1,11,-1
 320 102 l 1,12,-1
 362 102 l 1,13,-1
 362 111 l 1,14,-1
 388 111 l 1,15,-1
 388 120 l 1,16,-1
 405 120 l 1,17,-1
 405 128 l 1,18,-1
 422 128 l 1,19,-1
 422 137 l 1,20,-1
 431 137 l 1,21,-1
 431 145 l 1,22,-1
 439 145 l 1,23,-1
 439 154 l 1,24,-1
 448 154 l 1,25,-1
 448 171 l 1,26,-1
 456 171 l 1,27,-1
 456 179 l 1,28,-1
 465 179 l 1,29,-1
 465 205 l 1,30,-1
 473 205 l 1,31,-1
 473 239 l 1,32,-1
 482 239 l 1,33,-1
 482 290 l 1,34,-1
 465 290 l 1,35,-1
 465 282 l 1,36,-1
 456 282 l 1,37,-1
 456 273 l 1,38,-1
 431 273 l 1,39,-1
 431 265 l 1,40,-1
 396 265 l 1,41,-1
 396 256 l 1,42,-1
 354 256 l 1,43,-1
 354 248 l 1,44,-1
 277 248 l 1,45,-1
 277 256 l 1,46,-1
 234 256 l 1,47,-1
 234 265 l 1,48,-1
 209 265 l 1,49,-1
 209 273 l 1,50,-1
 192 273 l 1,51,-1
 192 282 l 1,52,-1
 174 282 l 1,53,-1
 174 290 l 1,54,-1
 157 290 l 1,55,-1
 157 299 l 1,56,-1
 149 299 l 1,57,-1
 149 307 l 1,58,-1
 140 307 l 1,59,-1
 140 316 l 1,60,-1
 132 316 l 1,61,-1
 132 324 l 1,62,-1
 123 324 l 1,63,-1
 123 333 l 1,64,-1
 115 333 l 1,65,-1
 115 341 l 1,66,-1
 106 341 l 1,67,-1
 106 359 l 1,68,-1
 98 359 l 1,69,-1
 98 367 l 1,70,-1
 89 367 l 1,71,-1
 89 393 l 1,72,-1
 81 393 l 1,73,-1
 81 427 l 1,74,-1
 72 427 l 1,75,-1
 72 521 l 1,76,-1
 81 521 l 1,77,-1
 81 555 l 1,78,-1
 89 555 l 1,79,-1
 89 572 l 1,80,-1
 98 572 l 1,81,-1
 98 589 l 1,82,-1
 106 589 l 1,83,-1
 106 598 l 1,84,-1
 115 598 l 1,85,-1
 115 615 l 1,86,-1
 123 615 l 1,87,-1
 123 623 l 1,88,-1
 132 623 l 1,89,-1
 132 632 l 1,90,-1
 140 632 l 1,91,-1
 140 640 l 1,92,-1
 149 640 l 1,93,-1
 149 649 l 1,94,-1
 166 649 l 1,95,-1
 166 657 l 1,96,-1
 174 657 l 1,97,-1
 174 666 l 1,98,-1
 192 666 l 1,99,-1
 192 674 l 1,100,-1
 217 674 l 1,101,-1
 217 683 l 1,102,-1
 243 683 l 1,103,-1
 243 691 l 1,104,-1
 285 691 l 1,105,-1
 285 700 l 1,106,-1
 388 700 l 1,107,-1
 388 691 l 1,108,-1
 431 691 l 1,109,-1
 431 683 l 1,110,-1
 456 683 l 1,111,-1
 456 674 l 1,112,-1
 482 674 l 1,113,-1
 482 666 l 1,114,-1
 490 666 l 1,115,-1
 490 657 l 1,116,-1
 507 657 l 1,117,-1
 507 649 l 1,118,-1
 516 649 l 1,119,-1
 516 640 l 1,120,-1
 524 640 l 1,121,-1
 524 632 l 1,122,-1
 533 632 l 1,123,-1
 533 623 l 1,124,-1
 542 623 l 1,125,-1
 542 615 l 1,126,-1
 550 615 l 1,127,-1
 550 606 l 1,128,-1
 559 606 l 1,129,-1
 559 598 l 1,130,-1
 567 598 l 1,131,-1
 567 580 l 1,132,-1
 576 580 l 1,133,-1
 576 563 l 1,134,-1
 584 563 l 1,135,-1
 584 546 l 1,136,-1
 593 546 l 1,137,-1
 593 529 l 1,138,-1
 601 529 l 1,139,-1
 601 495 l 1,140,-1
 610 495 l 1,141,-1
 610 444 l 1,142,-1
 618 444 l 1,143,-1
 618 290 l 1,144,-1
 610 290 l 1,145,-1
 610 239 l 1,146,-1
 601 239 l 1,147,-1
 601 205 l 1,148,-1
 593 205 l 1,149,-1
 593 179 l 1,150,-1
 584 179 l 1,151,-1
 584 162 l 1,152,-1
 576 162 l 1,153,-1
 576 145 l 1,154,-1
 567 145 l 1,155,-1
 567 128 l 1,156,-1
 559 128 l 1,157,-1
 559 120 l 1,158,-1
 550 120 l 1,159,-1
 550 102 l 1,160,-1
 542 102 l 1,161,-1
 542 94 l 1,162,-1
 533 94 l 1,163,-1
 533 85 l 1,164,-1
 524 85 l 1,165,-1
 524 77 l 1,166,-1
 516 77 l 1,167,-1
 516 68 l 1,168,-1
 507 68 l 1,169,-1
 507 60 l 1,170,-1
 499 60 l 1,171,-1
 499 51 l 1,172,-1
 482 51 l 1,173,-1
 482 43 l 1,174,-1
 473 43 l 1,175,-1
 473 34 l 1,176,-1
 456 34 l 1,177,-1
 456 26 l 1,178,-1
 431 26 l 1,179,-1
 431 17 l 1,180,-1
 413 17 l 1,181,-1
 413 9 l 1,182,-1
 371 9 l 1,183,-1
 371 0 l 1,184,-1
 209 0 l 1,185,-1
 209 9 l 1,186,-1
 157 9 l 1,187,-1
 157 17 l 1,188,-1
 132 17 l 1,189,-1
 132 26 l 1,190,-1
 115 26 l 1,191,-1
 115 120 l 1,192,-1
 106 120 l 1,193,-1
 106 128 l 1,194,-1
 115 128 l 1,195,-1
 115 137 l 1,0,-1
405 350 m 1,196,-1
 405 359 l 1,197,-1
 431 359 l 1,198,-1
 431 367 l 1,199,-1
 456 367 l 1,200,-1
 456 376 l 1,201,-1
 473 376 l 1,202,-1
 473 384 l 1,203,-1
 482 384 l 1,204,-1
 482 487 l 1,205,-1
 473 487 l 1,206,-1
 473 512 l 1,207,-1
 465 512 l 1,208,-1
 465 538 l 1,209,-1
 456 538 l 1,210,-1
 456 546 l 1,211,-1
 448 546 l 1,212,-1
 448 563 l 1,213,-1
 439 563 l 1,214,-1
 439 572 l 1,215,-1
 431 572 l 1,216,-1
 431 580 l 1,217,-1
 413 580 l 1,218,-1
 413 589 l 1,219,-1
 396 589 l 1,220,-1
 396 598 l 1,221,-1
 371 598 l 1,222,-1
 371 606 l 1,223,-1
 302 606 l 1,224,-1
 302 598 l 1,225,-1
 277 598 l 1,226,-1
 277 589 l 1,227,-1
 260 589 l 1,228,-1
 260 580 l 1,229,-1
 243 580 l 1,230,-1
 243 572 l 1,231,-1
 234 572 l 1,232,-1
 234 563 l 1,233,-1
 226 563 l 1,234,-1
 226 546 l 1,235,-1
 217 546 l 1,236,-1
 217 529 l 1,237,-1
 209 529 l 1,238,-1
 209 495 l 1,239,-1
 200 495 l 1,240,-1
 200 461 l 1,241,-1
 209 461 l 1,242,-1
 209 418 l 1,243,-1
 217 418 l 1,244,-1
 217 401 l 1,245,-1
 226 401 l 1,246,-1
 226 393 l 1,247,-1
 234 393 l 1,248,-1
 234 384 l 1,249,-1
 243 384 l 1,250,-1
 243 376 l 1,251,-1
 251 376 l 1,252,-1
 251 367 l 1,253,-1
 268 367 l 1,254,-1
 268 359 l 1,255,-1
 294 359 l 1,256,-1
 294 350 l 1,257,-1
 405 350 l 1,196,-1
EndSplineSet
EndChar

StartChar: colon
Encoding: 58 58 29
Width: 646
GlyphClass: 1
Flags: W
LayerCount: 2
Fore
SplineSet
329 256 m 1,0,-1
 391 256 l 1,1,-1
 391 247 l 1,2,-1
 408 247 l 1,3,-1
 408 238 l 1,4,-1
 417 238 l 1,5,-1
 417 230 l 1,6,-1
 426 230 l 1,7,-1
 426 221 l 1,8,-1
 434 221 l 1,9,-1
 434 160 l 1,10,-1
 426 160 l 1,11,-1
 426 142 l 1,12,-1
 417 142 l 1,13,-1
 417 134 l 1,14,-1
 408 134 l 1,15,-1
 408 125 l 1,16,-1
 399 125 l 1,17,-1
 399 116 l 1,18,-1
 321 116 l 1,19,-1
 321 125 l 1,20,-1
 312 125 l 1,21,-1
 312 134 l 1,22,-1
 303 134 l 1,23,-1
 303 142 l 1,24,-1
 294 142 l 1,25,-1
 294 151 l 1,26,-1
 286 151 l 1,27,-1
 286 212 l 1,28,-1
 294 212 l 1,29,-1
 294 230 l 1,30,-1
 303 230 l 1,31,-1
 303 238 l 1,32,-1
 312 238 l 1,33,-1
 312 247 l 1,34,-1
 329 247 l 1,35,-1
 329 256 l 1,0,-1
329 529 m 1,36,-1
 391 529 l 1,37,-1
 391 520 l 1,38,-1
 408 520 l 1,39,-1
 408 511 l 1,40,-1
 417 511 l 1,41,-1
 417 503 l 1,42,-1
 426 503 l 1,43,-1
 426 494 l 1,44,-1
 434 494 l 1,45,-1
 434 433 l 1,46,-1
 426 433 l 1,47,-1
 426 415 l 1,48,-1
 417 415 l 1,49,-1
 417 407 l 1,50,-1
 408 407 l 1,51,-1
 408 398 l 1,52,-1
 399 398 l 1,53,-1
 399 389 l 1,54,-1
 321 389 l 1,55,-1
 321 398 l 1,56,-1
 312 398 l 1,57,-1
 312 407 l 1,58,-1
 303 407 l 1,59,-1
 303 415 l 1,60,-1
 294 415 l 1,61,-1
 294 424 l 1,62,-1
 286 424 l 1,63,-1
 286 485 l 1,64,-1
 294 485 l 1,65,-1
 294 503 l 1,66,-1
 303 503 l 1,67,-1
 303 511 l 1,68,-1
 312 511 l 1,69,-1
 312 520 l 1,70,-1
 329 520 l 1,71,-1
 329 529 l 1,36,-1
EndSplineSet
EndChar

StartChar: semicolon
Encoding: 59 59 30
Width: 646
GlyphClass: 1
Flags: W
LayerCount: 2
Fore
SplineSet
329 498 m 1,0,-1
 391 498 l 1,1,-1
 391 489 l 1,2,-1
 408 489 l 1,3,-1
 408 480 l 1,4,-1
 417 480 l 1,5,-1
 417 472 l 1,6,-1
 426 472 l 1,7,-1
 426 463 l 1,8,-1
 434 463 l 1,9,-1
 434 402 l 1,10,-1
 426 402 l 1,11,-1
 426 384 l 1,12,-1
 417 384 l 1,13,-1
 417 376 l 1,14,-1
 408 376 l 1,15,-1
 408 367 l 1,16,-1
 399 367 l 1,17,-1
 399 358 l 1,18,-1
 321 358 l 1,19,-1
 321 367 l 1,20,-1
 312 367 l 1,21,-1
 312 376 l 1,22,-1
 303 376 l 1,23,-1
 303 384 l 1,24,-1
 294 384 l 1,25,-1
 294 393 l 1,26,-1
 286 393 l 1,27,-1
 286 454 l 1,28,-1
 294 454 l 1,29,-1
 294 472 l 1,30,-1
 303 472 l 1,31,-1
 303 480 l 1,32,-1
 312 480 l 1,33,-1
 312 489 l 1,34,-1
 329 489 l 1,35,-1
 329 498 l 1,0,-1
321 289 m 1,36,-1
 389 289 l 1,37,-1
 389 279 l 1,38,-1
 408 279 l 1,39,-1
 408 270 l 1,40,-1
 418 270 l 1,41,-1
 418 260 l 1,42,-1
 427 260 l 1,43,-1
 427 241 l 1,44,-1
 437 241 l 1,45,-1
 437 125 l 1,46,-1
 427 125 l 1,47,-1
 427 96 l 1,48,-1
 418 96 l 1,49,-1
 418 77 l 1,50,-1
 408 77 l 1,51,-1
 408 67 l 1,52,-1
 399 67 l 1,53,-1
 399 48 l 1,54,-1
 389 48 l 1,55,-1
 389 38 l 1,56,-1
 369 38 l 1,57,-1
 369 28 l 1,58,-1
 360 28 l 1,59,-1
 360 19 l 1,60,-1
 341 19 l 1,61,-1
 341 9 l 1,62,-1
 283 9 l 1,63,-1
 283 19 l 1,64,-1
 302 19 l 1,65,-1
 302 28 l 1,66,-1
 312 28 l 1,67,-1
 312 38 l 1,68,-1
 321 38 l 1,69,-1
 321 48 l 1,70,-1
 331 48 l 1,71,-1
 331 67 l 1,72,-1
 341 67 l 1,73,-1
 341 86 l 1,74,-1
 350 86 l 1,75,-1
 350 135 l 1,76,-1
 341 135 l 1,77,-1
 341 144 l 1,78,-1
 312 144 l 1,79,-1
 312 154 l 1,80,-1
 302 154 l 1,81,-1
 302 163 l 1,82,-1
 292 163 l 1,83,-1
 292 173 l 1,84,-1
 283 173 l 1,85,-1
 283 193 l 1,86,-1
 273 193 l 1,87,-1
 273 250 l 1,88,-1
 283 250 l 1,89,-1
 283 260 l 1,90,-1
 292 260 l 1,91,-1
 292 270 l 1,92,-1
 302 270 l 1,93,-1
 302 279 l 1,94,-1
 321 279 l 1,95,-1
 321 289 l 1,36,-1
EndSplineSet
EndChar

StartChar: equal
Encoding: 61 61 31
Width: 1171
GlyphClass: 1
Flags: W
LayerCount: 2
Fore
SplineSet
862 253 m 1,0,-1
 958 253 l 1,1,-1
 958 88 l 1,2,-1
 199 88 l 1,3,-1
 199 253 l 1,4,-1
 779 253 l 1,5,-1
 779 240 l 1,6,-1
 862 240 l 1,7,-1
 862 253 l 1,0,-1
199 612 m 1,8,-1
 958 612 l 1,9,-1
 958 447 l 1,10,-1
 682 447 l 1,11,-1
 682 460 l 1,12,-1
 655 460 l 1,13,-1
 655 447 l 1,14,-1
 627 447 l 1,15,-1
 627 460 l 1,16,-1
 599 460 l 1,17,-1
 599 447 l 1,18,-1
 586 447 l 1,19,-1
 586 460 l 1,20,-1
 309 460 l 1,21,-1
 309 447 l 1,22,-1
 199 447 l 1,23,-1
 199 612 l 1,8,-1
EndSplineSet
EndChar

StartChar: question
Encoding: 63 63 32
Width: 579
GlyphClass: 1
Flags: W
LayerCount: 2
Fore
SplineSet
224 181 m 1,0,-1
 274 181 l 1,1,-1
 274 173 l 1,2,-1
 291 173 l 1,3,-1
 291 164 l 1,4,-1
 300 164 l 1,5,-1
 300 156 l 1,6,-1
 308 156 l 1,7,-1
 308 147 l 1,8,-1
 317 147 l 1,9,-1
 317 113 l 1,10,-1
 325 113 l 1,11,-1
 325 105 l 1,12,-1
 317 105 l 1,13,-1
 317 71 l 1,14,-1
 308 71 l 1,15,-1
 308 63 l 1,16,-1
 300 63 l 1,17,-1
 300 54 l 1,18,-1
 283 54 l 1,19,-1
 283 46 l 1,20,-1
 207 46 l 1,21,-1
 207 54 l 1,22,-1
 199 54 l 1,23,-1
 199 63 l 1,24,-1
 190 63 l 1,25,-1
 190 71 l 1,26,-1
 182 71 l 1,27,-1
 182 97 l 1,28,-1
 173 97 l 1,29,-1
 173 130 l 1,30,-1
 182 130 l 1,31,-1
 182 147 l 1,32,-1
 190 147 l 1,33,-1
 190 164 l 1,34,-1
 207 164 l 1,35,-1
 207 173 l 1,36,-1
 224 173 l 1,37,-1
 224 181 l 1,0,-1
199 746 m 1,38,-1
 325 746 l 1,39,-1
 325 738 l 1,40,-1
 367 738 l 1,41,-1
 367 729 l 1,42,-1
 392 729 l 1,43,-1
 392 721 l 1,44,-1
 418 721 l 1,45,-1
 418 712 l 1,46,-1
 426 712 l 1,47,-1
 426 704 l 1,48,-1
 443 704 l 1,49,-1
 443 695 l 1,50,-1
 452 695 l 1,51,-1
 452 687 l 1,52,-1
 460 687 l 1,53,-1
 460 679 l 1,54,-1
 468 679 l 1,55,-1
 468 662 l 1,56,-1
 477 662 l 1,57,-1
 477 645 l 1,58,-1
 485 645 l 1,59,-1
 485 619 l 1,60,-1
 494 619 l 1,61,-1
 494 535 l 1,62,-1
 485 535 l 1,63,-1
 485 510 l 1,64,-1
 477 510 l 1,65,-1
 477 493 l 1,66,-1
 468 493 l 1,67,-1
 468 485 l 1,68,-1
 460 485 l 1,69,-1
 460 476 l 1,70,-1
 452 476 l 1,71,-1
 452 459 l 1,72,-1
 443 459 l 1,73,-1
 443 451 l 1,74,-1
 435 451 l 1,75,-1
 435 442 l 1,76,-1
 426 442 l 1,77,-1
 426 434 l 1,78,-1
 409 434 l 1,79,-1
 409 426 l 1,80,-1
 401 426 l 1,81,-1
 401 417 l 1,82,-1
 392 417 l 1,83,-1
 392 409 l 1,84,-1
 384 409 l 1,85,-1
 384 400 l 1,86,-1
 367 400 l 1,87,-1
 367 392 l 1,88,-1
 359 392 l 1,89,-1
 359 383 l 1,90,-1
 350 383 l 1,91,-1
 350 375 l 1,92,-1
 342 375 l 1,93,-1
 342 366 l 1,94,-1
 333 366 l 1,95,-1
 333 358 l 1,96,-1
 325 358 l 1,97,-1
 325 350 l 1,98,-1
 317 350 l 1,99,-1
 317 341 l 1,100,-1
 308 341 l 1,101,-1
 308 324 l 1,102,-1
 300 324 l 1,103,-1
 300 307 l 1,104,-1
 291 307 l 1,105,-1
 291 257 l 1,106,-1
 190 257 l 1,107,-1
 190 282 l 1,108,-1
 182 282 l 1,109,-1
 182 341 l 1,110,-1
 190 341 l 1,111,-1
 190 358 l 1,112,-1
 199 358 l 1,113,-1
 199 375 l 1,114,-1
 207 375 l 1,115,-1
 207 383 l 1,116,-1
 215 383 l 1,117,-1
 215 392 l 1,118,-1
 224 392 l 1,119,-1
 224 400 l 1,120,-1
 232 400 l 1,121,-1
 232 409 l 1,122,-1
 241 409 l 1,123,-1
 241 417 l 1,124,-1
 249 417 l 1,125,-1
 249 426 l 1,126,-1
 258 426 l 1,127,-1
 258 434 l 1,128,-1
 266 434 l 1,129,-1
 266 442 l 1,130,-1
 274 442 l 1,131,-1
 274 451 l 1,132,-1
 291 451 l 1,133,-1
 291 459 l 1,134,-1
 300 459 l 1,135,-1
 300 468 l 1,136,-1
 308 468 l 1,137,-1
 308 476 l 1,138,-1
 317 476 l 1,139,-1
 317 485 l 1,140,-1
 325 485 l 1,141,-1
 325 493 l 1,142,-1
 333 493 l 1,143,-1
 333 501 l 1,144,-1
 342 501 l 1,145,-1
 342 510 l 1,146,-1
 350 510 l 1,147,-1
 350 518 l 1,148,-1
 359 518 l 1,149,-1
 359 535 l 1,150,-1
 367 535 l 1,151,-1
 367 594 l 1,152,-1
 359 594 l 1,153,-1
 359 611 l 1,154,-1
 350 611 l 1,155,-1
 350 619 l 1,156,-1
 342 619 l 1,157,-1
 342 628 l 1,158,-1
 325 628 l 1,159,-1
 325 636 l 1,160,-1
 300 636 l 1,161,-1
 300 645 l 1,162,-1
 182 645 l 1,163,-1
 182 636 l 1,164,-1
 148 636 l 1,165,-1
 148 628 l 1,166,-1
 131 628 l 1,167,-1
 131 619 l 1,168,-1
 106 619 l 1,169,-1
 106 611 l 1,170,-1
 89 611 l 1,171,-1
 89 603 l 1,172,-1
 80 603 l 1,173,-1
 80 594 l 1,174,-1
 72 594 l 1,175,-1
 72 712 l 1,176,-1
 97 712 l 1,177,-1
 97 721 l 1,178,-1
 123 721 l 1,179,-1
 123 729 l 1,180,-1
 148 729 l 1,181,-1
 148 738 l 1,182,-1
 199 738 l 1,183,-1
 199 746 l 1,38,-1
EndSplineSet
EndChar

StartChar: at
Encoding: 64 64 33
Width: 520
GlyphClass: 1
Flags: W
LayerCount: 2
Fore
SplineSet
257 267 m 1,0,-1
 257 273 l 1,1,-1
 281 273 l 1,2,-1
 281 279 l 1,3,-1
 293 279 l 1,4,-1
 293 284 l 1,5,-1
 305 284 l 1,6,-1
 305 290 l 1,7,-1
 311 290 l 1,8,-1
 311 314 l 1,9,-1
 317 314 l 1,10,-1
 317 362 l 1,11,-1
 323 362 l 1,12,-1
 323 398 l 1,13,-1
 328 398 l 1,14,-1
 328 404 l 1,15,-1
 323 404 l 1,16,-1
 323 410 l 1,17,-1
 305 410 l 1,18,-1
 305 416 l 1,19,-1
 259 416 l 1,20,-1
 257 416 l 1,21,-1
 241 416 l 1,22,-1
 241 410 l 1,23,-1
 229 410 l 1,24,-1
 229 404 l 1,25,-1
 217 404 l 1,26,-1
 217 398 l 1,27,-1
 211 398 l 1,28,-1
 211 392 l 1,29,-1
 205 392 l 1,30,-1
 205 380 l 1,31,-1
 199 380 l 1,32,-1
 199 362 l 1,33,-1
 193 362 l 1,34,-1
 193 302 l 1,35,-1
 199 302 l 1,36,-1
 199 284 l 1,37,-1
 205 284 l 1,38,-1
 205 279 l 1,39,-1
 211 279 l 1,40,-1
 211 273 l 1,41,-1
 229 273 l 1,42,-1
 229 267 l 1,43,-1
 257 267 l 1,0,-1
388 469 m 1,44,-1
 394 469 l 1,45,-1
 394 451 l 1,46,-1
 388 451 l 1,47,-1
 388 416 l 1,48,-1
 382 416 l 1,49,-1
 382 392 l 1,50,-1
 376 392 l 1,51,-1
 376 350 l 1,52,-1
 370 350 l 1,53,-1
 370 279 l 1,54,-1
 376 279 l 1,55,-1
 376 273 l 1,56,-1
 394 273 l 1,57,-1
 394 279 l 1,58,-1
 406 279 l 1,59,-1
 406 284 l 1,60,-1
 418 284 l 1,61,-1
 418 290 l 1,62,-1
 424 290 l 1,63,-1
 424 296 l 1,64,-1
 430 296 l 1,65,-1
 430 302 l 1,66,-1
 436 302 l 1,67,-1
 436 308 l 1,68,-1
 442 308 l 1,69,-1
 442 320 l 1,70,-1
 448 320 l 1,71,-1
 448 332 l 1,72,-1
 454 332 l 1,73,-1
 454 350 l 1,74,-1
 460 350 l 1,75,-1
 460 433 l 1,76,-1
 454 433 l 1,77,-1
 454 457 l 1,78,-1
 448 457 l 1,79,-1
 448 469 l 1,80,-1
 442 469 l 1,81,-1
 442 475 l 1,82,-1
 436 475 l 1,83,-1
 436 487 l 1,84,-1
 430 487 l 1,85,-1
 430 493 l 1,86,-1
 424 493 l 1,87,-1
 424 499 l 1,88,-1
 418 499 l 1,89,-1
 418 505 l 1,90,-1
 412 505 l 1,91,-1
 412 511 l 1,92,-1
 400 511 l 1,93,-1
 400 517 l 1,94,-1
 388 517 l 1,95,-1
 388 523 l 1,96,-1
 382 523 l 1,97,-1
 382 529 l 1,98,-1
 370 529 l 1,99,-1
 370 535 l 1,100,-1
 352 535 l 1,101,-1
 352 541 l 1,102,-1
 334 541 l 1,103,-1
 334 546 l 1,104,-1
 305 546 l 1,105,-1
 305 552 l 1,106,-1
 259 552 l 1,107,-1
 257 552 l 1,108,-1
 229 552 l 1,109,-1
 229 546 l 1,110,-1
 199 546 l 1,111,-1
 199 541 l 1,112,-1
 182 541 l 1,113,-1
 182 535 l 1,114,-1
 170 535 l 1,115,-1
 170 529 l 1,116,-1
 158 529 l 1,117,-1
 158 523 l 1,118,-1
 146 523 l 1,119,-1
 146 517 l 1,120,-1
 134 517 l 1,121,-1
 134 511 l 1,122,-1
 128 511 l 1,123,-1
 128 505 l 1,124,-1
 122 505 l 1,125,-1
 122 499 l 1,126,-1
 116 499 l 1,127,-1
 116 493 l 1,128,-1
 110 493 l 1,129,-1
 110 487 l 1,130,-1
 104 487 l 1,131,-1
 104 481 l 1,132,-1
 98 481 l 1,133,-1
 98 475 l 1,134,-1
 92 475 l 1,135,-1
 92 463 l 1,136,-1
 86 463 l 1,137,-1
 86 451 l 1,138,-1
 80 451 l 1,139,-1
 80 439 l 1,140,-1
 74 439 l 1,141,-1
 74 427 l 1,142,-1
 68 427 l 1,143,-1
 68 404 l 1,144,-1
 62 404 l 1,145,-1
 62 374 l 1,146,-1
 56 374 l 1,147,-1
 56 308 l 1,148,-1
 62 308 l 1,149,-1
 62 284 l 1,150,-1
 68 284 l 1,151,-1
 68 261 l 1,152,-1
 74 261 l 1,153,-1
 74 249 l 1,154,-1
 80 249 l 1,155,-1
 80 237 l 1,156,-1
 86 237 l 1,157,-1
 86 231 l 1,158,-1
 92 231 l 1,159,-1
 92 219 l 1,160,-1
 98 219 l 1,161,-1
 98 213 l 1,162,-1
 104 213 l 1,163,-1
 104 207 l 1,164,-1
 110 207 l 1,165,-1
 110 201 l 1,166,-1
 116 201 l 1,167,-1
 116 195 l 1,168,-1
 122 195 l 1,169,-1
 122 189 l 1,170,-1
 134 189 l 1,171,-1
 134 183 l 1,172,-1
 140 183 l 1,173,-1
 140 177 l 1,174,-1
 152 177 l 1,175,-1
 152 171 l 1,176,-1
 164 171 l 1,177,-1
 164 165 l 1,178,-1
 176 165 l 1,179,-1
 176 159 l 1,180,-1
 199 159 l 1,181,-1
 199 154 l 1,182,-1
 241 154 l 1,183,-1
 241 148 l 1,184,-1
 257 148 l 1,185,-1
 259 148 l 1,186,-1
 287 148 l 1,187,-1
 287 154 l 1,188,-1
 334 154 l 1,189,-1
 334 159 l 1,190,-1
 364 159 l 1,191,-1
 364 165 l 1,192,-1
 382 165 l 1,193,-1
 382 171 l 1,194,-1
 400 171 l 1,195,-1
 400 130 l 1,196,-1
 394 130 l 1,197,-1
 394 124 l 1,198,-1
 400 124 l 1,199,-1
 400 118 l 1,200,-1
 394 118 l 1,201,-1
 394 112 l 1,202,-1
 376 112 l 1,203,-1
 376 106 l 1,204,-1
 352 106 l 1,205,-1
 352 100 l 1,206,-1
 328 100 l 1,207,-1
 328 94 l 1,208,-1
 293 94 l 1,209,-1
 293 88 l 1,210,-1
 259 88 l 1,211,-1
 257 88 l 1,212,-1
 205 88 l 1,213,-1
 205 94 l 1,214,-1
 170 94 l 1,215,-1
 170 100 l 1,216,-1
 152 100 l 1,217,-1
 152 106 l 1,218,-1
 134 106 l 1,219,-1
 134 112 l 1,220,-1
 122 112 l 1,221,-1
 122 118 l 1,222,-1
 110 118 l 1,223,-1
 110 124 l 1,224,-1
 98 124 l 1,225,-1
 98 130 l 1,226,-1
 92 130 l 1,227,-1
 92 136 l 1,228,-1
 80 136 l 1,229,-1
 80 142 l 1,230,-1
 74 142 l 1,231,-1
 74 148 l 1,232,-1
 68 148 l 1,233,-1
 68 154 l 1,234,-1
 62 154 l 1,235,-1
 62 159 l 1,236,-1
 56 159 l 1,237,-1
 56 165 l 1,238,-1
 50 165 l 1,239,-1
 50 171 l 1,240,-1
 44 171 l 1,241,-1
 44 177 l 1,242,-1
 38 177 l 1,243,-1
 38 189 l 1,244,-1
 32 189 l 1,245,-1
 32 195 l 1,246,-1
 26 195 l 1,247,-1
 26 207 l 1,248,-1
 20 207 l 1,249,-1
 20 219 l 1,250,-1
 14 219 l 1,251,-1
 14 237 l 1,252,-1
 8 237 l 1,253,-1
 8 249 l 1,254,-1
 2 249 l 1,255,-1
 2 279 l 1,256,-1
 -4 279 l 1,257,-1
 -4 392 l 1,258,-1
 2 392 l 1,259,-1
 2 421 l 1,260,-1
 8 421 l 1,261,-1
 8 439 l 1,262,-1
 14 439 l 1,263,-1
 14 451 l 1,264,-1
 20 451 l 1,265,-1
 20 463 l 1,266,-1
 26 463 l 1,267,-1
 26 481 l 1,268,-1
 32 481 l 1,269,-1
 32 487 l 1,270,-1
 38 487 l 1,271,-1
 38 499 l 1,272,-1
 44 499 l 1,273,-1
 44 505 l 1,274,-1
 50 505 l 1,275,-1
 50 517 l 1,276,-1
 56 517 l 1,277,-1
 56 523 l 1,278,-1
 62 523 l 1,279,-1
 62 529 l 1,280,-1
 68 529 l 1,281,-1
 68 535 l 1,282,-1
 74 535 l 1,283,-1
 74 546 l 1,284,-1
 80 546 l 1,285,-1
 80 552 l 1,286,-1
 92 552 l 1,287,-1
 92 558 l 1,288,-1
 98 558 l 1,289,-1
 98 564 l 1,290,-1
 104 564 l 1,291,-1
 104 570 l 1,292,-1
 116 570 l 1,293,-1
 116 576 l 1,294,-1
 122 576 l 1,295,-1
 122 582 l 1,296,-1
 134 582 l 1,297,-1
 134 588 l 1,298,-1
 146 588 l 1,299,-1
 146 594 l 1,300,-1
 164 594 l 1,301,-1
 164 600 l 1,302,-1
 182 600 l 1,303,-1
 182 606 l 1,304,-1
 205 606 l 1,305,-1
 205 612 l 1,306,-1
 257 612 l 1,307,-1
 259 612 l 1,308,-1
 340 612 l 1,309,-1
 340 606 l 1,310,-1
 370 606 l 1,311,-1
 370 600 l 1,312,-1
 388 600 l 1,313,-1
 388 594 l 1,314,-1
 406 594 l 1,315,-1
 406 588 l 1,316,-1
 418 588 l 1,317,-1
 418 582 l 1,318,-1
 430 582 l 1,319,-1
 430 576 l 1,320,-1
 442 576 l 1,321,-1
 442 570 l 1,322,-1
 448 570 l 1,323,-1
 448 564 l 1,324,-1
 454 564 l 1,325,-1
 454 558 l 1,326,-1
 466 558 l 1,327,-1
 466 552 l 1,328,-1
 472 552 l 1,329,-1
 472 546 l 1,330,-1
 478 546 l 1,331,-1
 478 541 l 1,332,-1
 484 541 l 1,333,-1
 484 529 l 1,334,-1
 490 529 l 1,335,-1
 490 523 l 1,336,-1
 496 523 l 1,337,-1
 496 517 l 1,338,-1
 502 517 l 1,339,-1
 502 505 l 1,340,-1
 508 505 l 1,341,-1
 508 487 l 1,342,-1
 514 487 l 1,343,-1
 514 469 l 1,344,-1
 520 469 l 1,345,-1
 520 374 l 1,346,-1
 514 374 l 1,347,-1
 514 344 l 1,348,-1
 508 344 l 1,349,-1
 508 326 l 1,350,-1
 502 326 l 1,351,-1
 502 314 l 1,352,-1
 496 314 l 1,353,-1
 496 302 l 1,354,-1
 490 302 l 1,355,-1
 490 290 l 1,356,-1
 484 290 l 1,357,-1
 484 279 l 1,358,-1
 478 279 l 1,359,-1
 478 273 l 1,360,-1
 472 273 l 1,361,-1
 472 267 l 1,362,-1
 466 267 l 1,363,-1
 466 261 l 1,364,-1
 460 261 l 1,365,-1
 460 255 l 1,366,-1
 454 255 l 1,367,-1
 454 249 l 1,368,-1
 448 249 l 1,369,-1
 448 243 l 1,370,-1
 442 243 l 1,371,-1
 442 237 l 1,372,-1
 430 237 l 1,373,-1
 430 231 l 1,374,-1
 424 231 l 1,375,-1
 424 225 l 1,376,-1
 406 225 l 1,377,-1
 406 219 l 1,378,-1
 388 219 l 1,379,-1
 388 213 l 1,380,-1
 352 213 l 1,381,-1
 352 219 l 1,382,-1
 334 219 l 1,383,-1
 334 225 l 1,384,-1
 328 225 l 1,385,-1
 328 231 l 1,386,-1
 323 231 l 1,387,-1
 323 237 l 1,388,-1
 317 237 l 1,389,-1
 317 249 l 1,390,-1
 311 249 l 1,391,-1
 311 243 l 1,392,-1
 305 243 l 1,393,-1
 305 237 l 1,394,-1
 299 237 l 1,395,-1
 299 231 l 1,396,-1
 293 231 l 1,397,-1
 293 225 l 1,398,-1
 281 225 l 1,399,-1
 281 219 l 1,400,-1
 263 219 l 1,401,-1
 263 213 l 1,402,-1
 259 213 l 1,403,-1
 257 213 l 1,404,-1
 193 213 l 1,405,-1
 193 219 l 1,406,-1
 182 219 l 1,407,-1
 182 225 l 1,408,-1
 170 225 l 1,409,-1
 170 231 l 1,410,-1
 164 231 l 1,411,-1
 164 237 l 1,412,-1
 158 237 l 1,413,-1
 158 243 l 1,414,-1
 152 243 l 1,415,-1
 152 249 l 1,416,-1
 146 249 l 1,417,-1
 146 261 l 1,418,-1
 140 261 l 1,419,-1
 140 273 l 1,420,-1
 134 273 l 1,421,-1
 134 290 l 1,422,-1
 128 290 l 1,423,-1
 128 374 l 1,424,-1
 134 374 l 1,425,-1
 134 392 l 1,426,-1
 140 392 l 1,427,-1
 140 404 l 1,428,-1
 146 404 l 1,429,-1
 146 416 l 1,430,-1
 152 416 l 1,431,-1
 152 427 l 1,432,-1
 158 427 l 1,433,-1
 158 433 l 1,434,-1
 164 433 l 1,435,-1
 164 439 l 1,436,-1
 170 439 l 1,437,-1
 170 445 l 1,438,-1
 176 445 l 1,439,-1
 176 451 l 1,440,-1
 188 451 l 1,441,-1
 188 457 l 1,442,-1
 199 457 l 1,443,-1
 199 463 l 1,444,-1
 217 463 l 1,445,-1
 217 469 l 1,446,-1
 257 469 l 1,447,-1
 259 469 l 1,448,-1
 281 469 l 1,449,-1
 281 463 l 1,450,-1
 299 463 l 1,451,-1
 299 457 l 1,452,-1
 311 457 l 1,453,-1
 311 451 l 1,454,-1
 323 451 l 1,455,-1
 323 445 l 1,456,-1
 328 445 l 1,457,-1
 328 439 l 1,458,-1
 334 439 l 1,459,-1
 334 445 l 1,460,-1
 340 445 l 1,461,-1
 340 463 l 1,462,-1
 388 463 l 1,463,-1
 388 469 l 1,44,-1
EndSplineSet
EndChar

StartChar: A
Encoding: 65 65 34
Width: 894
GlyphClass: 1
Flags: W
LayerCount: 2
Fore
SplineSet
344 700 m 1,0,-1
 530 700 l 1,1,-1
 530 673 l 1,2,-1
 538 673 l 1,3,-1
 538 656 l 1,4,-1
 547 656 l 1,5,-1
 547 638 l 1,6,-1
 556 638 l 1,7,-1
 556 611 l 1,8,-1
 565 611 l 1,9,-1
 565 594 l 1,10,-1
 574 594 l 1,11,-1
 574 567 l 1,12,-1
 583 567 l 1,13,-1
 583 549 l 1,14,-1
 592 549 l 1,15,-1
 592 532 l 1,16,-1
 601 532 l 1,17,-1
 601 505 l 1,18,-1
 609 505 l 1,19,-1
 609 487 l 1,20,-1
 618 487 l 1,21,-1
 618 470 l 1,22,-1
 627 470 l 1,23,-1
 627 443 l 1,24,-1
 636 443 l 1,25,-1
 636 425 l 1,26,-1
 645 425 l 1,27,-1
 645 408 l 1,28,-1
 654 408 l 1,29,-1
 654 390 l 1,30,-1
 663 390 l 1,31,-1
 663 363 l 1,32,-1
 671 363 l 1,33,-1
 671 346 l 1,34,-1
 680 346 l 1,35,-1
 680 328 l 1,36,-1
 689 328 l 1,37,-1
 689 310 l 1,38,-1
 698 310 l 1,39,-1
 698 292 l 1,40,-1
 707 292 l 1,41,-1
 707 266 l 1,42,-1
 716 266 l 1,43,-1
 716 248 l 1,44,-1
 725 248 l 1,45,-1
 725 230 l 1,46,-1
 733 230 l 1,47,-1
 733 213 l 1,48,-1
 742 213 l 1,49,-1
 742 186 l 1,50,-1
 751 186 l 1,51,-1
 751 168 l 1,52,-1
 760 168 l 1,53,-1
 760 151 l 1,54,-1
 769 151 l 1,55,-1
 769 133 l 1,56,-1
 778 133 l 1,57,-1
 778 106 l 1,58,-1
 787 106 l 1,59,-1
 787 89 l 1,60,-1
 795 89 l 1,61,-1
 795 71 l 1,62,-1
 804 71 l 1,63,-1
 804 53 l 1,64,-1
 813 53 l 1,65,-1
 813 35 l 1,66,-1
 822 35 l 1,67,-1
 822 18 l 1,68,-1
 831 18 l 1,69,-1
 831 0 l 1,70,-1
 663 0 l 1,71,-1
 663 27 l 1,72,-1
 654 27 l 1,73,-1
 654 44 l 1,74,-1
 645 44 l 1,75,-1
 645 71 l 1,76,-1
 636 71 l 1,77,-1
 636 97 l 1,78,-1
 627 97 l 1,79,-1
 627 115 l 1,80,-1
 618 115 l 1,81,-1
 618 142 l 1,82,-1
 609 142 l 1,83,-1
 609 159 l 1,84,-1
 255 159 l 1,85,-1
 255 142 l 1,86,-1
 246 142 l 1,87,-1
 246 115 l 1,88,-1
 237 115 l 1,89,-1
 237 97 l 1,90,-1
 228 97 l 1,91,-1
 228 71 l 1,92,-1
 219 71 l 1,93,-1
 219 53 l 1,94,-1
 211 53 l 1,95,-1
 211 27 l 1,96,-1
 202 27 l 1,97,-1
 202 9 l 1,98,-1
 193 9 l 1,99,-1
 193 0 l 1,100,-1
 60 0 l 1,101,-1
 60 9 l 1,102,-1
 69 9 l 1,103,-1
 69 27 l 1,104,-1
 78 27 l 1,105,-1
 78 44 l 1,106,-1
 87 44 l 1,107,-1
 87 71 l 1,108,-1
 95 71 l 1,109,-1
 95 89 l 1,110,-1
 104 89 l 1,111,-1
 104 106 l 1,112,-1
 113 106 l 1,113,-1
 113 124 l 1,114,-1
 122 124 l 1,115,-1
 122 151 l 1,116,-1
 131 151 l 1,117,-1
 131 168 l 1,118,-1
 140 168 l 1,119,-1
 140 186 l 1,120,-1
 149 186 l 1,121,-1
 149 204 l 1,122,-1
 157 204 l 1,123,-1
 157 222 l 1,124,-1
 166 222 l 1,125,-1
 166 248 l 1,126,-1
 175 248 l 1,127,-1
 175 266 l 1,128,-1
 184 266 l 1,129,-1
 184 284 l 1,130,-1
 193 284 l 1,131,-1
 193 301 l 1,132,-1
 202 301 l 1,133,-1
 202 319 l 1,134,-1
 211 319 l 1,135,-1
 211 346 l 1,136,-1
 219 346 l 1,137,-1
 219 363 l 1,138,-1
 228 363 l 1,139,-1
 228 381 l 1,140,-1
 237 381 l 1,141,-1
 237 399 l 1,142,-1
 246 399 l 1,143,-1
 246 425 l 1,144,-1
 255 425 l 1,145,-1
 255 443 l 1,146,-1
 264 443 l 1,147,-1
 264 461 l 1,148,-1
 273 461 l 1,149,-1
 273 478 l 1,150,-1
 282 478 l 1,151,-1
 282 496 l 1,152,-1
 290 496 l 1,153,-1
 290 523 l 1,154,-1
 299 523 l 1,155,-1
 299 541 l 1,156,-1
 308 541 l 1,157,-1
 308 558 l 1,158,-1
 317 558 l 1,159,-1
 317 576 l 1,160,-1
 326 576 l 1,161,-1
 326 603 l 1,162,-1
 335 603 l 1,163,-1
 335 620 l 1,164,-1
 344 620 l 1,165,-1
 344 638 l 1,166,-1
 352 638 l 1,167,-1
 352 673 l 1,168,-1
 344 673 l 1,169,-1
 344 700 l 1,0,-1
565 257 m 1,170,-1
 565 266 l 1,171,-1
 556 266 l 1,172,-1
 556 292 l 1,173,-1
 547 292 l 1,174,-1
 547 310 l 1,175,-1
 538 310 l 1,176,-1
 538 328 l 1,177,-1
 530 328 l 1,178,-1
 530 346 l 1,179,-1
 521 346 l 1,180,-1
 521 363 l 1,181,-1
 512 363 l 1,182,-1
 512 390 l 1,183,-1
 503 390 l 1,184,-1
 503 408 l 1,185,-1
 494 408 l 1,186,-1
 494 425 l 1,187,-1
 485 425 l 1,188,-1
 485 443 l 1,189,-1
 476 443 l 1,190,-1
 476 461 l 1,191,-1
 468 461 l 1,192,-1
 468 487 l 1,193,-1
 459 487 l 1,194,-1
 459 505 l 1,195,-1
 450 505 l 1,196,-1
 450 523 l 1,197,-1
 441 523 l 1,198,-1
 441 549 l 1,199,-1
 432 549 l 1,200,-1
 432 541 l 1,201,-1
 423 541 l 1,202,-1
 423 514 l 1,203,-1
 414 514 l 1,204,-1
 414 487 l 1,205,-1
 406 487 l 1,206,-1
 406 470 l 1,207,-1
 397 470 l 1,208,-1
 397 452 l 1,209,-1
 388 452 l 1,210,-1
 388 434 l 1,211,-1
 379 434 l 1,212,-1
 379 408 l 1,213,-1
 370 408 l 1,214,-1
 370 390 l 1,215,-1
 361 390 l 1,216,-1
 361 372 l 1,217,-1
 352 372 l 1,218,-1
 352 346 l 1,219,-1
 344 346 l 1,220,-1
 344 328 l 1,221,-1
 335 328 l 1,222,-1
 335 310 l 1,223,-1
 326 310 l 1,224,-1
 326 292 l 1,225,-1
 317 292 l 1,226,-1
 317 275 l 1,227,-1
 308 275 l 1,228,-1
 308 257 l 1,229,-1
 565 257 l 1,170,-1
EndSplineSet
EndChar

StartChar: B
Encoding: 66 66 35
Width: 804
GlyphClass: 1
Flags: W
LayerCount: 2
Fore
SplineSet
72 700 m 1,0,-1
 533 700 l 1,1,-1
 533 691 l 1,2,-1
 577 691 l 1,3,-1
 577 682 l 1,4,-1
 595 682 l 1,5,-1
 595 673 l 1,6,-1
 613 673 l 1,7,-1
 613 665 l 1,8,-1
 630 665 l 1,9,-1
 630 656 l 1,10,-1
 639 656 l 1,11,-1
 639 647 l 1,12,-1
 648 647 l 1,13,-1
 648 638 l 1,14,-1
 657 638 l 1,15,-1
 657 629 l 1,16,-1
 666 629 l 1,17,-1
 666 611 l 1,18,-1
 675 611 l 1,19,-1
 675 594 l 1,20,-1
 683 594 l 1,21,-1
 683 567 l 1,22,-1
 692 567 l 1,23,-1
 692 505 l 1,24,-1
 683 505 l 1,25,-1
 683 470 l 1,26,-1
 675 470 l 1,27,-1
 675 452 l 1,28,-1
 666 452 l 1,29,-1
 666 434 l 1,30,-1
 657 434 l 1,31,-1
 657 425 l 1,32,-1
 648 425 l 1,33,-1
 648 416 l 1,34,-1
 639 416 l 1,35,-1
 639 408 l 1,36,-1
 630 408 l 1,37,-1
 630 399 l 1,38,-1
 613 399 l 1,39,-1
 613 390 l 1,40,-1
 604 390 l 1,41,-1
 604 381 l 1,42,-1
 595 381 l 1,43,-1
 595 372 l 1,44,-1
 604 372 l 1,45,-1
 604 363 l 1,46,-1
 621 363 l 1,47,-1
 621 354 l 1,48,-1
 639 354 l 1,49,-1
 639 346 l 1,50,-1
 648 346 l 1,51,-1
 648 337 l 1,52,-1
 666 337 l 1,53,-1
 666 328 l 1,54,-1
 675 328 l 1,55,-1
 675 319 l 1,56,-1
 683 319 l 1,57,-1
 683 310 l 1,58,-1
 692 310 l 1,59,-1
 692 292 l 1,60,-1
 701 292 l 1,61,-1
 701 275 l 1,62,-1
 710 275 l 1,63,-1
 710 248 l 1,64,-1
 719 248 l 1,65,-1
 719 133 l 1,66,-1
 710 133 l 1,67,-1
 710 106 l 1,68,-1
 701 106 l 1,69,-1
 701 89 l 1,70,-1
 692 89 l 1,71,-1
 692 80 l 1,72,-1
 683 80 l 1,73,-1
 683 71 l 1,74,-1
 675 71 l 1,75,-1
 675 62 l 1,76,-1
 666 62 l 1,77,-1
 666 53 l 1,78,-1
 657 53 l 1,79,-1
 657 44 l 1,80,-1
 639 44 l 1,81,-1
 639 35 l 1,82,-1
 630 35 l 1,83,-1
 630 27 l 1,84,-1
 604 27 l 1,85,-1
 604 18 l 1,86,-1
 568 18 l 1,87,-1
 568 9 l 1,88,-1
 497 9 l 1,89,-1
 497 0 l 1,90,-1
 72 0 l 1,91,-1
 72 700 l 1,0,-1
515 106 m 1,92,-1
 515 115 l 1,93,-1
 533 115 l 1,94,-1
 533 124 l 1,95,-1
 542 124 l 1,96,-1
 542 133 l 1,97,-1
 550 133 l 1,98,-1
 550 142 l 1,99,-1
 559 142 l 1,100,-1
 559 151 l 1,101,-1
 568 151 l 1,102,-1
 568 168 l 1,103,-1
 577 168 l 1,104,-1
 577 195 l 1,105,-1
 586 195 l 1,106,-1
 586 248 l 1,107,-1
 577 248 l 1,108,-1
 577 266 l 1,109,-1
 568 266 l 1,110,-1
 568 275 l 1,111,-1
 559 275 l 1,112,-1
 559 284 l 1,113,-1
 550 284 l 1,114,-1
 550 292 l 1,115,-1
 542 292 l 1,116,-1
 542 301 l 1,117,-1
 515 301 l 1,118,-1
 515 310 l 1,119,-1
 205 310 l 1,120,-1
 205 106 l 1,121,-1
 515 106 l 1,92,-1
453 408 m 1,122,-1
 453 416 l 1,123,-1
 506 416 l 1,124,-1
 506 425 l 1,125,-1
 524 425 l 1,126,-1
 524 434 l 1,127,-1
 533 434 l 1,128,-1
 533 443 l 1,129,-1
 542 443 l 1,130,-1
 542 452 l 1,131,-1
 550 452 l 1,132,-1
 550 478 l 1,133,-1
 559 478 l 1,134,-1
 559 532 l 1,135,-1
 550 532 l 1,136,-1
 550 558 l 1,137,-1
 542 558 l 1,138,-1
 542 567 l 1,139,-1
 533 567 l 1,140,-1
 533 576 l 1,141,-1
 524 576 l 1,142,-1
 524 585 l 1,143,-1
 506 585 l 1,144,-1
 506 594 l 1,145,-1
 471 594 l 1,146,-1
 471 603 l 1,147,-1
 205 603 l 1,148,-1
 205 408 l 1,149,-1
 453 408 l 1,122,-1
EndSplineSet
EndChar

StartChar: C
Encoding: 67 67 36
Width: 795
GlyphClass: 1
Flags: W
LayerCount: 2
Fore
SplineSet
686 145 m 1,0,-1
 703 145 l 1,1,-1
 703 34 l 1,2,-1
 686 34 l 1,3,-1
 686 26 l 1,4,-1
 652 26 l 1,5,-1
 652 17 l 1,6,-1
 609 17 l 1,7,-1
 609 9 l 1,8,-1
 550 9 l 1,9,-1
 550 0 l 1,10,-1
 379 0 l 1,11,-1
 379 9 l 1,12,-1
 328 9 l 1,13,-1
 328 17 l 1,14,-1
 293 17 l 1,15,-1
 293 26 l 1,16,-1
 268 26 l 1,17,-1
 268 34 l 1,18,-1
 251 34 l 1,19,-1
 251 43 l 1,20,-1
 234 43 l 1,21,-1
 234 51 l 1,22,-1
 217 51 l 1,23,-1
 217 60 l 1,24,-1
 208 60 l 1,25,-1
 208 68 l 1,26,-1
 191 68 l 1,27,-1
 191 77 l 1,28,-1
 182 77 l 1,29,-1
 182 85 l 1,30,-1
 174 85 l 1,31,-1
 174 94 l 1,32,-1
 165 94 l 1,33,-1
 165 102 l 1,34,-1
 157 102 l 1,35,-1
 157 111 l 1,36,-1
 148 111 l 1,37,-1
 148 128 l 1,38,-1
 140 128 l 1,39,-1
 140 137 l 1,40,-1
 131 137 l 1,41,-1
 131 154 l 1,42,-1
 123 154 l 1,43,-1
 123 171 l 1,44,-1
 114 171 l 1,45,-1
 114 188 l 1,46,-1
 106 188 l 1,47,-1
 106 205 l 1,48,-1
 97 205 l 1,49,-1
 97 239 l 1,50,-1
 89 239 l 1,51,-1
 89 299 l 1,52,-1
 80 299 l 1,53,-1
 80 401 l 1,54,-1
 89 401 l 1,55,-1
 89 452 l 1,56,-1
 97 452 l 1,57,-1
 97 487 l 1,58,-1
 106 487 l 1,59,-1
 106 512 l 1,60,-1
 114 512 l 1,61,-1
 114 529 l 1,62,-1
 123 529 l 1,63,-1
 123 546 l 1,64,-1
 131 546 l 1,65,-1
 131 555 l 1,66,-1
 140 555 l 1,67,-1
 140 572 l 1,68,-1
 148 572 l 1,69,-1
 148 580 l 1,70,-1
 157 580 l 1,71,-1
 157 589 l 1,72,-1
 165 589 l 1,73,-1
 165 598 l 1,74,-1
 174 598 l 1,75,-1
 174 606 l 1,76,-1
 182 606 l 1,77,-1
 182 615 l 1,78,-1
 191 615 l 1,79,-1
 191 623 l 1,80,-1
 200 623 l 1,81,-1
 200 632 l 1,82,-1
 217 632 l 1,83,-1
 217 640 l 1,84,-1
 234 640 l 1,85,-1
 234 649 l 1,86,-1
 242 649 l 1,87,-1
 242 657 l 1,88,-1
 259 657 l 1,89,-1
 259 666 l 1,90,-1
 285 666 l 1,91,-1
 285 674 l 1,92,-1
 310 674 l 1,93,-1
 310 683 l 1,94,-1
 345 683 l 1,95,-1
 345 691 l 1,96,-1
 396 691 l 1,97,-1
 396 700 l 1,98,-1
 592 700 l 1,99,-1
 592 691 l 1,100,-1
 643 691 l 1,101,-1
 643 683 l 1,102,-1
 686 683 l 1,103,-1
 686 674 l 1,104,-1
 712 674 l 1,105,-1
 712 555 l 1,106,-1
 703 555 l 1,107,-1
 703 563 l 1,108,-1
 678 563 l 1,109,-1
 678 572 l 1,110,-1
 643 572 l 1,111,-1
 643 580 l 1,112,-1
 601 580 l 1,113,-1
 601 589 l 1,114,-1
 550 589 l 1,115,-1
 550 598 l 1,116,-1
 439 598 l 1,117,-1
 439 589 l 1,118,-1
 379 589 l 1,119,-1
 379 580 l 1,120,-1
 353 580 l 1,121,-1
 353 572 l 1,122,-1
 336 572 l 1,123,-1
 336 563 l 1,124,-1
 319 563 l 1,125,-1
 319 555 l 1,126,-1
 302 555 l 1,127,-1
 302 546 l 1,128,-1
 293 546 l 1,129,-1
 293 538 l 1,130,-1
 276 538 l 1,131,-1
 276 529 l 1,132,-1
 268 529 l 1,133,-1
 268 512 l 1,134,-1
 259 512 l 1,135,-1
 259 504 l 1,136,-1
 251 504 l 1,137,-1
 251 487 l 1,138,-1
 242 487 l 1,139,-1
 242 470 l 1,140,-1
 234 470 l 1,141,-1
 234 452 l 1,142,-1
 225 452 l 1,143,-1
 225 410 l 1,144,-1
 217 410 l 1,145,-1
 217 290 l 1,146,-1
 225 290 l 1,147,-1
 225 248 l 1,148,-1
 234 248 l 1,149,-1
 234 222 l 1,150,-1
 242 222 l 1,151,-1
 242 205 l 1,152,-1
 251 205 l 1,153,-1
 251 196 l 1,154,-1
 259 196 l 1,155,-1
 259 179 l 1,156,-1
 268 179 l 1,157,-1
 268 171 l 1,158,-1
 276 171 l 1,159,-1
 276 162 l 1,160,-1
 285 162 l 1,161,-1
 285 154 l 1,162,-1
 302 154 l 1,163,-1
 302 145 l 1,164,-1
 310 145 l 1,165,-1
 310 137 l 1,166,-1
 328 137 l 1,167,-1
 328 128 l 1,168,-1
 353 128 l 1,169,-1
 353 120 l 1,170,-1
 379 120 l 1,171,-1
 379 111 l 1,172,-1
 439 111 l 1,173,-1
 439 102 l 1,174,-1
 532 102 l 1,175,-1
 532 111 l 1,176,-1
 592 111 l 1,177,-1
 592 120 l 1,178,-1
 626 120 l 1,179,-1
 626 128 l 1,180,-1
 660 128 l 1,181,-1
 660 137 l 1,182,-1
 686 137 l 1,183,-1
 686 145 l 1,0,-1
EndSplineSet
EndChar

StartChar: D
Encoding: 68 68 37
Width: 875
GlyphClass: 1
Flags: W
LayerCount: 2
Fore
SplineSet
72 700 m 1,0,-1
 506 700 l 1,1,-1
 506 691 l 1,2,-1
 550 691 l 1,3,-1
 550 682 l 1,4,-1
 577 682 l 1,5,-1
 577 673 l 1,6,-1
 604 673 l 1,7,-1
 604 665 l 1,8,-1
 621 665 l 1,9,-1
 621 656 l 1,10,-1
 639 656 l 1,11,-1
 639 647 l 1,12,-1
 657 647 l 1,13,-1
 657 638 l 1,14,-1
 675 638 l 1,15,-1
 675 629 l 1,16,-1
 683 629 l 1,17,-1
 683 620 l 1,18,-1
 692 620 l 1,19,-1
 692 611 l 1,20,-1
 701 611 l 1,21,-1
 701 603 l 1,22,-1
 710 603 l 1,23,-1
 710 594 l 1,24,-1
 719 594 l 1,25,-1
 719 585 l 1,26,-1
 728 585 l 1,27,-1
 728 567 l 1,28,-1
 737 567 l 1,29,-1
 737 558 l 1,30,-1
 745 558 l 1,31,-1
 745 541 l 1,32,-1
 754 541 l 1,33,-1
 754 523 l 1,34,-1
 763 523 l 1,35,-1
 763 496 l 1,36,-1
 772 496 l 1,37,-1
 772 470 l 1,38,-1
 781 470 l 1,39,-1
 781 408 l 1,40,-1
 790 408 l 1,41,-1
 790 292 l 1,42,-1
 781 292 l 1,43,-1
 781 248 l 1,44,-1
 772 248 l 1,45,-1
 772 213 l 1,46,-1
 763 213 l 1,47,-1
 763 195 l 1,48,-1
 754 195 l 1,49,-1
 754 168 l 1,50,-1
 745 168 l 1,51,-1
 745 151 l 1,52,-1
 737 151 l 1,53,-1
 737 142 l 1,54,-1
 728 142 l 1,55,-1
 728 124 l 1,56,-1
 719 124 l 1,57,-1
 719 115 l 1,58,-1
 710 115 l 1,59,-1
 710 106 l 1,60,-1
 701 106 l 1,61,-1
 701 97 l 1,62,-1
 692 97 l 1,63,-1
 692 89 l 1,64,-1
 683 89 l 1,65,-1
 683 80 l 1,66,-1
 666 80 l 1,67,-1
 666 71 l 1,68,-1
 657 71 l 1,69,-1
 657 62 l 1,70,-1
 639 62 l 1,71,-1
 639 53 l 1,72,-1
 621 53 l 1,73,-1
 621 44 l 1,74,-1
 604 44 l 1,75,-1
 604 35 l 1,76,-1
 577 35 l 1,77,-1
 577 27 l 1,78,-1
 550 27 l 1,79,-1
 550 18 l 1,80,-1
 497 18 l 1,81,-1
 497 9 l 1,82,-1
 400 9 l 1,83,-1
 400 0 l 1,84,-1
 72 0 l 1,85,-1
 72 700 l 1,0,-1
400 106 m 1,86,-1
 400 115 l 1,87,-1
 480 115 l 1,88,-1
 480 124 l 1,89,-1
 515 124 l 1,90,-1
 515 133 l 1,91,-1
 533 133 l 1,92,-1
 533 142 l 1,93,-1
 550 142 l 1,94,-1
 550 151 l 1,95,-1
 568 151 l 1,96,-1
 568 159 l 1,97,-1
 577 159 l 1,98,-1
 577 168 l 1,99,-1
 586 168 l 1,100,-1
 586 177 l 1,101,-1
 595 177 l 1,102,-1
 595 186 l 1,103,-1
 604 186 l 1,104,-1
 604 195 l 1,105,-1
 613 195 l 1,106,-1
 613 204 l 1,107,-1
 621 204 l 1,108,-1
 621 222 l 1,109,-1
 630 222 l 1,110,-1
 630 248 l 1,111,-1
 639 248 l 1,112,-1
 639 284 l 1,113,-1
 648 284 l 1,114,-1
 648 416 l 1,115,-1
 639 416 l 1,116,-1
 639 461 l 1,117,-1
 630 461 l 1,118,-1
 630 478 l 1,119,-1
 621 478 l 1,120,-1
 621 496 l 1,121,-1
 613 496 l 1,122,-1
 613 514 l 1,123,-1
 604 514 l 1,124,-1
 604 523 l 1,125,-1
 595 523 l 1,126,-1
 595 532 l 1,127,-1
 586 532 l 1,128,-1
 586 541 l 1,129,-1
 577 541 l 1,130,-1
 577 549 l 1,131,-1
 568 549 l 1,132,-1
 568 558 l 1,133,-1
 550 558 l 1,134,-1
 550 567 l 1,135,-1
 533 567 l 1,136,-1
 533 576 l 1,137,-1
 506 576 l 1,138,-1
 506 585 l 1,139,-1
 480 585 l 1,140,-1
 480 594 l 1,141,-1
 205 594 l 1,142,-1
 205 115 l 1,143,-1
 267 115 l 1,144,-1
 267 106 l 1,145,-1
 400 106 l 1,86,-1
EndSplineSet
EndChar

StartChar: E
Encoding: 69 69 38
Width: 698
GlyphClass: 1
Flags: W
LayerCount: 2
Fore
SplineSet
72 700 m 1,0,-1
 595 700 l 1,1,-1
 595 594 l 1,2,-1
 205 594 l 1,3,-1
 205 408 l 1,4,-1
 550 408 l 1,5,-1
 550 310 l 1,6,-1
 542 310 l 1,7,-1
 542 301 l 1,8,-1
 205 301 l 1,9,-1
 205 106 l 1,10,-1
 613 106 l 1,11,-1
 613 0 l 1,12,-1
 568 0 l 1,13,-1
 568 9 l 1,14,-1
 391 9 l 1,15,-1
 391 0 l 1,16,-1
 373 0 l 1,17,-1
 373 9 l 1,18,-1
 294 9 l 1,19,-1
 294 0 l 1,20,-1
 72 0 l 1,21,-1
 72 700 l 1,0,-1
EndSplineSet
EndChar

StartChar: F
Encoding: 70 70 39
Width: 671
GlyphClass: 1
Flags: W
LayerCount: 2
Fore
SplineSet
72 700 m 1,0,-1
 586 700 l 1,1,-1
 586 594 l 1,2,-1
 214 594 l 1,3,-1
 214 585 l 1,4,-1
 214 390 l 1,5,-1
 533 390 l 1,6,-1
 533 284 l 1,7,-1
 214 284 l 1,8,-1
 214 0 l 1,9,-1
 81 0 l 1,10,-1
 81 9 l 1,11,-1
 72 9 l 1,12,-1
 72 18 l 1,13,-1
 81 18 l 1,14,-1
 81 691 l 1,15,-1
 72 691 l 1,16,-1
 72 700 l 1,0,-1
EndSplineSet
EndChar

StartChar: G
Encoding: 71 71 40
Width: 829
GlyphClass: 1
Flags: W
LayerCount: 2
Fore
SplineSet
447 384 m 1,0,-1
 746 384 l 1,1,-1
 746 43 l 1,2,-1
 729 43 l 1,3,-1
 729 34 l 1,4,-1
 703 34 l 1,5,-1
 703 26 l 1,6,-1
 669 26 l 1,7,-1
 669 17 l 1,8,-1
 618 17 l 1,9,-1
 618 9 l 1,10,-1
 567 9 l 1,11,-1
 567 0 l 1,12,-1
 379 0 l 1,13,-1
 379 9 l 1,14,-1
 328 9 l 1,15,-1
 328 17 l 1,16,-1
 302 17 l 1,17,-1
 302 26 l 1,18,-1
 276 26 l 1,19,-1
 276 34 l 1,20,-1
 259 34 l 1,21,-1
 259 43 l 1,22,-1
 242 43 l 1,23,-1
 242 51 l 1,24,-1
 225 51 l 1,25,-1
 225 60 l 1,26,-1
 208 60 l 1,27,-1
 208 68 l 1,28,-1
 200 68 l 1,29,-1
 200 77 l 1,30,-1
 191 77 l 1,31,-1
 191 85 l 1,32,-1
 182 85 l 1,33,-1
 182 94 l 1,34,-1
 174 94 l 1,35,-1
 174 102 l 1,36,-1
 165 102 l 1,37,-1
 165 111 l 1,38,-1
 157 111 l 1,39,-1
 157 120 l 1,40,-1
 148 120 l 1,41,-1
 148 128 l 1,42,-1
 140 128 l 1,43,-1
 140 137 l 1,44,-1
 131 137 l 1,45,-1
 131 154 l 1,46,-1
 123 154 l 1,47,-1
 123 171 l 1,48,-1
 114 171 l 1,49,-1
 114 188 l 1,50,-1
 106 188 l 1,51,-1
 106 205 l 1,52,-1
 97 205 l 1,53,-1
 97 239 l 1,54,-1
 89 239 l 1,55,-1
 89 273 l 1,56,-1
 80 273 l 1,57,-1
 80 435 l 1,58,-1
 89 435 l 1,59,-1
 89 470 l 1,60,-1
 97 470 l 1,61,-1
 97 495 l 1,62,-1
 106 495 l 1,63,-1
 106 521 l 1,64,-1
 114 521 l 1,65,-1
 114 538 l 1,66,-1
 123 538 l 1,67,-1
 123 555 l 1,68,-1
 131 555 l 1,69,-1
 131 563 l 1,70,-1
 140 563 l 1,71,-1
 140 580 l 1,72,-1
 148 580 l 1,73,-1
 148 589 l 1,74,-1
 157 589 l 1,75,-1
 157 598 l 1,76,-1
 165 598 l 1,77,-1
 165 606 l 1,78,-1
 174 606 l 1,79,-1
 174 615 l 1,80,-1
 182 615 l 1,81,-1
 182 623 l 1,82,-1
 191 623 l 1,83,-1
 191 632 l 1,84,-1
 208 632 l 1,85,-1
 208 640 l 1,86,-1
 217 640 l 1,87,-1
 217 649 l 1,88,-1
 234 649 l 1,89,-1
 234 657 l 1,90,-1
 251 657 l 1,91,-1
 251 666 l 1,92,-1
 268 666 l 1,93,-1
 268 674 l 1,94,-1
 293 674 l 1,95,-1
 293 683 l 1,96,-1
 328 683 l 1,97,-1
 328 691 l 1,98,-1
 370 691 l 1,99,-1
 370 700 l 1,100,-1
 592 700 l 1,101,-1
 592 691 l 1,102,-1
 635 691 l 1,103,-1
 635 683 l 1,104,-1
 678 683 l 1,105,-1
 678 674 l 1,106,-1
 712 674 l 1,107,-1
 712 666 l 1,108,-1
 729 666 l 1,109,-1
 729 555 l 1,110,-1
 712 555 l 1,111,-1
 712 563 l 1,112,-1
 678 563 l 1,113,-1
 678 572 l 1,114,-1
 652 572 l 1,115,-1
 652 580 l 1,116,-1
 609 580 l 1,117,-1
 609 589 l 1,118,-1
 558 589 l 1,119,-1
 558 598 l 1,120,-1
 413 598 l 1,121,-1
 413 589 l 1,122,-1
 370 589 l 1,123,-1
 370 580 l 1,124,-1
 345 580 l 1,125,-1
 345 572 l 1,126,-1
 319 572 l 1,127,-1
 319 563 l 1,128,-1
 310 563 l 1,129,-1
 310 555 l 1,130,-1
 293 555 l 1,131,-1
 293 546 l 1,132,-1
 285 546 l 1,133,-1
 285 538 l 1,134,-1
 276 538 l 1,135,-1
 276 529 l 1,136,-1
 268 529 l 1,137,-1
 268 521 l 1,138,-1
 259 521 l 1,139,-1
 259 512 l 1,140,-1
 251 512 l 1,141,-1
 251 495 l 1,142,-1
 242 495 l 1,143,-1
 242 487 l 1,144,-1
 234 487 l 1,145,-1
 234 461 l 1,146,-1
 225 461 l 1,147,-1
 225 427 l 1,148,-1
 217 427 l 1,149,-1
 217 290 l 1,150,-1
 225 290 l 1,151,-1
 225 248 l 1,152,-1
 234 248 l 1,153,-1
 234 230 l 1,154,-1
 242 230 l 1,155,-1
 242 213 l 1,156,-1
 251 213 l 1,157,-1
 251 196 l 1,158,-1
 259 196 l 1,159,-1
 259 179 l 1,160,-1
 268 179 l 1,161,-1
 268 171 l 1,162,-1
 276 171 l 1,163,-1
 276 162 l 1,164,-1
 285 162 l 1,165,-1
 285 154 l 1,166,-1
 293 154 l 1,167,-1
 293 145 l 1,168,-1
 310 145 l 1,169,-1
 310 137 l 1,170,-1
 328 137 l 1,171,-1
 328 128 l 1,172,-1
 345 128 l 1,173,-1
 345 120 l 1,174,-1
 370 120 l 1,175,-1
 370 111 l 1,176,-1
 413 111 l 1,177,-1
 413 102 l 1,178,-1
 541 102 l 1,179,-1
 541 111 l 1,180,-1
 584 111 l 1,181,-1
 584 120 l 1,182,-1
 609 120 l 1,183,-1
 609 282 l 1,184,-1
 447 282 l 1,185,-1
 447 384 l 1,0,-1
EndSplineSet
EndChar

StartChar: H
Encoding: 72 72 41
Width: 840
GlyphClass: 1
Flags: W
LayerCount: 2
Fore
SplineSet
613 700 m 1,0,-1
 745 700 l 1,1,-1
 745 18 l 1,2,-1
 754 18 l 1,3,-1
 754 9 l 1,4,-1
 745 9 l 1,5,-1
 745 0 l 1,6,-1
 737 0 l 1,7,-1
 737 9 l 1,8,-1
 728 9 l 1,9,-1
 728 0 l 1,10,-1
 613 0 l 1,11,-1
 613 301 l 1,12,-1
 214 301 l 1,13,-1
 214 0 l 1,14,-1
 205 0 l 1,15,-1
 205 9 l 1,16,-1
 196 9 l 1,17,-1
 196 0 l 1,18,-1
 152 0 l 1,19,-1
 152 9 l 1,20,-1
 143 9 l 1,21,-1
 143 0 l 1,22,-1
 81 0 l 1,23,-1
 81 9 l 1,24,-1
 72 9 l 1,25,-1
 72 700 l 1,26,-1
 214 700 l 1,27,-1
 214 408 l 1,28,-1
 613 408 l 1,29,-1
 613 700 l 1,0,-1
EndSplineSet
EndChar

StartChar: I
Encoding: 73 73 42
Width: 616
GlyphClass: 1
Flags: W
LayerCount: 2
Fore
SplineSet
257 700 m 1,0,-1
 399 700 l 1,1,-1
 399 691 l 1,2,-1
 390 691 l 1,3,-1
 390 638 l 1,4,-1
 399 638 l 1,5,-1
 399 585 l 1,6,-1
 390 585 l 1,7,-1
 390 567 l 1,8,-1
 399 567 l 1,9,-1
 399 301 l 1,10,-1
 390 301 l 1,11,-1
 390 266 l 1,12,-1
 399 266 l 1,13,-1
 399 248 l 1,14,-1
 390 248 l 1,15,-1
 390 230 l 1,16,-1
 399 230 l 1,17,-1
 399 222 l 1,18,-1
 390 222 l 1,19,-1
 390 213 l 1,20,-1
 399 213 l 1,21,-1
 399 159 l 1,22,-1
 390 159 l 1,23,-1
 390 35 l 1,24,-1
 399 35 l 1,25,-1
 399 27 l 1,26,-1
 390 27 l 1,27,-1
 390 18 l 1,28,-1
 399 18 l 1,29,-1
 399 9 l 1,30,-1
 390 9 l 1,31,-1
 390 0 l 1,32,-1
 266 0 l 1,33,-1
 266 9 l 1,34,-1
 257 9 l 1,35,-1
 257 700 l 1,0,-1
EndSplineSet
EndChar

StartChar: J
Encoding: 74 74 43
Width: 605
GlyphClass: 1
Flags: W
LayerCount: 2
Fore
SplineSet
60 158 m 1,0,-1
 78 158 l 1,1,-1
 78 149 l 1,2,-1
 95 149 l 1,3,-1
 95 140 l 1,4,-1
 112 140 l 1,5,-1
 112 131 l 1,6,-1
 139 131 l 1,7,-1
 139 122 l 1,8,-1
 174 122 l 1,9,-1
 174 114 l 1,10,-1
 331 114 l 1,11,-1
 331 122 l 1,12,-1
 349 122 l 1,13,-1
 349 131 l 1,14,-1
 366 131 l 1,15,-1
 366 140 l 1,16,-1
 375 140 l 1,17,-1
 375 149 l 1,18,-1
 384 149 l 1,19,-1
 384 158 l 1,20,-1
 392 158 l 1,21,-1
 392 184 l 1,22,-1
 401 184 l 1,23,-1
 401 210 l 1,24,-1
 410 210 l 1,25,-1
 410 700 l 1,26,-1
 541 700 l 1,27,-1
 541 184 l 1,28,-1
 532 184 l 1,29,-1
 532 149 l 1,30,-1
 524 149 l 1,31,-1
 524 122 l 1,32,-1
 515 122 l 1,33,-1
 515 105 l 1,34,-1
 506 105 l 1,35,-1
 506 88 l 1,36,-1
 498 88 l 1,37,-1
 498 79 l 1,38,-1
 489 79 l 1,39,-1
 489 70 l 1,40,-1
 480 70 l 1,41,-1
 480 61 l 1,42,-1
 471 61 l 1,43,-1
 471 52 l 1,44,-1
 462 52 l 1,45,-1
 462 44 l 1,46,-1
 445 44 l 1,47,-1
 445 35 l 1,48,-1
 428 35 l 1,49,-1
 428 26 l 1,50,-1
 410 26 l 1,51,-1
 410 18 l 1,52,-1
 384 18 l 1,53,-1
 384 9 l 1,54,-1
 331 9 l 1,55,-1
 331 0 l 1,56,-1
 209 0 l 1,57,-1
 209 9 l 1,58,-1
 148 9 l 1,59,-1
 148 18 l 1,60,-1
 112 18 l 1,61,-1
 112 26 l 1,62,-1
 86 26 l 1,63,-1
 86 35 l 1,64,-1
 60 35 l 1,65,-1
 60 158 l 1,0,-1
EndSplineSet
EndChar

StartChar: K
Encoding: 75 75 44
Width: 822
GlyphClass: 1
Flags: W
LayerCount: 2
Fore
SplineSet
550 700 m 1,0,-1
 728 700 l 1,1,-1
 728 691 l 1,2,-1
 719 691 l 1,3,-1
 719 682 l 1,4,-1
 710 682 l 1,5,-1
 710 673 l 1,6,-1
 701 673 l 1,7,-1
 701 665 l 1,8,-1
 683 665 l 1,9,-1
 683 656 l 1,10,-1
 675 656 l 1,11,-1
 675 647 l 1,12,-1
 666 647 l 1,13,-1
 666 638 l 1,14,-1
 657 638 l 1,15,-1
 657 629 l 1,16,-1
 639 629 l 1,17,-1
 639 620 l 1,18,-1
 630 620 l 1,19,-1
 630 611 l 1,20,-1
 621 611 l 1,21,-1
 621 603 l 1,22,-1
 613 603 l 1,23,-1
 613 594 l 1,24,-1
 595 594 l 1,25,-1
 595 585 l 1,26,-1
 586 585 l 1,27,-1
 586 576 l 1,28,-1
 577 576 l 1,29,-1
 577 567 l 1,30,-1
 568 567 l 1,31,-1
 568 558 l 1,32,-1
 559 558 l 1,33,-1
 559 549 l 1,34,-1
 550 549 l 1,35,-1
 550 541 l 1,36,-1
 533 541 l 1,37,-1
 533 532 l 1,38,-1
 524 532 l 1,39,-1
 524 523 l 1,40,-1
 515 523 l 1,41,-1
 515 514 l 1,42,-1
 506 514 l 1,43,-1
 506 505 l 1,44,-1
 497 505 l 1,45,-1
 497 496 l 1,46,-1
 488 496 l 1,47,-1
 488 487 l 1,48,-1
 471 487 l 1,49,-1
 471 478 l 1,50,-1
 462 478 l 1,51,-1
 462 470 l 1,52,-1
 453 470 l 1,53,-1
 453 461 l 1,54,-1
 444 461 l 1,55,-1
 444 452 l 1,56,-1
 426 452 l 1,57,-1
 426 443 l 1,58,-1
 418 443 l 1,59,-1
 418 434 l 1,60,-1
 409 434 l 1,61,-1
 409 425 l 1,62,-1
 400 425 l 1,63,-1
 400 416 l 1,64,-1
 391 416 l 1,65,-1
 391 408 l 1,66,-1
 382 408 l 1,67,-1
 382 390 l 1,68,-1
 391 390 l 1,69,-1
 391 381 l 1,70,-1
 400 381 l 1,71,-1
 400 372 l 1,72,-1
 409 372 l 1,73,-1
 409 363 l 1,74,-1
 418 363 l 1,75,-1
 418 354 l 1,76,-1
 426 354 l 1,77,-1
 426 337 l 1,78,-1
 435 337 l 1,79,-1
 435 328 l 1,80,-1
 444 328 l 1,81,-1
 444 319 l 1,82,-1
 453 319 l 1,83,-1
 453 310 l 1,84,-1
 462 310 l 1,85,-1
 462 301 l 1,86,-1
 471 301 l 1,87,-1
 471 292 l 1,88,-1
 480 292 l 1,89,-1
 480 284 l 1,90,-1
 488 284 l 1,91,-1
 488 275 l 1,92,-1
 497 275 l 1,93,-1
 497 266 l 1,94,-1
 506 266 l 1,95,-1
 506 257 l 1,96,-1
 515 257 l 1,97,-1
 515 248 l 1,98,-1
 524 248 l 1,99,-1
 524 239 l 1,100,-1
 533 239 l 1,101,-1
 533 230 l 1,102,-1
 542 230 l 1,103,-1
 542 222 l 1,104,-1
 550 222 l 1,105,-1
 550 204 l 1,106,-1
 559 204 l 1,107,-1
 559 195 l 1,108,-1
 568 195 l 1,109,-1
 568 186 l 1,110,-1
 577 186 l 1,111,-1
 577 177 l 1,112,-1
 586 177 l 1,113,-1
 586 168 l 1,114,-1
 595 168 l 1,115,-1
 595 159 l 1,116,-1
 604 159 l 1,117,-1
 604 151 l 1,118,-1
 613 151 l 1,119,-1
 613 142 l 1,120,-1
 621 142 l 1,121,-1
 621 133 l 1,122,-1
 630 133 l 1,123,-1
 630 124 l 1,124,-1
 639 124 l 1,125,-1
 639 115 l 1,126,-1
 648 115 l 1,127,-1
 648 106 l 1,128,-1
 657 106 l 1,129,-1
 657 97 l 1,130,-1
 666 97 l 1,131,-1
 666 89 l 1,132,-1
 675 89 l 1,133,-1
 675 80 l 1,134,-1
 683 80 l 1,135,-1
 683 62 l 1,136,-1
 692 62 l 1,137,-1
 692 53 l 1,138,-1
 701 53 l 1,139,-1
 701 44 l 1,140,-1
 710 44 l 1,141,-1
 710 35 l 1,142,-1
 719 35 l 1,143,-1
 719 27 l 1,144,-1
 728 27 l 1,145,-1
 728 18 l 1,146,-1
 737 18 l 1,147,-1
 737 0 l 1,148,-1
 728 0 l 1,149,-1
 728 9 l 1,150,-1
 710 9 l 1,151,-1
 710 0 l 1,152,-1
 675 0 l 1,153,-1
 675 9 l 1,154,-1
 666 9 l 1,155,-1
 666 0 l 1,156,-1
 577 0 l 1,157,-1
 577 9 l 1,158,-1
 559 9 l 1,159,-1
 559 27 l 1,160,-1
 550 27 l 1,161,-1
 550 35 l 1,162,-1
 542 35 l 1,163,-1
 542 44 l 1,164,-1
 533 44 l 1,165,-1
 533 53 l 1,166,-1
 524 53 l 1,167,-1
 524 62 l 1,168,-1
 515 62 l 1,169,-1
 515 71 l 1,170,-1
 506 71 l 1,171,-1
 506 80 l 1,172,-1
 497 80 l 1,173,-1
 497 89 l 1,174,-1
 488 89 l 1,175,-1
 488 97 l 1,176,-1
 480 97 l 1,177,-1
 480 106 l 1,178,-1
 471 106 l 1,179,-1
 471 124 l 1,180,-1
 462 124 l 1,181,-1
 462 133 l 1,182,-1
 453 133 l 1,183,-1
 453 142 l 1,184,-1
 444 142 l 1,185,-1
 444 151 l 1,186,-1
 435 151 l 1,187,-1
 435 159 l 1,188,-1
 426 159 l 1,189,-1
 426 168 l 1,190,-1
 418 168 l 1,191,-1
 418 177 l 1,192,-1
 409 177 l 1,193,-1
 409 186 l 1,194,-1
 400 186 l 1,195,-1
 400 195 l 1,196,-1
 391 195 l 1,197,-1
 391 204 l 1,198,-1
 382 204 l 1,199,-1
 382 213 l 1,200,-1
 373 213 l 1,201,-1
 373 222 l 1,202,-1
 364 222 l 1,203,-1
 364 230 l 1,204,-1
 356 230 l 1,205,-1
 356 248 l 1,206,-1
 347 248 l 1,207,-1
 347 257 l 1,208,-1
 338 257 l 1,209,-1
 338 266 l 1,210,-1
 329 266 l 1,211,-1
 329 275 l 1,212,-1
 320 275 l 1,213,-1
 320 284 l 1,214,-1
 311 284 l 1,215,-1
 311 292 l 1,216,-1
 302 292 l 1,217,-1
 302 301 l 1,218,-1
 294 301 l 1,219,-1
 294 310 l 1,220,-1
 285 310 l 1,221,-1
 285 319 l 1,222,-1
 276 319 l 1,223,-1
 276 310 l 1,224,-1
 267 310 l 1,225,-1
 267 301 l 1,226,-1
 258 301 l 1,227,-1
 258 292 l 1,228,-1
 249 292 l 1,229,-1
 249 284 l 1,230,-1
 231 284 l 1,231,-1
 231 275 l 1,232,-1
 223 275 l 1,233,-1
 223 266 l 1,234,-1
 214 266 l 1,235,-1
 214 0 l 1,236,-1
 72 0 l 1,237,-1
 72 700 l 1,238,-1
 214 700 l 1,239,-1
 214 416 l 1,240,-1
 223 416 l 1,241,-1
 223 425 l 1,242,-1
 240 425 l 1,243,-1
 240 434 l 1,244,-1
 249 434 l 1,245,-1
 249 443 l 1,246,-1
 258 443 l 1,247,-1
 258 452 l 1,248,-1
 267 452 l 1,249,-1
 267 461 l 1,250,-1
 276 461 l 1,251,-1
 276 470 l 1,252,-1
 285 470 l 1,253,-1
 285 478 l 1,254,-1
 302 478 l 1,255,-1
 302 487 l 1,256,-1
 311 487 l 1,257,-1
 311 496 l 1,258,-1
 320 496 l 1,259,-1
 320 505 l 1,260,-1
 329 505 l 1,261,-1
 329 514 l 1,262,-1
 338 514 l 1,263,-1
 338 523 l 1,264,-1
 356 523 l 1,265,-1
 356 532 l 1,266,-1
 364 532 l 1,267,-1
 364 541 l 1,268,-1
 373 541 l 1,269,-1
 373 549 l 1,270,-1
 382 549 l 1,271,-1
 382 558 l 1,272,-1
 391 558 l 1,273,-1
 391 567 l 1,274,-1
 409 567 l 1,275,-1
 409 576 l 1,276,-1
 418 576 l 1,277,-1
 418 585 l 1,278,-1
 426 585 l 1,279,-1
 426 594 l 1,280,-1
 435 594 l 1,281,-1
 435 603 l 1,282,-1
 444 603 l 1,283,-1
 444 611 l 1,284,-1
 453 611 l 1,285,-1
 453 620 l 1,286,-1
 462 620 l 1,287,-1
 462 629 l 1,288,-1
 480 629 l 1,289,-1
 480 638 l 1,290,-1
 488 638 l 1,291,-1
 488 647 l 1,292,-1
 497 647 l 1,293,-1
 497 656 l 1,294,-1
 506 656 l 1,295,-1
 506 665 l 1,296,-1
 515 665 l 1,297,-1
 515 673 l 1,298,-1
 533 673 l 1,299,-1
 533 682 l 1,300,-1
 542 682 l 1,301,-1
 542 691 l 1,302,-1
 550 691 l 1,303,-1
 550 700 l 1,0,-1
EndSplineSet
EndChar

StartChar: L
Encoding: 76 76 45
Width: 646
GlyphClass: 1
Flags: W
LayerCount: 2
Fore
SplineSet
60 700 m 1,0,-1
 193 700 l 1,1,-1
 193 115 l 1,2,-1
 574 115 l 1,3,-1
 574 106 l 1,4,-1
 583 106 l 1,5,-1
 583 97 l 1,6,-1
 574 97 l 1,7,-1
 574 89 l 1,8,-1
 583 89 l 1,9,-1
 583 27 l 1,10,-1
 574 27 l 1,11,-1
 574 18 l 1,12,-1
 583 18 l 1,13,-1
 583 9 l 1,14,-1
 574 9 l 1,15,-1
 574 0 l 1,16,-1
 565 0 l 1,17,-1
 565 9 l 1,18,-1
 556 9 l 1,19,-1
 556 0 l 1,20,-1
 423 0 l 1,21,-1
 423 9 l 1,22,-1
 104 9 l 1,23,-1
 104 0 l 1,24,-1
 60 0 l 1,25,-1
 60 700 l 1,0,-1
EndSplineSet
EndChar

StartChar: M
Encoding: 77 77 46
Width: 1126
GlyphClass: 1
Flags: W
LayerCount: 2
Fore
SplineSet
767 700 m 1,0,-1
 956 700 l 1,1,-1
 956 673 l 1,2,-1
 964 673 l 1,3,-1
 964 592 l 1,4,-1
 973 592 l 1,5,-1
 973 494 l 1,6,-1
 982 494 l 1,7,-1
 982 422 l 1,8,-1
 991 422 l 1,9,-1
 991 341 l 1,10,-1
 1000 341 l 1,11,-1
 1000 269 l 1,12,-1
 1009 269 l 1,13,-1
 1009 197 l 1,14,-1
 1018 197 l 1,15,-1
 1018 126 l 1,16,-1
 1027 126 l 1,17,-1
 1027 54 l 1,18,-1
 1036 54 l 1,19,-1
 1036 0 l 1,20,-1
 893 0 l 1,21,-1
 893 63 l 1,22,-1
 884 63 l 1,23,-1
 884 144 l 1,24,-1
 875 144 l 1,25,-1
 875 233 l 1,26,-1
 866 233 l 1,27,-1
 866 314 l 1,28,-1
 857 314 l 1,29,-1
 857 404 l 1,30,-1
 848 404 l 1,31,-1
 848 476 l 1,32,-1
 839 476 l 1,33,-1
 839 574 l 1,34,-1
 830 574 l 1,35,-1
 830 547 l 1,36,-1
 821 547 l 1,37,-1
 821 529 l 1,38,-1
 812 529 l 1,39,-1
 812 503 l 1,40,-1
 803 503 l 1,41,-1
 803 476 l 1,42,-1
 794 476 l 1,43,-1
 794 458 l 1,44,-1
 785 458 l 1,45,-1
 785 431 l 1,46,-1
 776 431 l 1,47,-1
 776 413 l 1,48,-1
 767 413 l 1,49,-1
 767 386 l 1,50,-1
 758 386 l 1,51,-1
 758 368 l 1,52,-1
 749 368 l 1,53,-1
 749 341 l 1,54,-1
 740 341 l 1,55,-1
 740 323 l 1,56,-1
 731 323 l 1,57,-1
 731 296 l 1,58,-1
 722 296 l 1,59,-1
 722 269 l 1,60,-1
 713 269 l 1,61,-1
 713 251 l 1,62,-1
 704 251 l 1,63,-1
 704 224 l 1,64,-1
 695 224 l 1,65,-1
 695 197 l 1,66,-1
 686 197 l 1,67,-1
 686 179 l 1,68,-1
 677 179 l 1,69,-1
 677 153 l 1,70,-1
 668 153 l 1,71,-1
 668 126 l 1,72,-1
 659 126 l 1,73,-1
 659 108 l 1,74,-1
 650 108 l 1,75,-1
 650 81 l 1,76,-1
 641 81 l 1,77,-1
 641 54 l 1,78,-1
 632 54 l 1,79,-1
 632 36 l 1,80,-1
 623 36 l 1,81,-1
 623 9 l 1,82,-1
 614 9 l 1,83,-1
 614 0 l 1,84,-1
 507 0 l 1,85,-1
 507 18 l 1,86,-1
 498 18 l 1,87,-1
 498 45 l 1,88,-1
 489 45 l 1,89,-1
 489 63 l 1,90,-1
 480 63 l 1,91,-1
 480 90 l 1,92,-1
 471 90 l 1,93,-1
 471 108 l 1,94,-1
 462 108 l 1,95,-1
 462 135 l 1,96,-1
 453 135 l 1,97,-1
 453 153 l 1,98,-1
 444 153 l 1,99,-1
 444 179 l 1,100,-1
 435 179 l 1,101,-1
 435 197 l 1,102,-1
 426 197 l 1,103,-1
 426 215 l 1,104,-1
 417 215 l 1,105,-1
 417 242 l 1,106,-1
 408 242 l 1,107,-1
 408 260 l 1,108,-1
 399 260 l 1,109,-1
 399 287 l 1,110,-1
 390 287 l 1,111,-1
 390 305 l 1,112,-1
 381 305 l 1,113,-1
 381 332 l 1,114,-1
 372 332 l 1,115,-1
 372 350 l 1,116,-1
 363 350 l 1,117,-1
 363 368 l 1,118,-1
 354 368 l 1,119,-1
 354 395 l 1,120,-1
 345 395 l 1,121,-1
 345 413 l 1,122,-1
 336 413 l 1,123,-1
 336 431 l 1,124,-1
 327 431 l 1,125,-1
 327 458 l 1,126,-1
 318 458 l 1,127,-1
 318 476 l 1,128,-1
 309 476 l 1,129,-1
 309 503 l 1,130,-1
 300 503 l 1,131,-1
 300 521 l 1,132,-1
 291 521 l 1,133,-1
 291 538 l 1,134,-1
 282 538 l 1,135,-1
 282 547 l 1,136,-1
 273 547 l 1,137,-1
 273 476 l 1,138,-1
 264 476 l 1,139,-1
 264 422 l 1,140,-1
 256 422 l 1,141,-1
 256 359 l 1,142,-1
 247 359 l 1,143,-1
 247 305 l 1,144,-1
 238 305 l 1,145,-1
 238 233 l 1,146,-1
 229 233 l 1,147,-1
 229 162 l 1,148,-1
 220 162 l 1,149,-1
 220 108 l 1,150,-1
 211 108 l 1,151,-1
 211 45 l 1,152,-1
 202 45 l 1,153,-1
 202 0 l 1,154,-1
 85 0 l 1,155,-1
 85 45 l 1,156,-1
 94 45 l 1,157,-1
 94 99 l 1,158,-1
 103 99 l 1,159,-1
 103 153 l 1,160,-1
 112 153 l 1,161,-1
 112 215 l 1,162,-1
 121 215 l 1,163,-1
 121 269 l 1,164,-1
 130 269 l 1,165,-1
 130 323 l 1,166,-1
 139 323 l 1,167,-1
 139 377 l 1,168,-1
 148 377 l 1,169,-1
 148 431 l 1,170,-1
 157 431 l 1,171,-1
 157 485 l 1,172,-1
 166 485 l 1,173,-1
 166 538 l 1,174,-1
 175 538 l 1,175,-1
 175 601 l 1,176,-1
 184 601 l 1,177,-1
 184 673 l 1,178,-1
 175 673 l 1,179,-1
 175 700 l 1,180,-1
 363 700 l 1,181,-1
 363 682 l 1,182,-1
 372 682 l 1,183,-1
 372 655 l 1,184,-1
 381 655 l 1,185,-1
 381 637 l 1,186,-1
 390 637 l 1,187,-1
 390 610 l 1,188,-1
 399 610 l 1,189,-1
 399 592 l 1,190,-1
 408 592 l 1,191,-1
 408 574 l 1,192,-1
 417 574 l 1,193,-1
 417 547 l 1,194,-1
 426 547 l 1,195,-1
 426 529 l 1,196,-1
 435 529 l 1,197,-1
 435 503 l 1,198,-1
 444 503 l 1,199,-1
 444 485 l 1,200,-1
 453 485 l 1,201,-1
 453 467 l 1,202,-1
 462 467 l 1,203,-1
 462 440 l 1,204,-1
 471 440 l 1,205,-1
 471 422 l 1,206,-1
 480 422 l 1,207,-1
 480 395 l 1,208,-1
 489 395 l 1,209,-1
 489 377 l 1,210,-1
 498 377 l 1,211,-1
 498 359 l 1,212,-1
 507 359 l 1,213,-1
 507 332 l 1,214,-1
 516 332 l 1,215,-1
 516 314 l 1,216,-1
 525 314 l 1,217,-1
 525 287 l 1,218,-1
 534 287 l 1,219,-1
 534 269 l 1,220,-1
 543 269 l 1,221,-1
 543 242 l 1,222,-1
 552 242 l 1,223,-1
 552 215 l 1,224,-1
 561 215 l 1,225,-1
 561 197 l 1,226,-1
 570 197 l 1,227,-1
 570 188 l 1,228,-1
 579 188 l 1,229,-1
 579 215 l 1,230,-1
 588 215 l 1,231,-1
 588 233 l 1,232,-1
 597 233 l 1,233,-1
 597 260 l 1,234,-1
 606 260 l 1,235,-1
 606 278 l 1,236,-1
 614 278 l 1,237,-1
 614 305 l 1,238,-1
 623 305 l 1,239,-1
 623 323 l 1,240,-1
 632 323 l 1,241,-1
 632 350 l 1,242,-1
 641 350 l 1,243,-1
 641 377 l 1,244,-1
 650 377 l 1,245,-1
 650 395 l 1,246,-1
 659 395 l 1,247,-1
 659 422 l 1,248,-1
 668 422 l 1,249,-1
 668 440 l 1,250,-1
 677 440 l 1,251,-1
 677 467 l 1,252,-1
 686 467 l 1,253,-1
 686 485 l 1,254,-1
 695 485 l 1,255,-1
 695 512 l 1,256,-1
 704 512 l 1,257,-1
 704 538 l 1,258,-1
 713 538 l 1,259,-1
 713 556 l 1,260,-1
 722 556 l 1,261,-1
 722 583 l 1,262,-1
 731 583 l 1,263,-1
 731 610 l 1,264,-1
 740 610 l 1,265,-1
 740 628 l 1,266,-1
 749 628 l 1,267,-1
 749 655 l 1,268,-1
 758 655 l 1,269,-1
 758 682 l 1,270,-1
 767 682 l 1,271,-1
 767 700 l 1,0,-1
EndSplineSet
EndChar

StartChar: N
Encoding: 78 78 47
Width: 804
GlyphClass: 1
Flags: W
LayerCount: 2
Fore
SplineSet
595 700 m 1,0,-1
 719 700 l 1,1,-1
 719 0 l 1,2,-1
 710 0 l 1,3,-1
 710 9 l 1,4,-1
 586 9 l 1,5,-1
 586 27 l 1,6,-1
 577 27 l 1,7,-1
 577 35 l 1,8,-1
 568 35 l 1,9,-1
 568 44 l 1,10,-1
 559 44 l 1,11,-1
 559 53 l 1,12,-1
 550 53 l 1,13,-1
 550 62 l 1,14,-1
 542 62 l 1,15,-1
 542 80 l 1,16,-1
 533 80 l 1,17,-1
 533 89 l 1,18,-1
 524 89 l 1,19,-1
 524 97 l 1,20,-1
 515 97 l 1,21,-1
 515 106 l 1,22,-1
 506 106 l 1,23,-1
 506 124 l 1,24,-1
 497 124 l 1,25,-1
 497 133 l 1,26,-1
 488 133 l 1,27,-1
 488 142 l 1,28,-1
 480 142 l 1,29,-1
 480 151 l 1,30,-1
 471 151 l 1,31,-1
 471 168 l 1,32,-1
 462 168 l 1,33,-1
 462 177 l 1,34,-1
 453 177 l 1,35,-1
 453 186 l 1,36,-1
 444 186 l 1,37,-1
 444 195 l 1,38,-1
 435 195 l 1,39,-1
 435 213 l 1,40,-1
 426 213 l 1,41,-1
 426 222 l 1,42,-1
 418 222 l 1,43,-1
 418 230 l 1,44,-1
 409 230 l 1,45,-1
 409 239 l 1,46,-1
 400 239 l 1,47,-1
 400 257 l 1,48,-1
 391 257 l 1,49,-1
 391 266 l 1,50,-1
 382 266 l 1,51,-1
 382 275 l 1,52,-1
 373 275 l 1,53,-1
 373 284 l 1,54,-1
 364 284 l 1,55,-1
 364 301 l 1,56,-1
 356 301 l 1,57,-1
 356 310 l 1,58,-1
 347 310 l 1,59,-1
 347 319 l 1,60,-1
 338 319 l 1,61,-1
 338 328 l 1,62,-1
 329 328 l 1,63,-1
 329 346 l 1,64,-1
 320 346 l 1,65,-1
 320 354 l 1,66,-1
 311 354 l 1,67,-1
 311 363 l 1,68,-1
 302 363 l 1,69,-1
 302 372 l 1,70,-1
 294 372 l 1,71,-1
 294 381 l 1,72,-1
 285 381 l 1,73,-1
 285 399 l 1,74,-1
 276 399 l 1,75,-1
 276 408 l 1,76,-1
 267 408 l 1,77,-1
 267 416 l 1,78,-1
 258 416 l 1,79,-1
 258 425 l 1,80,-1
 249 425 l 1,81,-1
 249 443 l 1,82,-1
 240 443 l 1,83,-1
 240 452 l 1,84,-1
 231 452 l 1,85,-1
 231 461 l 1,86,-1
 223 461 l 1,87,-1
 223 478 l 1,88,-1
 214 478 l 1,89,-1
 214 487 l 1,90,-1
 205 487 l 1,91,-1
 205 496 l 1,92,-1
 196 496 l 1,93,-1
 196 505 l 1,94,-1
 187 505 l 1,95,-1
 187 487 l 1,96,-1
 196 487 l 1,97,-1
 196 425 l 1,98,-1
 187 425 l 1,99,-1
 187 18 l 1,100,-1
 196 18 l 1,101,-1
 196 9 l 1,102,-1
 187 9 l 1,103,-1
 187 0 l 1,104,-1
 178 0 l 1,105,-1
 178 9 l 1,106,-1
 125 9 l 1,107,-1
 125 0 l 1,108,-1
 99 0 l 1,109,-1
 99 9 l 1,110,-1
 90 9 l 1,111,-1
 90 0 l 1,112,-1
 72 0 l 1,113,-1
 72 700 l 1,114,-1
 214 700 l 1,115,-1
 214 691 l 1,116,-1
 223 691 l 1,117,-1
 223 682 l 1,118,-1
 231 682 l 1,119,-1
 231 673 l 1,120,-1
 240 673 l 1,121,-1
 240 665 l 1,122,-1
 249 665 l 1,123,-1
 249 647 l 1,124,-1
 258 647 l 1,125,-1
 258 638 l 1,126,-1
 267 638 l 1,127,-1
 267 629 l 1,128,-1
 276 629 l 1,129,-1
 276 611 l 1,130,-1
 285 611 l 1,131,-1
 285 603 l 1,132,-1
 294 603 l 1,133,-1
 294 594 l 1,134,-1
 302 594 l 1,135,-1
 302 585 l 1,136,-1
 311 585 l 1,137,-1
 311 567 l 1,138,-1
 320 567 l 1,139,-1
 320 558 l 1,140,-1
 329 558 l 1,141,-1
 329 549 l 1,142,-1
 338 549 l 1,143,-1
 338 532 l 1,144,-1
 347 532 l 1,145,-1
 347 523 l 1,146,-1
 356 523 l 1,147,-1
 356 514 l 1,148,-1
 364 514 l 1,149,-1
 364 505 l 1,150,-1
 373 505 l 1,151,-1
 373 487 l 1,152,-1
 382 487 l 1,153,-1
 382 478 l 1,154,-1
 391 478 l 1,155,-1
 391 470 l 1,156,-1
 400 470 l 1,157,-1
 400 452 l 1,158,-1
 409 452 l 1,159,-1
 409 443 l 1,160,-1
 418 443 l 1,161,-1
 418 434 l 1,162,-1
 426 434 l 1,163,-1
 426 425 l 1,164,-1
 435 425 l 1,165,-1
 435 408 l 1,166,-1
 444 408 l 1,167,-1
 444 399 l 1,168,-1
 453 399 l 1,169,-1
 453 390 l 1,170,-1
 462 390 l 1,171,-1
 462 381 l 1,172,-1
 471 381 l 1,173,-1
 471 363 l 1,174,-1
 480 363 l 1,175,-1
 480 354 l 1,176,-1
 488 354 l 1,177,-1
 488 346 l 1,178,-1
 497 346 l 1,179,-1
 497 337 l 1,180,-1
 506 337 l 1,181,-1
 506 319 l 1,182,-1
 515 319 l 1,183,-1
 515 310 l 1,184,-1
 524 310 l 1,185,-1
 524 301 l 1,186,-1
 533 301 l 1,187,-1
 533 292 l 1,188,-1
 542 292 l 1,189,-1
 542 275 l 1,190,-1
 550 275 l 1,191,-1
 550 266 l 1,192,-1
 559 266 l 1,193,-1
 559 257 l 1,194,-1
 568 257 l 1,195,-1
 568 248 l 1,196,-1
 577 248 l 1,197,-1
 577 230 l 1,198,-1
 586 230 l 1,199,-1
 586 222 l 1,200,-1
 595 222 l 1,201,-1
 595 213 l 1,202,-1
 604 213 l 1,203,-1
 604 222 l 1,204,-1
 595 222 l 1,205,-1
 595 700 l 1,0,-1
EndSplineSet
EndChar

StartChar: O
Encoding: 79 79 48
Width: 915
GlyphClass: 1
Flags: W
LayerCount: 2
Fore
SplineSet
365 700 m 1,0,-1
 555 700 l 1,1,-1
 555 691 l 1,2,-1
 590 691 l 1,3,-1
 590 683 l 1,4,-1
 616 683 l 1,5,-1
 616 674 l 1,6,-1
 642 674 l 1,7,-1
 642 665 l 1,8,-1
 659 665 l 1,9,-1
 659 657 l 1,10,-1
 676 657 l 1,11,-1
 676 648 l 1,12,-1
 685 648 l 1,13,-1
 685 640 l 1,14,-1
 702 640 l 1,15,-1
 702 631 l 1,16,-1
 711 631 l 1,17,-1
 711 622 l 1,18,-1
 720 622 l 1,19,-1
 720 614 l 1,20,-1
 728 614 l 1,21,-1
 728 605 l 1,22,-1
 737 605 l 1,23,-1
 737 596 l 1,24,-1
 745 596 l 1,25,-1
 745 588 l 1,26,-1
 754 588 l 1,27,-1
 754 579 l 1,28,-1
 763 579 l 1,29,-1
 763 570 l 1,30,-1
 771 570 l 1,31,-1
 771 553 l 1,32,-1
 780 553 l 1,33,-1
 780 544 l 1,34,-1
 789 544 l 1,35,-1
 789 527 l 1,36,-1
 797 527 l 1,37,-1
 797 501 l 1,38,-1
 806 501 l 1,39,-1
 806 484 l 1,40,-1
 815 484 l 1,41,-1
 815 449 l 1,42,-1
 823 449 l 1,43,-1
 823 406 l 1,44,-1
 832 406 l 1,45,-1
 832 294 l 1,46,-1
 823 294 l 1,47,-1
 823 242 l 1,48,-1
 815 242 l 1,49,-1
 815 216 l 1,50,-1
 806 216 l 1,51,-1
 806 190 l 1,52,-1
 797 190 l 1,53,-1
 797 173 l 1,54,-1
 789 173 l 1,55,-1
 789 156 l 1,56,-1
 780 156 l 1,57,-1
 780 147 l 1,58,-1
 771 147 l 1,59,-1
 771 130 l 1,60,-1
 763 130 l 1,61,-1
 763 121 l 1,62,-1
 754 121 l 1,63,-1
 754 112 l 1,64,-1
 745 112 l 1,65,-1
 745 104 l 1,66,-1
 737 104 l 1,67,-1
 737 95 l 1,68,-1
 728 95 l 1,69,-1
 728 86 l 1,70,-1
 720 86 l 1,71,-1
 720 78 l 1,72,-1
 711 78 l 1,73,-1
 711 69 l 1,74,-1
 702 69 l 1,75,-1
 702 60 l 1,76,-1
 685 60 l 1,77,-1
 685 52 l 1,78,-1
 668 52 l 1,79,-1
 668 43 l 1,80,-1
 650 43 l 1,81,-1
 650 35 l 1,82,-1
 633 35 l 1,83,-1
 633 26 l 1,84,-1
 607 26 l 1,85,-1
 607 17 l 1,86,-1
 573 17 l 1,87,-1
 573 9 l 1,88,-1
 512 9 l 1,89,-1
 512 0 l 1,90,-1
 374 0 l 1,91,-1
 374 9 l 1,92,-1
 331 9 l 1,93,-1
 331 17 l 1,94,-1
 296 17 l 1,95,-1
 296 26 l 1,96,-1
 270 26 l 1,97,-1
 270 35 l 1,98,-1
 253 35 l 1,99,-1
 253 43 l 1,100,-1
 236 43 l 1,101,-1
 236 52 l 1,102,-1
 218 52 l 1,103,-1
 218 60 l 1,104,-1
 210 60 l 1,105,-1
 210 69 l 1,106,-1
 192 69 l 1,107,-1
 192 78 l 1,108,-1
 184 78 l 1,109,-1
 184 86 l 1,110,-1
 175 86 l 1,111,-1
 175 95 l 1,112,-1
 166 95 l 1,113,-1
 166 104 l 1,114,-1
 158 104 l 1,115,-1
 158 112 l 1,116,-1
 149 112 l 1,117,-1
 149 121 l 1,118,-1
 140 121 l 1,119,-1
 140 138 l 1,120,-1
 132 138 l 1,121,-1
 132 156 l 1,122,-1
 123 156 l 1,123,-1
 123 164 l 1,124,-1
 115 164 l 1,125,-1
 115 181 l 1,126,-1
 106 181 l 1,127,-1
 106 207 l 1,128,-1
 97 207 l 1,129,-1
 97 233 l 1,130,-1
 89 233 l 1,131,-1
 89 277 l 1,132,-1
 80 277 l 1,133,-1
 80 432 l 1,134,-1
 89 432 l 1,135,-1
 89 467 l 1,136,-1
 97 467 l 1,137,-1
 97 493 l 1,138,-1
 106 493 l 1,139,-1
 106 519 l 1,140,-1
 115 519 l 1,141,-1
 115 536 l 1,142,-1
 123 536 l 1,143,-1
 123 553 l 1,144,-1
 132 553 l 1,145,-1
 132 562 l 1,146,-1
 140 562 l 1,147,-1
 140 579 l 1,148,-1
 149 579 l 1,149,-1
 149 588 l 1,150,-1
 158 588 l 1,151,-1
 158 596 l 1,152,-1
 166 596 l 1,153,-1
 166 605 l 1,154,-1
 175 605 l 1,155,-1
 175 614 l 1,156,-1
 184 614 l 1,157,-1
 184 622 l 1,158,-1
 192 622 l 1,159,-1
 192 631 l 1,160,-1
 201 631 l 1,161,-1
 201 640 l 1,162,-1
 218 640 l 1,163,-1
 218 648 l 1,164,-1
 236 648 l 1,165,-1
 236 657 l 1,166,-1
 244 657 l 1,167,-1
 244 665 l 1,168,-1
 270 665 l 1,169,-1
 270 674 l 1,170,-1
 296 674 l 1,171,-1
 296 683 l 1,172,-1
 322 683 l 1,173,-1
 322 691 l 1,174,-1
 365 691 l 1,175,-1
 365 700 l 1,0,-1
521 104 m 1,176,-1
 521 112 l 1,177,-1
 555 112 l 1,178,-1
 555 121 l 1,179,-1
 581 121 l 1,180,-1
 581 130 l 1,181,-1
 590 130 l 1,182,-1
 590 138 l 1,183,-1
 607 138 l 1,184,-1
 607 147 l 1,185,-1
 616 147 l 1,186,-1
 616 156 l 1,187,-1
 633 156 l 1,188,-1
 633 164 l 1,189,-1
 642 164 l 1,190,-1
 642 181 l 1,191,-1
 650 181 l 1,192,-1
 650 190 l 1,193,-1
 659 190 l 1,194,-1
 659 207 l 1,195,-1
 668 207 l 1,196,-1
 668 225 l 1,197,-1
 676 225 l 1,198,-1
 676 242 l 1,199,-1
 685 242 l 1,200,-1
 685 285 l 1,201,-1
 694 285 l 1,202,-1
 694 406 l 1,203,-1
 685 406 l 1,204,-1
 685 441 l 1,205,-1
 676 441 l 1,206,-1
 676 467 l 1,207,-1
 668 467 l 1,208,-1
 668 493 l 1,209,-1
 659 493 l 1,210,-1
 659 501 l 1,211,-1
 650 501 l 1,212,-1
 650 519 l 1,213,-1
 642 519 l 1,214,-1
 642 527 l 1,215,-1
 633 527 l 1,216,-1
 633 536 l 1,217,-1
 624 536 l 1,218,-1
 624 544 l 1,219,-1
 616 544 l 1,220,-1
 616 553 l 1,221,-1
 607 553 l 1,222,-1
 607 562 l 1,223,-1
 599 562 l 1,224,-1
 599 570 l 1,225,-1
 581 570 l 1,226,-1
 581 579 l 1,227,-1
 555 579 l 1,228,-1
 555 588 l 1,229,-1
 521 588 l 1,230,-1
 521 596 l 1,231,-1
 391 596 l 1,232,-1
 391 588 l 1,233,-1
 348 588 l 1,234,-1
 348 579 l 1,235,-1
 331 579 l 1,236,-1
 331 570 l 1,237,-1
 313 570 l 1,238,-1
 313 562 l 1,239,-1
 296 562 l 1,240,-1
 296 553 l 1,241,-1
 287 553 l 1,242,-1
 287 544 l 1,243,-1
 279 544 l 1,244,-1
 279 536 l 1,245,-1
 270 536 l 1,246,-1
 270 527 l 1,247,-1
 261 527 l 1,248,-1
 261 510 l 1,249,-1
 253 510 l 1,250,-1
 253 493 l 1,251,-1
 244 493 l 1,252,-1
 244 475 l 1,253,-1
 236 475 l 1,254,-1
 236 449 l 1,255,-1
 227 449 l 1,256,-1
 227 415 l 1,257,-1
 218 415 l 1,258,-1
 218 285 l 1,259,-1
 227 285 l 1,260,-1
 227 242 l 1,261,-1
 236 242 l 1,262,-1
 236 225 l 1,263,-1
 244 225 l 1,264,-1
 244 199 l 1,265,-1
 253 199 l 1,266,-1
 253 190 l 1,267,-1
 261 190 l 1,268,-1
 261 173 l 1,269,-1
 270 173 l 1,270,-1
 270 164 l 1,271,-1
 279 164 l 1,272,-1
 279 156 l 1,273,-1
 287 156 l 1,274,-1
 287 147 l 1,275,-1
 296 147 l 1,276,-1
 296 138 l 1,277,-1
 313 138 l 1,278,-1
 313 130 l 1,279,-1
 331 130 l 1,280,-1
 331 121 l 1,281,-1
 348 121 l 1,282,-1
 348 112 l 1,283,-1
 382 112 l 1,284,-1
 382 104 l 1,285,-1
 521 104 l 1,176,-1
EndSplineSet
EndChar

StartChar: P
Encoding: 80 80 49
Width: 760
GlyphClass: 1
Flags: W
LayerCount: 2
Fore
SplineSet
81 700 m 1,0,-1
 471 700 l 1,1,-1
 471 691 l 1,2,-1
 515 691 l 1,3,-1
 515 682 l 1,4,-1
 542 682 l 1,5,-1
 542 673 l 1,6,-1
 559 673 l 1,7,-1
 559 665 l 1,8,-1
 577 665 l 1,9,-1
 577 656 l 1,10,-1
 586 656 l 1,11,-1
 586 647 l 1,12,-1
 595 647 l 1,13,-1
 595 638 l 1,14,-1
 613 638 l 1,15,-1
 613 629 l 1,16,-1
 621 629 l 1,17,-1
 621 620 l 1,18,-1
 630 620 l 1,19,-1
 630 603 l 1,20,-1
 639 603 l 1,21,-1
 639 594 l 1,22,-1
 648 594 l 1,23,-1
 648 576 l 1,24,-1
 657 576 l 1,25,-1
 657 549 l 1,26,-1
 666 549 l 1,27,-1
 666 523 l 1,28,-1
 675 523 l 1,29,-1
 675 416 l 1,30,-1
 666 416 l 1,31,-1
 666 381 l 1,32,-1
 657 381 l 1,33,-1
 657 363 l 1,34,-1
 648 363 l 1,35,-1
 648 346 l 1,36,-1
 639 346 l 1,37,-1
 639 328 l 1,38,-1
 630 328 l 1,39,-1
 630 319 l 1,40,-1
 621 319 l 1,41,-1
 621 310 l 1,42,-1
 613 310 l 1,43,-1
 613 301 l 1,44,-1
 604 301 l 1,45,-1
 604 292 l 1,46,-1
 595 292 l 1,47,-1
 595 284 l 1,48,-1
 577 284 l 1,49,-1
 577 275 l 1,50,-1
 559 275 l 1,51,-1
 559 266 l 1,52,-1
 542 266 l 1,53,-1
 542 257 l 1,54,-1
 515 257 l 1,55,-1
 515 248 l 1,56,-1
 480 248 l 1,57,-1
 480 239 l 1,58,-1
 214 239 l 1,59,-1
 214 9 l 1,60,-1
 90 9 l 1,61,-1
 90 0 l 1,62,-1
 81 0 l 1,63,-1
 81 9 l 1,64,-1
 72 9 l 1,65,-1
 72 18 l 1,66,-1
 81 18 l 1,67,-1
 81 682 l 1,68,-1
 72 682 l 1,69,-1
 72 691 l 1,70,-1
 81 691 l 1,71,-1
 81 700 l 1,0,-1
444 346 m 1,72,-1
 444 354 l 1,73,-1
 471 354 l 1,74,-1
 471 363 l 1,75,-1
 488 363 l 1,76,-1
 488 372 l 1,77,-1
 506 372 l 1,78,-1
 506 381 l 1,79,-1
 515 381 l 1,80,-1
 515 390 l 1,81,-1
 524 390 l 1,82,-1
 524 408 l 1,83,-1
 533 408 l 1,84,-1
 533 514 l 1,85,-1
 524 514 l 1,86,-1
 524 532 l 1,87,-1
 515 532 l 1,88,-1
 515 549 l 1,89,-1
 506 549 l 1,90,-1
 506 558 l 1,91,-1
 497 558 l 1,92,-1
 497 567 l 1,93,-1
 480 567 l 1,94,-1
 480 576 l 1,95,-1
 462 576 l 1,96,-1
 462 585 l 1,97,-1
 418 585 l 1,98,-1
 418 594 l 1,99,-1
 214 594 l 1,100,-1
 214 346 l 1,101,-1
 444 346 l 1,72,-1
EndSplineSet
EndChar

StartChar: Q
Encoding: 81 81 50
Width: 872
GlyphClass: 1
Flags: W
LayerCount: 2
Fore
SplineSet
414 293 m 1,0,-1
 422 293 l 1,1,-1
 422 285 l 1,2,-1
 430 285 l 1,3,-1
 430 277 l 1,4,-1
 446 277 l 1,5,-1
 446 269 l 1,6,-1
 463 269 l 1,7,-1
 463 260 l 1,8,-1
 479 260 l 1,9,-1
 479 252 l 1,10,-1
 495 252 l 1,11,-1
 495 244 l 1,12,-1
 503 244 l 1,13,-1
 503 236 l 1,14,-1
 520 236 l 1,15,-1
 520 228 l 1,16,-1
 536 228 l 1,17,-1
 536 220 l 1,18,-1
 544 220 l 1,19,-1
 544 212 l 1,20,-1
 560 212 l 1,21,-1
 560 203 l 1,22,-1
 568 203 l 1,23,-1
 568 195 l 1,24,-1
 585 195 l 1,25,-1
 585 187 l 1,26,-1
 593 187 l 1,27,-1
 593 195 l 1,28,-1
 601 195 l 1,29,-1
 601 203 l 1,30,-1
 609 203 l 1,31,-1
 609 212 l 1,32,-1
 617 212 l 1,33,-1
 617 228 l 1,34,-1
 625 228 l 1,35,-1
 625 236 l 1,36,-1
 633 236 l 1,37,-1
 633 252 l 1,38,-1
 642 252 l 1,39,-1
 642 277 l 1,40,-1
 650 277 l 1,41,-1
 650 317 l 1,42,-1
 658 317 l 1,43,-1
 658 415 l 1,44,-1
 650 415 l 1,45,-1
 650 456 l 1,46,-1
 642 456 l 1,47,-1
 642 480 l 1,48,-1
 633 480 l 1,49,-1
 633 497 l 1,50,-1
 625 497 l 1,51,-1
 625 513 l 1,52,-1
 617 513 l 1,53,-1
 617 529 l 1,54,-1
 609 529 l 1,55,-1
 609 537 l 1,56,-1
 601 537 l 1,57,-1
 601 545 l 1,58,-1
 593 545 l 1,59,-1
 593 553 l 1,60,-1
 585 553 l 1,61,-1
 585 562 l 1,62,-1
 577 562 l 1,63,-1
 577 570 l 1,64,-1
 560 570 l 1,65,-1
 560 578 l 1,66,-1
 544 578 l 1,67,-1
 544 586 l 1,68,-1
 528 586 l 1,69,-1
 528 594 l 1,70,-1
 495 594 l 1,71,-1
 495 602 l 1,72,-1
 373 602 l 1,73,-1
 373 594 l 1,74,-1
 332 594 l 1,75,-1
 332 586 l 1,76,-1
 316 586 l 1,77,-1
 316 578 l 1,78,-1
 300 578 l 1,79,-1
 300 570 l 1,80,-1
 283 570 l 1,81,-1
 283 562 l 1,82,-1
 275 562 l 1,83,-1
 275 553 l 1,84,-1
 267 553 l 1,85,-1
 267 545 l 1,86,-1
 259 545 l 1,87,-1
 259 537 l 1,88,-1
 251 537 l 1,89,-1
 251 529 l 1,90,-1
 243 529 l 1,91,-1
 243 513 l 1,92,-1
 235 513 l 1,93,-1
 235 497 l 1,94,-1
 227 497 l 1,95,-1
 227 472 l 1,96,-1
 218 472 l 1,97,-1
 218 440 l 1,98,-1
 210 440 l 1,99,-1
 210 317 l 1,100,-1
 218 317 l 1,101,-1
 218 285 l 1,102,-1
 227 285 l 1,103,-1
 227 260 l 1,104,-1
 235 260 l 1,105,-1
 235 244 l 1,106,-1
 243 244 l 1,107,-1
 243 228 l 1,108,-1
 251 228 l 1,109,-1
 251 212 l 1,110,-1
 259 212 l 1,111,-1
 259 203 l 1,112,-1
 267 203 l 1,113,-1
 267 195 l 1,114,-1
 275 195 l 1,115,-1
 275 187 l 1,116,-1
 283 187 l 1,117,-1
 283 179 l 1,118,-1
 292 179 l 1,119,-1
 292 171 l 1,120,-1
 308 171 l 1,121,-1
 308 163 l 1,122,-1
 324 163 l 1,123,-1
 324 155 l 1,124,-1
 340 155 l 1,125,-1
 340 147 l 1,126,-1
 373 147 l 1,127,-1
 373 138 l 1,128,-1
 479 138 l 1,129,-1
 479 147 l 1,130,-1
 495 147 l 1,131,-1
 495 155 l 1,132,-1
 487 155 l 1,133,-1
 487 171 l 1,134,-1
 479 171 l 1,135,-1
 479 179 l 1,136,-1
 471 179 l 1,137,-1
 471 195 l 1,138,-1
 463 195 l 1,139,-1
 463 203 l 1,140,-1
 454 203 l 1,141,-1
 454 220 l 1,142,-1
 446 220 l 1,143,-1
 446 236 l 1,144,-1
 438 236 l 1,145,-1
 438 244 l 1,146,-1
 430 244 l 1,147,-1
 430 260 l 1,148,-1
 422 260 l 1,149,-1
 422 277 l 1,150,-1
 414 277 l 1,151,-1
 414 293 l 1,0,-1
349 700 m 1,152,-1
 511 700 l 1,153,-1
 511 692 l 1,154,-1
 552 692 l 1,155,-1
 552 684 l 1,156,-1
 585 684 l 1,157,-1
 585 676 l 1,158,-1
 601 676 l 1,159,-1
 601 667 l 1,160,-1
 625 667 l 1,161,-1
 625 659 l 1,162,-1
 633 659 l 1,163,-1
 633 651 l 1,164,-1
 650 651 l 1,165,-1
 650 643 l 1,166,-1
 658 643 l 1,167,-1
 658 635 l 1,168,-1
 674 635 l 1,169,-1
 674 627 l 1,170,-1
 682 627 l 1,171,-1
 682 619 l 1,172,-1
 690 619 l 1,173,-1
 690 610 l 1,174,-1
 699 610 l 1,175,-1
 699 602 l 1,176,-1
 707 602 l 1,177,-1
 707 594 l 1,178,-1
 715 594 l 1,179,-1
 715 586 l 1,180,-1
 723 586 l 1,181,-1
 723 570 l 1,182,-1
 731 570 l 1,183,-1
 731 562 l 1,184,-1
 739 562 l 1,185,-1
 739 545 l 1,186,-1
 747 545 l 1,187,-1
 747 529 l 1,188,-1
 756 529 l 1,189,-1
 756 513 l 1,190,-1
 764 513 l 1,191,-1
 764 488 l 1,192,-1
 772 488 l 1,193,-1
 772 456 l 1,194,-1
 780 456 l 1,195,-1
 780 391 l 1,196,-1
 788 391 l 1,197,-1
 788 350 l 1,198,-1
 780 350 l 1,199,-1
 780 285 l 1,200,-1
 772 285 l 1,201,-1
 772 252 l 1,202,-1
 764 252 l 1,203,-1
 764 236 l 1,204,-1
 756 236 l 1,205,-1
 756 220 l 1,206,-1
 747 220 l 1,207,-1
 747 203 l 1,208,-1
 739 203 l 1,209,-1
 739 187 l 1,210,-1
 731 187 l 1,211,-1
 731 171 l 1,212,-1
 723 171 l 1,213,-1
 723 163 l 1,214,-1
 715 163 l 1,215,-1
 715 155 l 1,216,-1
 707 155 l 1,217,-1
 707 147 l 1,218,-1
 699 147 l 1,219,-1
 699 138 l 1,220,-1
 690 138 l 1,221,-1
 690 130 l 1,222,-1
 682 130 l 1,223,-1
 682 122 l 1,224,-1
 674 122 l 1,225,-1
 674 114 l 1,226,-1
 682 114 l 1,227,-1
 682 106 l 1,228,-1
 690 106 l 1,229,-1
 690 98 l 1,230,-1
 699 98 l 1,231,-1
 699 90 l 1,232,-1
 715 90 l 1,233,-1
 715 81 l 1,234,-1
 723 81 l 1,235,-1
 723 73 l 1,236,-1
 731 73 l 1,237,-1
 731 65 l 1,238,-1
 739 65 l 1,239,-1
 739 57 l 1,240,-1
 747 57 l 1,241,-1
 747 49 l 1,242,-1
 756 49 l 1,243,-1
 756 41 l 1,244,-1
 764 41 l 1,245,-1
 764 33 l 1,246,-1
 772 33 l 1,247,-1
 772 24 l 1,248,-1
 780 24 l 1,249,-1
 780 16 l 1,250,-1
 747 16 l 1,251,-1
 747 8 l 1,252,-1
 707 8 l 1,253,-1
 707 0 l 1,254,-1
 625 0 l 1,255,-1
 625 8 l 1,256,-1
 617 8 l 1,257,-1
 617 16 l 1,258,-1
 609 16 l 1,259,-1
 609 24 l 1,260,-1
 601 24 l 1,261,-1
 601 33 l 1,262,-1
 593 33 l 1,263,-1
 593 49 l 1,264,-1
 585 49 l 1,265,-1
 585 57 l 1,266,-1
 577 57 l 1,267,-1
 577 65 l 1,268,-1
 568 65 l 1,269,-1
 568 57 l 1,270,-1
 536 57 l 1,271,-1
 536 49 l 1,272,-1
 495 49 l 1,273,-1
 495 41 l 1,274,-1
 365 41 l 1,275,-1
 365 49 l 1,276,-1
 316 49 l 1,277,-1
 316 57 l 1,278,-1
 292 57 l 1,279,-1
 292 65 l 1,280,-1
 267 65 l 1,281,-1
 267 73 l 1,282,-1
 251 73 l 1,283,-1
 251 81 l 1,284,-1
 235 81 l 1,285,-1
 235 90 l 1,286,-1
 218 90 l 1,287,-1
 218 98 l 1,288,-1
 210 98 l 1,289,-1
 210 106 l 1,290,-1
 194 106 l 1,291,-1
 194 114 l 1,292,-1
 186 114 l 1,293,-1
 186 122 l 1,294,-1
 178 122 l 1,295,-1
 178 130 l 1,296,-1
 170 130 l 1,297,-1
 170 138 l 1,298,-1
 161 138 l 1,299,-1
 161 147 l 1,300,-1
 153 147 l 1,301,-1
 153 155 l 1,302,-1
 145 155 l 1,303,-1
 145 163 l 1,304,-1
 137 163 l 1,305,-1
 137 179 l 1,306,-1
 129 179 l 1,307,-1
 129 187 l 1,308,-1
 121 187 l 1,309,-1
 121 203 l 1,310,-1
 113 203 l 1,311,-1
 113 220 l 1,312,-1
 104 220 l 1,313,-1
 104 244 l 1,314,-1
 96 244 l 1,315,-1
 96 269 l 1,316,-1
 88 269 l 1,317,-1
 88 309 l 1,318,-1
 80 309 l 1,319,-1
 80 448 l 1,320,-1
 88 448 l 1,321,-1
 88 480 l 1,322,-1
 96 480 l 1,323,-1
 96 505 l 1,324,-1
 104 505 l 1,325,-1
 104 529 l 1,326,-1
 113 529 l 1,327,-1
 113 545 l 1,328,-1
 121 545 l 1,329,-1
 121 553 l 1,330,-1
 129 553 l 1,331,-1
 129 570 l 1,332,-1
 137 570 l 1,333,-1
 137 586 l 1,334,-1
 145 586 l 1,335,-1
 145 594 l 1,336,-1
 153 594 l 1,337,-1
 153 602 l 1,338,-1
 161 602 l 1,339,-1
 161 610 l 1,340,-1
 170 610 l 1,341,-1
 170 619 l 1,342,-1
 178 619 l 1,343,-1
 178 627 l 1,344,-1
 186 627 l 1,345,-1
 186 635 l 1,346,-1
 194 635 l 1,347,-1
 194 643 l 1,348,-1
 210 643 l 1,349,-1
 210 651 l 1,350,-1
 218 651 l 1,351,-1
 218 659 l 1,352,-1
 235 659 l 1,353,-1
 235 667 l 1,354,-1
 251 667 l 1,355,-1
 251 676 l 1,356,-1
 275 676 l 1,357,-1
 275 684 l 1,358,-1
 308 684 l 1,359,-1
 308 692 l 1,360,-1
 349 692 l 1,361,-1
 349 700 l 1,152,-1
EndSplineSet
EndChar

StartChar: R
Encoding: 82 82 51
Width: 768
GlyphClass: 1
Flags: W
LayerCount: 2
Fore
SplineSet
72 700 m 1,0,-1
 440 700 l 1,1,-1
 440 691 l 1,2,-1
 503 691 l 1,3,-1
 503 682 l 1,4,-1
 530 682 l 1,5,-1
 530 673 l 1,6,-1
 557 673 l 1,7,-1
 557 664 l 1,8,-1
 566 664 l 1,9,-1
 566 655 l 1,10,-1
 584 655 l 1,11,-1
 584 646 l 1,12,-1
 593 646 l 1,13,-1
 593 637 l 1,14,-1
 601 637 l 1,15,-1
 601 628 l 1,16,-1
 610 628 l 1,17,-1
 610 619 l 1,18,-1
 619 619 l 1,19,-1
 619 610 l 1,20,-1
 628 610 l 1,21,-1
 628 592 l 1,22,-1
 637 592 l 1,23,-1
 637 574 l 1,24,-1
 646 574 l 1,25,-1
 646 538 l 1,26,-1
 655 538 l 1,27,-1
 655 422 l 1,28,-1
 646 422 l 1,29,-1
 646 395 l 1,30,-1
 637 395 l 1,31,-1
 637 368 l 1,32,-1
 628 368 l 1,33,-1
 628 359 l 1,34,-1
 619 359 l 1,35,-1
 619 341 l 1,36,-1
 610 341 l 1,37,-1
 610 332 l 1,38,-1
 601 332 l 1,39,-1
 601 323 l 1,40,-1
 593 323 l 1,41,-1
 593 314 l 1,42,-1
 575 314 l 1,43,-1
 575 305 l 1,44,-1
 566 305 l 1,45,-1
 566 296 l 1,46,-1
 548 296 l 1,47,-1
 548 287 l 1,48,-1
 530 287 l 1,49,-1
 530 278 l 1,50,-1
 503 278 l 1,51,-1
 503 269 l 1,52,-1
 494 269 l 1,53,-1
 494 260 l 1,54,-1
 503 260 l 1,55,-1
 503 251 l 1,56,-1
 512 251 l 1,57,-1
 512 233 l 1,58,-1
 521 233 l 1,59,-1
 521 224 l 1,60,-1
 530 224 l 1,61,-1
 530 206 l 1,62,-1
 539 206 l 1,63,-1
 539 197 l 1,64,-1
 548 197 l 1,65,-1
 548 188 l 1,66,-1
 557 188 l 1,67,-1
 557 171 l 1,68,-1
 566 171 l 1,69,-1
 566 162 l 1,70,-1
 575 162 l 1,71,-1
 575 144 l 1,72,-1
 584 144 l 1,73,-1
 584 135 l 1,74,-1
 593 135 l 1,75,-1
 593 126 l 1,76,-1
 601 126 l 1,77,-1
 601 108 l 1,78,-1
 610 108 l 1,79,-1
 610 99 l 1,80,-1
 619 99 l 1,81,-1
 619 81 l 1,82,-1
 628 81 l 1,83,-1
 628 72 l 1,84,-1
 637 72 l 1,85,-1
 637 63 l 1,86,-1
 646 63 l 1,87,-1
 646 45 l 1,88,-1
 655 45 l 1,89,-1
 655 36 l 1,90,-1
 664 36 l 1,91,-1
 664 18 l 1,92,-1
 673 18 l 1,93,-1
 673 9 l 1,94,-1
 682 9 l 1,95,-1
 682 0 l 1,96,-1
 521 0 l 1,97,-1
 521 9 l 1,98,-1
 512 9 l 1,99,-1
 512 27 l 1,100,-1
 503 27 l 1,101,-1
 503 36 l 1,102,-1
 494 36 l 1,103,-1
 494 54 l 1,104,-1
 485 54 l 1,105,-1
 485 63 l 1,106,-1
 476 63 l 1,107,-1
 476 81 l 1,108,-1
 467 81 l 1,109,-1
 467 90 l 1,110,-1
 458 90 l 1,111,-1
 458 108 l 1,112,-1
 449 108 l 1,113,-1
 449 117 l 1,114,-1
 440 117 l 1,115,-1
 440 135 l 1,116,-1
 431 135 l 1,117,-1
 431 144 l 1,118,-1
 422 144 l 1,119,-1
 422 162 l 1,120,-1
 413 162 l 1,121,-1
 413 171 l 1,122,-1
 404 171 l 1,123,-1
 404 188 l 1,124,-1
 395 188 l 1,125,-1
 395 197 l 1,126,-1
 386 197 l 1,127,-1
 386 215 l 1,128,-1
 377 215 l 1,129,-1
 377 224 l 1,130,-1
 368 224 l 1,131,-1
 368 242 l 1,132,-1
 359 242 l 1,133,-1
 359 251 l 1,134,-1
 350 251 l 1,135,-1
 350 260 l 1,136,-1
 207 260 l 1,137,-1
 207 0 l 1,138,-1
 72 0 l 1,139,-1
 72 700 l 1,0,-1
341 350 m 1,140,-1
 341 359 l 1,141,-1
 422 359 l 1,142,-1
 422 368 l 1,143,-1
 449 368 l 1,144,-1
 449 377 l 1,145,-1
 467 377 l 1,146,-1
 467 386 l 1,147,-1
 476 386 l 1,148,-1
 476 395 l 1,149,-1
 485 395 l 1,150,-1
 485 404 l 1,151,-1
 494 404 l 1,152,-1
 494 413 l 1,153,-1
 503 413 l 1,154,-1
 503 431 l 1,155,-1
 512 431 l 1,156,-1
 512 449 l 1,157,-1
 521 449 l 1,158,-1
 521 521 l 1,159,-1
 512 521 l 1,160,-1
 512 538 l 1,161,-1
 503 538 l 1,162,-1
 503 556 l 1,163,-1
 485 556 l 1,164,-1
 485 565 l 1,165,-1
 476 565 l 1,166,-1
 476 574 l 1,167,-1
 458 574 l 1,168,-1
 458 583 l 1,169,-1
 422 583 l 1,170,-1
 422 592 l 1,171,-1
 207 592 l 1,172,-1
 207 359 l 1,173,-1
 243 359 l 1,174,-1
 243 350 l 1,175,-1
 341 350 l 1,140,-1
EndSplineSet
EndChar

StartChar: S
Encoding: 83 83 52
Width: 725
GlyphClass: 1
Flags: W
LayerCount: 2
Fore
SplineSet
89 164 m 1,0,-1
 97 164 l 1,1,-1
 97 156 l 1,2,-1
 115 156 l 1,3,-1
 115 147 l 1,4,-1
 132 147 l 1,5,-1
 132 138 l 1,6,-1
 158 138 l 1,7,-1
 158 130 l 1,8,-1
 184 130 l 1,9,-1
 184 121 l 1,10,-1
 218 121 l 1,11,-1
 218 112 l 1,12,-1
 279 112 l 1,13,-1
 279 104 l 1,14,-1
 382 104 l 1,15,-1
 382 112 l 1,16,-1
 434 112 l 1,17,-1
 434 121 l 1,18,-1
 452 121 l 1,19,-1
 452 130 l 1,20,-1
 469 130 l 1,21,-1
 469 138 l 1,22,-1
 478 138 l 1,23,-1
 478 147 l 1,24,-1
 486 147 l 1,25,-1
 486 156 l 1,26,-1
 495 156 l 1,27,-1
 495 173 l 1,28,-1
 503 173 l 1,29,-1
 503 225 l 1,30,-1
 495 225 l 1,31,-1
 495 242 l 1,32,-1
 486 242 l 1,33,-1
 486 251 l 1,34,-1
 478 251 l 1,35,-1
 478 259 l 1,36,-1
 460 259 l 1,37,-1
 460 268 l 1,38,-1
 452 268 l 1,39,-1
 452 277 l 1,40,-1
 426 277 l 1,41,-1
 426 285 l 1,42,-1
 400 285 l 1,43,-1
 400 294 l 1,44,-1
 365 294 l 1,45,-1
 365 302 l 1,46,-1
 331 302 l 1,47,-1
 331 311 l 1,48,-1
 296 311 l 1,49,-1
 296 320 l 1,50,-1
 253 320 l 1,51,-1
 253 328 l 1,52,-1
 227 328 l 1,53,-1
 227 337 l 1,54,-1
 201 337 l 1,55,-1
 201 346 l 1,56,-1
 184 346 l 1,57,-1
 184 354 l 1,58,-1
 166 354 l 1,59,-1
 166 363 l 1,60,-1
 149 363 l 1,61,-1
 149 372 l 1,62,-1
 140 372 l 1,63,-1
 140 380 l 1,64,-1
 132 380 l 1,65,-1
 132 389 l 1,66,-1
 123 389 l 1,67,-1
 123 398 l 1,68,-1
 115 398 l 1,69,-1
 115 406 l 1,70,-1
 106 406 l 1,71,-1
 106 415 l 1,72,-1
 97 415 l 1,73,-1
 97 432 l 1,74,-1
 89 432 l 1,75,-1
 89 458 l 1,76,-1
 80 458 l 1,77,-1
 80 553 l 1,78,-1
 89 553 l 1,79,-1
 89 588 l 1,80,-1
 97 588 l 1,81,-1
 97 605 l 1,82,-1
 106 605 l 1,83,-1
 106 614 l 1,84,-1
 115 614 l 1,85,-1
 115 622 l 1,86,-1
 123 622 l 1,87,-1
 123 631 l 1,88,-1
 132 631 l 1,89,-1
 132 640 l 1,90,-1
 140 640 l 1,91,-1
 140 648 l 1,92,-1
 149 648 l 1,93,-1
 149 657 l 1,94,-1
 166 657 l 1,95,-1
 166 665 l 1,96,-1
 184 665 l 1,97,-1
 184 674 l 1,98,-1
 210 674 l 1,99,-1
 210 683 l 1,100,-1
 236 683 l 1,101,-1
 236 691 l 1,102,-1
 279 691 l 1,103,-1
 279 700 l 1,104,-1
 478 700 l 1,105,-1
 478 691 l 1,106,-1
 529 691 l 1,107,-1
 529 683 l 1,108,-1
 564 683 l 1,109,-1
 564 674 l 1,110,-1
 590 674 l 1,111,-1
 590 553 l 1,112,-1
 581 553 l 1,113,-1
 581 562 l 1,114,-1
 555 562 l 1,115,-1
 555 570 l 1,116,-1
 521 570 l 1,117,-1
 521 579 l 1,118,-1
 486 579 l 1,119,-1
 486 588 l 1,120,-1
 426 588 l 1,121,-1
 426 596 l 1,122,-1
 322 596 l 1,123,-1
 322 588 l 1,124,-1
 279 588 l 1,125,-1
 279 579 l 1,126,-1
 253 579 l 1,127,-1
 253 570 l 1,128,-1
 244 570 l 1,129,-1
 244 562 l 1,130,-1
 236 562 l 1,131,-1
 236 544 l 1,132,-1
 227 544 l 1,133,-1
 227 475 l 1,134,-1
 236 475 l 1,135,-1
 236 467 l 1,136,-1
 244 467 l 1,137,-1
 244 458 l 1,138,-1
 261 458 l 1,139,-1
 261 449 l 1,140,-1
 287 449 l 1,141,-1
 287 441 l 1,142,-1
 313 441 l 1,143,-1
 313 432 l 1,144,-1
 348 432 l 1,145,-1
 348 423 l 1,146,-1
 374 423 l 1,147,-1
 374 415 l 1,148,-1
 417 415 l 1,149,-1
 417 406 l 1,150,-1
 452 406 l 1,151,-1
 452 398 l 1,152,-1
 478 398 l 1,153,-1
 478 389 l 1,154,-1
 503 389 l 1,155,-1
 503 380 l 1,156,-1
 529 380 l 1,157,-1
 529 372 l 1,158,-1
 547 372 l 1,159,-1
 547 363 l 1,160,-1
 564 363 l 1,161,-1
 564 354 l 1,162,-1
 573 354 l 1,163,-1
 573 346 l 1,164,-1
 590 346 l 1,165,-1
 590 337 l 1,166,-1
 599 337 l 1,167,-1
 599 328 l 1,168,-1
 607 328 l 1,169,-1
 607 320 l 1,170,-1
 616 320 l 1,171,-1
 616 302 l 1,172,-1
 624 302 l 1,173,-1
 624 285 l 1,174,-1
 633 285 l 1,175,-1
 633 268 l 1,176,-1
 642 268 l 1,177,-1
 642 147 l 1,178,-1
 633 147 l 1,179,-1
 633 130 l 1,180,-1
 624 130 l 1,181,-1
 624 112 l 1,182,-1
 616 112 l 1,183,-1
 616 95 l 1,184,-1
 607 95 l 1,185,-1
 607 86 l 1,186,-1
 599 86 l 1,187,-1
 599 78 l 1,188,-1
 590 78 l 1,189,-1
 590 69 l 1,190,-1
 581 69 l 1,191,-1
 581 60 l 1,192,-1
 573 60 l 1,193,-1
 573 52 l 1,194,-1
 555 52 l 1,195,-1
 555 43 l 1,196,-1
 547 43 l 1,197,-1
 547 35 l 1,198,-1
 529 35 l 1,199,-1
 529 26 l 1,200,-1
 503 26 l 1,201,-1
 503 17 l 1,202,-1
 469 17 l 1,203,-1
 469 9 l 1,204,-1
 426 9 l 1,205,-1
 426 0 l 1,206,-1
 253 0 l 1,207,-1
 253 9 l 1,208,-1
 192 9 l 1,209,-1
 192 17 l 1,210,-1
 158 17 l 1,211,-1
 158 26 l 1,212,-1
 123 26 l 1,213,-1
 123 35 l 1,214,-1
 89 35 l 1,215,-1
 89 43 l 1,216,-1
 80 43 l 1,217,-1
 80 104 l 1,218,-1
 89 104 l 1,219,-1
 89 164 l 1,0,-1
EndSplineSet
EndChar

StartChar: T
Encoding: 84 84 53
Width: 752
GlyphClass: 1
Flags: W
LayerCount: 2
Fore
SplineSet
60 700 m 1,0,-1
 688 700 l 1,1,-1
 688 583 l 1,2,-1
 670 583 l 1,3,-1
 670 592 l 1,4,-1
 643 592 l 1,5,-1
 643 583 l 1,6,-1
 625 583 l 1,7,-1
 625 592 l 1,8,-1
 437 592 l 1,9,-1
 437 45 l 1,10,-1
 446 45 l 1,11,-1
 446 0 l 1,12,-1
 302 0 l 1,13,-1
 302 592 l 1,14,-1
 96 592 l 1,15,-1
 96 583 l 1,16,-1
 60 583 l 1,17,-1
 60 700 l 1,0,-1
EndSplineSet
EndChar

StartChar: U
Encoding: 85 85 54
Width: 770
GlyphClass: 1
Flags: W
LayerCount: 2
Fore
SplineSet
562 700 m 1,0,-1
 684 700 l 1,1,-1
 684 192 l 1,2,-1
 676 192 l 1,3,-1
 676 158 l 1,4,-1
 667 158 l 1,5,-1
 667 131 l 1,6,-1
 658 131 l 1,7,-1
 658 114 l 1,8,-1
 650 114 l 1,9,-1
 650 105 l 1,10,-1
 641 105 l 1,11,-1
 641 88 l 1,12,-1
 632 88 l 1,13,-1
 632 79 l 1,14,-1
 623 79 l 1,15,-1
 623 70 l 1,16,-1
 614 70 l 1,17,-1
 614 61 l 1,18,-1
 606 61 l 1,19,-1
 606 52 l 1,20,-1
 597 52 l 1,21,-1
 597 44 l 1,22,-1
 580 44 l 1,23,-1
 580 35 l 1,24,-1
 562 35 l 1,25,-1
 562 26 l 1,26,-1
 544 26 l 1,27,-1
 544 18 l 1,28,-1
 510 18 l 1,29,-1
 510 9 l 1,30,-1
 457 9 l 1,31,-1
 457 0 l 1,32,-1
 291 0 l 1,33,-1
 291 9 l 1,34,-1
 247 9 l 1,35,-1
 247 18 l 1,36,-1
 221 18 l 1,37,-1
 221 26 l 1,38,-1
 194 26 l 1,39,-1
 194 35 l 1,40,-1
 177 35 l 1,41,-1
 177 44 l 1,42,-1
 160 44 l 1,43,-1
 160 52 l 1,44,-1
 151 52 l 1,45,-1
 151 61 l 1,46,-1
 142 61 l 1,47,-1
 142 70 l 1,48,-1
 133 70 l 1,49,-1
 133 79 l 1,50,-1
 124 79 l 1,51,-1
 124 88 l 1,52,-1
 116 88 l 1,53,-1
 116 105 l 1,54,-1
 107 105 l 1,55,-1
 107 122 l 1,56,-1
 98 122 l 1,57,-1
 98 140 l 1,58,-1
 90 140 l 1,59,-1
 90 166 l 1,60,-1
 81 166 l 1,61,-1
 81 219 l 1,62,-1
 72 219 l 1,63,-1
 72 700 l 1,64,-1
 203 700 l 1,65,-1
 203 228 l 1,66,-1
 212 228 l 1,67,-1
 212 192 l 1,68,-1
 221 192 l 1,69,-1
 221 175 l 1,70,-1
 230 175 l 1,71,-1
 230 158 l 1,72,-1
 238 158 l 1,73,-1
 238 149 l 1,74,-1
 247 149 l 1,75,-1
 247 140 l 1,76,-1
 256 140 l 1,77,-1
 256 131 l 1,78,-1
 264 131 l 1,79,-1
 264 122 l 1,80,-1
 291 122 l 1,81,-1
 291 114 l 1,82,-1
 334 114 l 1,83,-1
 334 105 l 1,84,-1
 440 105 l 1,85,-1
 440 114 l 1,86,-1
 474 114 l 1,87,-1
 474 122 l 1,88,-1
 492 122 l 1,89,-1
 492 131 l 1,90,-1
 510 131 l 1,91,-1
 510 140 l 1,92,-1
 518 140 l 1,93,-1
 518 149 l 1,94,-1
 527 149 l 1,95,-1
 527 166 l 1,96,-1
 536 166 l 1,97,-1
 536 184 l 1,98,-1
 544 184 l 1,99,-1
 544 210 l 1,100,-1
 553 210 l 1,101,-1
 553 254 l 1,102,-1
 562 254 l 1,103,-1
 562 700 l 1,0,-1
EndSplineSet
EndChar

StartChar: V
Encoding: 86 86 55
Width: 911
GlyphClass: 1
Flags: W
LayerCount: 2
Fore
SplineSet
700 700 m 1,0,-1
 826 700 l 1,1,-1
 826 673 l 1,2,-1
 817 673 l 1,3,-1
 817 655 l 1,4,-1
 808 655 l 1,5,-1
 808 637 l 1,6,-1
 799 637 l 1,7,-1
 799 610 l 1,8,-1
 790 610 l 1,9,-1
 790 592 l 1,10,-1
 781 592 l 1,11,-1
 781 574 l 1,12,-1
 772 574 l 1,13,-1
 772 556 l 1,14,-1
 763 556 l 1,15,-1
 763 529 l 1,16,-1
 754 529 l 1,17,-1
 754 512 l 1,18,-1
 745 512 l 1,19,-1
 745 494 l 1,20,-1
 736 494 l 1,21,-1
 736 467 l 1,22,-1
 727 467 l 1,23,-1
 727 449 l 1,24,-1
 718 449 l 1,25,-1
 718 431 l 1,26,-1
 709 431 l 1,27,-1
 709 404 l 1,28,-1
 700 404 l 1,29,-1
 700 386 l 1,30,-1
 691 386 l 1,31,-1
 691 368 l 1,32,-1
 682 368 l 1,33,-1
 682 341 l 1,34,-1
 673 341 l 1,35,-1
 673 323 l 1,36,-1
 664 323 l 1,37,-1
 664 305 l 1,38,-1
 655 305 l 1,39,-1
 655 287 l 1,40,-1
 646 287 l 1,41,-1
 646 260 l 1,42,-1
 637 260 l 1,43,-1
 637 242 l 1,44,-1
 628 242 l 1,45,-1
 628 224 l 1,46,-1
 619 224 l 1,47,-1
 619 197 l 1,48,-1
 610 197 l 1,49,-1
 610 179 l 1,50,-1
 601 179 l 1,51,-1
 601 162 l 1,52,-1
 593 162 l 1,53,-1
 593 144 l 1,54,-1
 584 144 l 1,55,-1
 584 117 l 1,56,-1
 575 117 l 1,57,-1
 575 99 l 1,58,-1
 566 99 l 1,59,-1
 566 81 l 1,60,-1
 557 81 l 1,61,-1
 557 54 l 1,62,-1
 548 54 l 1,63,-1
 548 36 l 1,64,-1
 539 36 l 1,65,-1
 539 18 l 1,66,-1
 530 18 l 1,67,-1
 530 0 l 1,68,-1
 368 0 l 1,69,-1
 368 9 l 1,70,-1
 359 9 l 1,71,-1
 359 36 l 1,72,-1
 350 36 l 1,73,-1
 350 63 l 1,74,-1
 341 63 l 1,75,-1
 341 81 l 1,76,-1
 332 81 l 1,77,-1
 332 108 l 1,78,-1
 323 108 l 1,79,-1
 323 126 l 1,80,-1
 314 126 l 1,81,-1
 314 153 l 1,82,-1
 305 153 l 1,83,-1
 305 171 l 1,84,-1
 296 171 l 1,85,-1
 296 188 l 1,86,-1
 287 188 l 1,87,-1
 287 215 l 1,88,-1
 278 215 l 1,89,-1
 278 233 l 1,90,-1
 269 233 l 1,91,-1
 269 251 l 1,92,-1
 260 251 l 1,93,-1
 260 269 l 1,94,-1
 251 269 l 1,95,-1
 251 296 l 1,96,-1
 243 296 l 1,97,-1
 243 314 l 1,98,-1
 234 314 l 1,99,-1
 234 332 l 1,100,-1
 225 332 l 1,101,-1
 225 359 l 1,102,-1
 216 359 l 1,103,-1
 216 377 l 1,104,-1
 207 377 l 1,105,-1
 207 395 l 1,106,-1
 198 395 l 1,107,-1
 198 422 l 1,108,-1
 189 422 l 1,109,-1
 189 440 l 1,110,-1
 180 440 l 1,111,-1
 180 458 l 1,112,-1
 171 458 l 1,113,-1
 171 485 l 1,114,-1
 162 485 l 1,115,-1
 162 503 l 1,116,-1
 153 503 l 1,117,-1
 153 521 l 1,118,-1
 144 521 l 1,119,-1
 144 547 l 1,120,-1
 135 547 l 1,121,-1
 135 565 l 1,122,-1
 126 565 l 1,123,-1
 126 583 l 1,124,-1
 117 583 l 1,125,-1
 117 610 l 1,126,-1
 108 610 l 1,127,-1
 108 628 l 1,128,-1
 99 628 l 1,129,-1
 99 646 l 1,130,-1
 90 646 l 1,131,-1
 90 664 l 1,132,-1
 81 664 l 1,133,-1
 81 682 l 1,134,-1
 72 682 l 1,135,-1
 72 700 l 1,136,-1
 225 700 l 1,137,-1
 225 691 l 1,138,-1
 234 691 l 1,139,-1
 234 673 l 1,140,-1
 243 673 l 1,141,-1
 243 646 l 1,142,-1
 251 646 l 1,143,-1
 251 628 l 1,144,-1
 260 628 l 1,145,-1
 260 610 l 1,146,-1
 269 610 l 1,147,-1
 269 583 l 1,148,-1
 278 583 l 1,149,-1
 278 565 l 1,150,-1
 287 565 l 1,151,-1
 287 547 l 1,152,-1
 296 547 l 1,153,-1
 296 521 l 1,154,-1
 305 521 l 1,155,-1
 305 503 l 1,156,-1
 314 503 l 1,157,-1
 314 476 l 1,158,-1
 323 476 l 1,159,-1
 323 458 l 1,160,-1
 332 458 l 1,161,-1
 332 440 l 1,162,-1
 341 440 l 1,163,-1
 341 422 l 1,164,-1
 350 422 l 1,165,-1
 350 395 l 1,166,-1
 359 395 l 1,167,-1
 359 377 l 1,168,-1
 368 377 l 1,169,-1
 368 359 l 1,170,-1
 377 359 l 1,171,-1
 377 332 l 1,172,-1
 386 332 l 1,173,-1
 386 314 l 1,174,-1
 395 314 l 1,175,-1
 395 296 l 1,176,-1
 404 296 l 1,177,-1
 404 269 l 1,178,-1
 413 269 l 1,179,-1
 413 251 l 1,180,-1
 422 251 l 1,181,-1
 422 224 l 1,182,-1
 431 224 l 1,183,-1
 431 206 l 1,184,-1
 440 206 l 1,185,-1
 440 179 l 1,186,-1
 449 179 l 1,187,-1
 449 162 l 1,188,-1
 458 162 l 1,189,-1
 458 135 l 1,190,-1
 467 135 l 1,191,-1
 467 153 l 1,192,-1
 476 153 l 1,193,-1
 476 171 l 1,194,-1
 485 171 l 1,195,-1
 485 188 l 1,196,-1
 494 188 l 1,197,-1
 494 215 l 1,198,-1
 503 215 l 1,199,-1
 503 233 l 1,200,-1
 512 233 l 1,201,-1
 512 251 l 1,202,-1
 521 251 l 1,203,-1
 521 269 l 1,204,-1
 530 269 l 1,205,-1
 530 296 l 1,206,-1
 539 296 l 1,207,-1
 539 314 l 1,208,-1
 548 314 l 1,209,-1
 548 332 l 1,210,-1
 557 332 l 1,211,-1
 557 359 l 1,212,-1
 566 359 l 1,213,-1
 566 377 l 1,214,-1
 575 377 l 1,215,-1
 575 404 l 1,216,-1
 584 404 l 1,217,-1
 584 422 l 1,218,-1
 593 422 l 1,219,-1
 593 449 l 1,220,-1
 601 449 l 1,221,-1
 601 467 l 1,222,-1
 610 467 l 1,223,-1
 610 485 l 1,224,-1
 619 485 l 1,225,-1
 619 512 l 1,226,-1
 628 512 l 1,227,-1
 628 529 l 1,228,-1
 637 529 l 1,229,-1
 637 556 l 1,230,-1
 646 556 l 1,231,-1
 646 574 l 1,232,-1
 655 574 l 1,233,-1
 655 601 l 1,234,-1
 664 601 l 1,235,-1
 664 628 l 1,236,-1
 673 628 l 1,237,-1
 673 646 l 1,238,-1
 682 646 l 1,239,-1
 682 673 l 1,240,-1
 691 673 l 1,241,-1
 691 691 l 1,242,-1
 700 691 l 1,243,-1
 700 700 l 1,0,-1
EndSplineSet
EndChar

StartChar: W
Encoding: 87 87 56
Width: 1200
GlyphClass: 1
Flags: W
LayerCount: 2
Fore
SplineSet
659 715 m 1,0,-1
 670 715 l 1,1,-1
 670 724 l 1,2,-1
 659 723 l 1,3,-1
 659 715 l 1,0,-1
626 715 m 1,4,-1
 626 719 l 1,5,-1
 583 715 l 1,6,-1
 626 715 l 1,4,-1
1118 725 m 1,7,-1
 1129 725 l 1,8,-1
 1129 693 l 1,9,-1
 1118 693 l 1,10,-1
 1118 661 l 1,11,-1
 1107 661 l 1,12,-1
 1107 627 l 1,13,-1
 1096 627 l 1,14,-1
 1096 606 l 1,15,-1
 1085 606 l 1,16,-1
 1085 573 l 1,17,-1
 1074 573 l 1,18,-1
 1074 541 l 1,19,-1
 1064 541 l 1,20,-1
 1064 519 l 1,21,-1
 1053 519 l 1,22,-1
 1053 486 l 1,23,-1
 1042 486 l 1,24,-1
 1042 454 l 1,25,-1
 1031 454 l 1,26,-1
 1031 432 l 1,27,-1
 1020 432 l 1,28,-1
 1011 400 l 1,29,-1
 1009 400 l 1,30,-1
 1009 367 l 1,31,-1
 998 367 l 1,32,-1
 998 346 l 1,33,-1
 987 346 l 1,34,-1
 987 312 l 1,35,-1
 976 312 l 1,36,-1
 976 280 l 1,37,-1
 965 280 l 1,38,-1
 965 248 l 1,39,-1
 955 248 l 1,40,-1
 955 226 l 1,41,-1
 943 226 l 1,42,-1
 943 194 l 1,43,-1
 932 194 l 1,44,-1
 932 160 l 1,45,-1
 921 160 l 1,46,-1
 921 139 l 1,47,-1
 910 139 l 1,48,-1
 910 106 l 1,49,-1
 909 106 l 1,50,-1
 905 58 l 1,51,-1
 743 56 l 1,52,-1
 746 117 l 1,53,-1
 735 117 l 1,54,-1
 735 149 l 1,55,-1
 724 149 l 1,56,-1
 724 183 l 1,57,-1
 713 183 l 1,58,-1
 713 204 l 1,59,-1
 703 204 l 1,60,-1
 703 237 l 1,61,-1
 692 237 l 1,62,-1
 692 269 l 1,63,-1
 681 269 l 1,64,-1
 681 302 l 1,65,-1
 670 302 l 1,66,-1
 670 335 l 1,67,-1
 659 335 l 1,68,-1
 659 367 l 1,69,-1
 649 367 l 1,70,-1
 649 400 l 1,71,-1
 637 400 l 1,72,-1
 637 432 l 1,73,-1
 626 432 l 1,74,-1
 626 464 l 1,75,-1
 615 464 l 1,76,-1
 615 475 l 1,77,-1
 604 475 l 1,78,-1
 604 454 l 1,79,-1
 594 454 l 1,80,-1
 594 421 l 1,81,-1
 583 421 l 1,82,-1
 583 389 l 1,83,-1
 572 389 l 1,84,-1
 572 367 l 1,85,-1
 561 367 l 1,86,-1
 561 335 l 1,87,-1
 550 335 l 1,88,-1
 550 302 l 1,89,-1
 540 302 l 1,90,-1
 540 280 l 1,91,-1
 529 280 l 1,92,-1
 529 248 l 1,93,-1
 518 248 l 1,94,-1
 518 215 l 1,95,-1
 507 215 l 1,96,-1
 507 194 l 1,97,-1
 496 194 l 1,98,-1
 496 160 l 1,99,-1
 485 160 l 1,100,-1
 485 128 l 1,101,-1
 474 128 l 1,102,-1
 474 51 l 1,103,-1
 466 47 l 1,104,-1
 467 53 l 1,105,-1
 325 51 l 1,106,-1
 322 106 l 1,107,-1
 311 106 l 1,108,-1
 311 139 l 1,109,-1
 300 139 l 1,110,-1
 300 171 l 1,111,-1
 290 171 l 1,112,-1
 290 204 l 1,113,-1
 279 204 l 1,114,-1
 279 226 l 1,115,-1
 268 226 l 1,116,-1
 268 258 l 1,117,-1
 257 258 l 1,118,-1
 257 291 l 1,119,-1
 246 291 l 1,120,-1
 246 312 l 1,121,-1
 259 312 l 1,122,-1
 248 346 l 1,123,-1
 237 346 l 1,124,-1
 237 378 l 1,125,-1
 226 378 l 1,126,-1
 226 410 l 1,127,-1
 215 410 l 1,128,-1
 215 443 l 1,129,-1
 204 443 l 1,130,-1
 204 464 l 1,131,-1
 193 464 l 1,132,-1
 193 498 l 1,133,-1
 182 498 l 1,134,-1
 182 530 l 1,135,-1
 171 530 l 1,136,-1
 171 562 l 1,137,-1
 160 562 l 1,138,-1
 150 612 l 1,139,-1
 150 595 l 1,140,-1
 144 627 l 1,141,-1
 146 627 l 1,142,-1
 139 661 l 1,143,-1
 144 627 l 1,144,-1
 139 627 l 1,145,-1
 139 661 l 1,146,-1
 128 661 l 1,147,-1
 117 693 l 1,148,-1
 117 715 l 1,149,-1
 268 715 l 1,150,-1
 268 682 l 1,151,-1
 279 682 l 1,152,-1
 279 638 l 1,153,-1
 290 638 l 1,154,-1
 290 606 l 1,155,-1
 300 606 l 1,156,-1
 300 573 l 1,157,-1
 311 573 l 1,158,-1
 311 530 l 1,159,-1
 322 530 l 1,160,-1
 322 498 l 1,161,-1
 334 498 l 1,162,-1
 334 464 l 1,163,-1
 344 464 l 1,164,-1
 344 432 l 1,165,-1
 355 432 l 1,166,-1
 355 389 l 1,167,-1
 366 389 l 1,168,-1
 366 356 l 1,169,-1
 377 356 l 1,170,-1
 377 323 l 1,171,-1
 388 323 l 1,172,-1
 399 291 l 1,173,-1
 398 291 l 1,174,-1
 398 269 l 1,175,-1
 409 269 l 1,176,-1
 409 302 l 1,177,-1
 420 302 l 1,178,-1
 420 335 l 1,179,-1
 431 335 l 1,180,-1
 431 356 l 1,181,-1
 442 356 l 1,182,-1
 442 389 l 1,183,-1
 452 389 l 1,184,-1
 452 421 l 1,185,-1
 463 421 l 1,186,-1
 463 454 l 1,187,-1
 474 454 l 1,188,-1
 474 486 l 1,189,-1
 485 486 l 1,190,-1
 485 519 l 1,191,-1
 496 519 l 1,192,-1
 496 552 l 1,193,-1
 507 552 l 1,194,-1
 507 584 l 1,195,-1
 518 584 l 1,196,-1
 518 616 l 1,197,-1
 529 616 l 1,198,-1
 529 650 l 1,199,-1
 540 650 l 1,200,-1
 540 682 l 1,201,-1
 550 682 l 1,202,-1
 550 715 l 1,203,-1
 561 715 l 1,204,-1
 561 725 l 1,205,-1
 626 725 l 1,206,-1
 659 725 l 1,207,-1
 670 725 l 1,208,-1
 681 725 l 1,209,-1
 681 715 l 1,210,-1
 692 715 l 1,211,-1
 692 682 l 1,212,-1
 703 682 l 1,213,-1
 703 650 l 1,214,-1
 713 650 l 1,215,-1
 713 616 l 1,216,-1
 724 616 l 1,217,-1
 724 584 l 1,218,-1
 735 584 l 1,219,-1
 735 552 l 1,220,-1
 746 552 l 1,221,-1
 746 519 l 1,222,-1
 757 519 l 1,223,-1
 757 486 l 1,224,-1
 767 486 l 1,225,-1
 767 454 l 1,226,-1
 778 454 l 1,227,-1
 778 410 l 1,228,-1
 789 410 l 1,229,-1
 789 378 l 1,230,-1
 800 378 l 1,231,-1
 800 346 l 1,232,-1
 812 346 l 1,233,-1
 812 302 l 1,234,-1
 822 302 l 1,235,-1
 822 269 l 1,236,-1
 833 269 l 1,237,-1
 833 291 l 1,238,-1
 844 291 l 1,239,-1
 844 323 l 1,240,-1
 855 323 l 1,241,-1
 855 356 l 1,242,-1
 866 356 l 1,243,-1
 866 389 l 1,244,-1
 876 389 l 1,245,-1
 876 410 l 1,246,-1
 887 410 l 1,247,-1
 887 443 l 1,248,-1
 898 443 l 1,249,-1
 898 475 l 1,250,-1
 909 475 l 1,251,-1
 909 508 l 1,252,-1
 920 508 l 1,253,-1
 920 541 l 1,254,-1
 930 541 l 1,255,-1
 930 573 l 1,256,-1
 941 573 l 1,257,-1
 941 606 l 1,258,-1
 952 606 l 1,259,-1
 952 638 l 1,260,-1
 964 638 l 1,261,-1
 964 671 l 1,262,-1
 974 671 l 1,263,-1
 974 704 l 1,264,-1
 985 704 l 1,265,-1
 985 725 l 1,266,-1
 1007 725 l 1,267,-1
 1007 715 l 1,268,-1
 1118 715 l 1,269,-1
 1118 725 l 1,7,-1
146 627 m 1,270,-1
 150 612 l 1,271,-1
 150 627 l 1,272,-1
 146 627 l 1,270,-1
EndSplineSet
EndChar

StartChar: X
Encoding: 88 88 57
Width: 867
GlyphClass: 1
Flags: W
LayerCount: 2
Fore
SplineSet
569 700 m 1,0,-1
 726 700 l 1,1,-1
 726 691 l 1,2,-1
 717 691 l 1,3,-1
 717 682 l 1,4,-1
 708 682 l 1,5,-1
 708 663 l 1,6,-1
 698 663 l 1,7,-1
 698 654 l 1,8,-1
 689 654 l 1,9,-1
 689 645 l 1,10,-1
 680 645 l 1,11,-1
 680 636 l 1,12,-1
 671 636 l 1,13,-1
 671 617 l 1,14,-1
 661 617 l 1,15,-1
 661 608 l 1,16,-1
 652 608 l 1,17,-1
 652 599 l 1,18,-1
 643 599 l 1,19,-1
 643 580 l 1,20,-1
 634 580 l 1,21,-1
 634 571 l 1,22,-1
 625 571 l 1,23,-1
 625 553 l 1,24,-1
 615 553 l 1,25,-1
 615 543 l 1,26,-1
 606 543 l 1,27,-1
 606 534 l 1,28,-1
 597 534 l 1,29,-1
 597 516 l 1,30,-1
 588 516 l 1,31,-1
 588 507 l 1,32,-1
 579 507 l 1,33,-1
 579 497 l 1,34,-1
 569 497 l 1,35,-1
 569 488 l 1,36,-1
 560 488 l 1,37,-1
 560 470 l 1,38,-1
 551 470 l 1,39,-1
 551 461 l 1,40,-1
 542 461 l 1,41,-1
 542 442 l 1,42,-1
 533 442 l 1,43,-1
 533 433 l 1,44,-1
 523 433 l 1,45,-1
 523 424 l 1,46,-1
 514 424 l 1,47,-1
 514 414 l 1,48,-1
 505 414 l 1,49,-1
 505 396 l 1,50,-1
 496 396 l 1,51,-1
 496 387 l 1,52,-1
 486 387 l 1,53,-1
 486 378 l 1,54,-1
 496 378 l 1,55,-1
 496 368 l 1,56,-1
 505 368 l 1,57,-1
 505 350 l 1,58,-1
 514 350 l 1,59,-1
 514 341 l 1,60,-1
 523 341 l 1,61,-1
 523 332 l 1,62,-1
 533 332 l 1,63,-1
 533 313 l 1,64,-1
 542 313 l 1,65,-1
 542 304 l 1,66,-1
 551 304 l 1,67,-1
 551 295 l 1,68,-1
 560 295 l 1,69,-1
 560 276 l 1,70,-1
 569 276 l 1,71,-1
 569 267 l 1,72,-1
 579 267 l 1,73,-1
 579 258 l 1,74,-1
 588 258 l 1,75,-1
 588 249 l 1,76,-1
 597 249 l 1,77,-1
 597 230 l 1,78,-1
 606 230 l 1,79,-1
 606 221 l 1,80,-1
 615 221 l 1,81,-1
 615 212 l 1,82,-1
 625 212 l 1,83,-1
 625 193 l 1,84,-1
 634 193 l 1,85,-1
 634 184 l 1,86,-1
 643 184 l 1,87,-1
 643 175 l 1,88,-1
 652 175 l 1,89,-1
 652 157 l 1,90,-1
 661 157 l 1,91,-1
 661 147 l 1,92,-1
 671 147 l 1,93,-1
 671 138 l 1,94,-1
 680 138 l 1,95,-1
 680 120 l 1,96,-1
 689 120 l 1,97,-1
 689 111 l 1,98,-1
 698 111 l 1,99,-1
 698 101 l 1,100,-1
 708 101 l 1,101,-1
 708 92 l 1,102,-1
 717 92 l 1,103,-1
 717 74 l 1,104,-1
 726 74 l 1,105,-1
 726 64 l 1,106,-1
 735 64 l 1,107,-1
 735 55 l 1,108,-1
 744 55 l 1,109,-1
 744 37 l 1,110,-1
 754 37 l 1,111,-1
 754 28 l 1,112,-1
 763 28 l 1,113,-1
 763 18 l 1,114,-1
 772 18 l 1,115,-1
 772 9 l 1,116,-1
 781 9 l 1,117,-1
 781 0 l 1,118,-1
 588 0 l 1,119,-1
 588 18 l 1,120,-1
 579 18 l 1,121,-1
 579 28 l 1,122,-1
 569 28 l 1,123,-1
 569 37 l 1,124,-1
 560 37 l 1,125,-1
 560 55 l 1,126,-1
 551 55 l 1,127,-1
 551 64 l 1,128,-1
 542 64 l 1,129,-1
 542 74 l 1,130,-1
 533 74 l 1,131,-1
 533 83 l 1,132,-1
 523 83 l 1,133,-1
 523 101 l 1,134,-1
 514 101 l 1,135,-1
 514 111 l 1,136,-1
 505 111 l 1,137,-1
 505 120 l 1,138,-1
 496 120 l 1,139,-1
 496 138 l 1,140,-1
 486 138 l 1,141,-1
 486 147 l 1,142,-1
 477 147 l 1,143,-1
 477 166 l 1,144,-1
 468 166 l 1,145,-1
 468 175 l 1,146,-1
 459 175 l 1,147,-1
 459 184 l 1,148,-1
 450 184 l 1,149,-1
 450 203 l 1,150,-1
 440 203 l 1,151,-1
 440 212 l 1,152,-1
 431 212 l 1,153,-1
 431 221 l 1,154,-1
 422 221 l 1,155,-1
 422 239 l 1,156,-1
 413 239 l 1,157,-1
 413 249 l 1,158,-1
 404 249 l 1,159,-1
 404 258 l 1,160,-1
 394 258 l 1,161,-1
 394 239 l 1,162,-1
 385 239 l 1,163,-1
 385 230 l 1,164,-1
 376 230 l 1,165,-1
 376 212 l 1,166,-1
 367 212 l 1,167,-1
 367 203 l 1,168,-1
 358 203 l 1,169,-1
 358 184 l 1,170,-1
 348 184 l 1,171,-1
 348 175 l 1,172,-1
 339 175 l 1,173,-1
 339 166 l 1,174,-1
 330 166 l 1,175,-1
 330 147 l 1,176,-1
 321 147 l 1,177,-1
 321 138 l 1,178,-1
 311 138 l 1,179,-1
 311 120 l 1,180,-1
 302 120 l 1,181,-1
 302 111 l 1,182,-1
 293 111 l 1,183,-1
 293 92 l 1,184,-1
 284 92 l 1,185,-1
 284 83 l 1,186,-1
 275 83 l 1,187,-1
 275 64 l 1,188,-1
 265 64 l 1,189,-1
 265 55 l 1,190,-1
 256 55 l 1,191,-1
 256 46 l 1,192,-1
 247 46 l 1,193,-1
 247 28 l 1,194,-1
 238 28 l 1,195,-1
 238 18 l 1,196,-1
 229 18 l 1,197,-1
 229 0 l 1,198,-1
 72 0 l 1,199,-1
 72 9 l 1,200,-1
 81 9 l 1,201,-1
 81 28 l 1,202,-1
 90 28 l 1,203,-1
 90 37 l 1,204,-1
 100 37 l 1,205,-1
 100 55 l 1,206,-1
 109 55 l 1,207,-1
 109 64 l 1,208,-1
 118 64 l 1,209,-1
 118 74 l 1,210,-1
 127 74 l 1,211,-1
 127 92 l 1,212,-1
 136 92 l 1,213,-1
 136 101 l 1,214,-1
 146 101 l 1,215,-1
 146 111 l 1,216,-1
 155 111 l 1,217,-1
 155 129 l 1,218,-1
 164 129 l 1,219,-1
 164 138 l 1,220,-1
 173 138 l 1,221,-1
 173 157 l 1,222,-1
 183 157 l 1,223,-1
 183 166 l 1,224,-1
 192 166 l 1,225,-1
 192 175 l 1,226,-1
 201 175 l 1,227,-1
 201 193 l 1,228,-1
 210 193 l 1,229,-1
 210 203 l 1,230,-1
 219 203 l 1,231,-1
 219 212 l 1,232,-1
 229 212 l 1,233,-1
 229 230 l 1,234,-1
 238 230 l 1,235,-1
 238 239 l 1,236,-1
 247 239 l 1,237,-1
 247 258 l 1,238,-1
 256 258 l 1,239,-1
 256 267 l 1,240,-1
 265 267 l 1,241,-1
 265 276 l 1,242,-1
 275 276 l 1,243,-1
 275 295 l 1,244,-1
 284 295 l 1,245,-1
 284 304 l 1,246,-1
 293 304 l 1,247,-1
 293 322 l 1,248,-1
 302 322 l 1,249,-1
 302 332 l 1,250,-1
 311 332 l 1,251,-1
 311 350 l 1,252,-1
 321 350 l 1,253,-1
 321 359 l 1,254,-1
 330 359 l 1,255,-1
 330 368 l 1,256,-1
 321 368 l 1,257,-1
 321 387 l 1,258,-1
 311 387 l 1,259,-1
 311 396 l 1,260,-1
 302 396 l 1,261,-1
 302 414 l 1,262,-1
 293 414 l 1,263,-1
 293 424 l 1,264,-1
 284 424 l 1,265,-1
 284 433 l 1,266,-1
 275 433 l 1,267,-1
 275 451 l 1,268,-1
 265 451 l 1,269,-1
 265 461 l 1,270,-1
 256 461 l 1,271,-1
 256 470 l 1,272,-1
 247 470 l 1,273,-1
 247 488 l 1,274,-1
 238 488 l 1,275,-1
 238 497 l 1,276,-1
 229 497 l 1,277,-1
 229 516 l 1,278,-1
 219 516 l 1,279,-1
 219 525 l 1,280,-1
 210 525 l 1,281,-1
 210 534 l 1,282,-1
 201 534 l 1,283,-1
 201 553 l 1,284,-1
 192 553 l 1,285,-1
 192 562 l 1,286,-1
 183 562 l 1,287,-1
 183 571 l 1,288,-1
 173 571 l 1,289,-1
 173 589 l 1,290,-1
 164 589 l 1,291,-1
 164 599 l 1,292,-1
 155 599 l 1,293,-1
 155 617 l 1,294,-1
 146 617 l 1,295,-1
 146 626 l 1,296,-1
 136 626 l 1,297,-1
 136 636 l 1,298,-1
 127 636 l 1,299,-1
 127 654 l 1,300,-1
 118 654 l 1,301,-1
 118 663 l 1,302,-1
 109 663 l 1,303,-1
 109 682 l 1,304,-1
 100 682 l 1,305,-1
 100 691 l 1,306,-1
 90 691 l 1,307,-1
 90 700 l 1,308,-1
 275 700 l 1,309,-1
 275 691 l 1,310,-1
 284 691 l 1,311,-1
 284 682 l 1,312,-1
 293 682 l 1,313,-1
 293 663 l 1,314,-1
 302 663 l 1,315,-1
 302 654 l 1,316,-1
 311 654 l 1,317,-1
 311 636 l 1,318,-1
 321 636 l 1,319,-1
 321 626 l 1,320,-1
 330 626 l 1,321,-1
 330 608 l 1,322,-1
 339 608 l 1,323,-1
 339 589 l 1,324,-1
 348 589 l 1,325,-1
 348 580 l 1,326,-1
 358 580 l 1,327,-1
 358 562 l 1,328,-1
 367 562 l 1,329,-1
 367 553 l 1,330,-1
 376 553 l 1,331,-1
 376 534 l 1,332,-1
 385 534 l 1,333,-1
 385 525 l 1,334,-1
 394 525 l 1,335,-1
 394 507 l 1,336,-1
 404 507 l 1,337,-1
 404 497 l 1,338,-1
 413 497 l 1,339,-1
 413 479 l 1,340,-1
 422 479 l 1,341,-1
 422 497 l 1,342,-1
 431 497 l 1,343,-1
 431 507 l 1,344,-1
 440 507 l 1,345,-1
 440 516 l 1,346,-1
 450 516 l 1,347,-1
 450 534 l 1,348,-1
 459 534 l 1,349,-1
 459 543 l 1,350,-1
 468 543 l 1,351,-1
 468 562 l 1,352,-1
 477 562 l 1,353,-1
 477 571 l 1,354,-1
 486 571 l 1,355,-1
 486 580 l 1,356,-1
 496 580 l 1,357,-1
 496 599 l 1,358,-1
 505 599 l 1,359,-1
 505 608 l 1,360,-1
 514 608 l 1,361,-1
 514 626 l 1,362,-1
 523 626 l 1,363,-1
 523 636 l 1,364,-1
 533 636 l 1,365,-1
 533 645 l 1,366,-1
 542 645 l 1,367,-1
 542 663 l 1,368,-1
 551 663 l 1,369,-1
 551 672 l 1,370,-1
 560 672 l 1,371,-1
 560 682 l 1,372,-1
 569 682 l 1,373,-1
 569 700 l 1,0,-1
EndSplineSet
EndChar

StartChar: Y
Encoding: 89 89 58
Width: 647
GlyphClass: 1
Flags: W
LayerCount: 2
Fore
SplineSet
114 127 m 1,0,-1
 139 127 l 1,1,-1
 139 118 l 1,2,-1
 156 118 l 1,3,-1
 156 110 l 1,4,-1
 182 110 l 1,5,-1
 182 101 l 1,6,-1
 215 101 l 1,7,-1
 215 93 l 1,8,-1
 359 93 l 1,9,-1
 359 101 l 1,10,-1
 376 101 l 1,11,-1
 376 110 l 1,12,-1
 392 110 l 1,13,-1
 392 118 l 1,14,-1
 409 118 l 1,15,-1
 409 127 l 1,16,-1
 418 127 l 1,17,-1
 418 143 l 1,18,-1
 426 143 l 1,19,-1
 426 160 l 1,20,-1
 435 160 l 1,21,-1
 435 186 l 1,22,-1
 443 186 l 1,23,-1
 443 270 l 1,24,-1
 435 270 l 1,25,-1
 435 261 l 1,26,-1
 426 261 l 1,27,-1
 426 253 l 1,28,-1
 418 253 l 1,29,-1
 418 245 l 1,30,-1
 401 245 l 1,31,-1
 401 236 l 1,32,-1
 392 236 l 1,33,-1
 392 228 l 1,34,-1
 376 228 l 1,35,-1
 376 219 l 1,36,-1
 350 219 l 1,37,-1
 350 211 l 1,38,-1
 317 211 l 1,39,-1
 317 202 l 1,40,-1
 207 202 l 1,41,-1
 207 211 l 1,42,-1
 173 211 l 1,43,-1
 173 219 l 1,44,-1
 156 219 l 1,45,-1
 156 228 l 1,46,-1
 139 228 l 1,47,-1
 139 236 l 1,48,-1
 131 236 l 1,49,-1
 131 245 l 1,50,-1
 123 245 l 1,51,-1
 123 253 l 1,52,-1
 114 253 l 1,53,-1
 114 261 l 1,54,-1
 106 261 l 1,55,-1
 106 270 l 1,56,-1
 97 270 l 1,57,-1
 97 287 l 1,58,-1
 89 287 l 1,59,-1
 89 304 l 1,60,-1
 80 304 l 1,61,-1
 80 337 l 1,62,-1
 72 337 l 1,63,-1
 72 700 l 1,64,-1
 199 700 l 1,65,-1
 199 354 l 1,66,-1
 207 354 l 1,67,-1
 207 337 l 1,68,-1
 215 337 l 1,69,-1
 215 329 l 1,70,-1
 224 329 l 1,71,-1
 224 320 l 1,72,-1
 232 320 l 1,73,-1
 232 312 l 1,74,-1
 249 312 l 1,75,-1
 249 304 l 1,76,-1
 359 304 l 1,77,-1
 359 312 l 1,78,-1
 384 312 l 1,79,-1
 384 320 l 1,80,-1
 401 320 l 1,81,-1
 401 329 l 1,82,-1
 409 329 l 1,83,-1
 409 337 l 1,84,-1
 426 337 l 1,85,-1
 426 346 l 1,86,-1
 435 346 l 1,87,-1
 435 354 l 1,88,-1
 443 354 l 1,89,-1
 443 683 l 1,90,-1
 435 683 l 1,91,-1
 435 692 l 1,92,-1
 443 692 l 1,93,-1
 443 700 l 1,94,-1
 561 700 l 1,95,-1
 561 160 l 1,96,-1
 553 160 l 1,97,-1
 553 135 l 1,98,-1
 544 135 l 1,99,-1
 544 110 l 1,100,-1
 536 110 l 1,101,-1
 536 101 l 1,102,-1
 527 101 l 1,103,-1
 527 84 l 1,104,-1
 519 84 l 1,105,-1
 519 76 l 1,106,-1
 511 76 l 1,107,-1
 511 67 l 1,108,-1
 502 67 l 1,109,-1
 502 59 l 1,110,-1
 494 59 l 1,111,-1
 494 51 l 1,112,-1
 485 51 l 1,113,-1
 485 42 l 1,114,-1
 468 42 l 1,115,-1
 468 34 l 1,116,-1
 460 34 l 1,117,-1
 460 25 l 1,118,-1
 443 25 l 1,119,-1
 443 17 l 1,120,-1
 418 17 l 1,121,-1
 418 8 l 1,122,-1
 376 8 l 1,123,-1
 376 0 l 1,124,-1
 207 0 l 1,125,-1
 207 8 l 1,126,-1
 165 8 l 1,127,-1
 165 17 l 1,128,-1
 139 17 l 1,129,-1
 139 25 l 1,130,-1
 123 25 l 1,131,-1
 123 118 l 1,132,-1
 114 118 l 1,133,-1
 114 127 l 1,0,-1
EndSplineSet
EndChar

StartChar: Z
Encoding: 90 90 59
Width: 749
GlyphClass: 1
Flags: W
LayerCount: 2
Fore
SplineSet
651 579 m 1,0,-1
 651 567 l 1,1,-1
 639 567 l 1,2,-1
 639 555 l 1,3,-1
 627 555 l 1,4,-1
 627 531 l 1,5,-1
 615 531 l 1,6,-1
 615 519 l 1,7,-1
 603 519 l 1,8,-1
 603 507 l 1,9,-1
 591 507 l 1,10,-1
 591 495 l 1,11,-1
 579 495 l 1,12,-1
 579 471 l 1,13,-1
 567 471 l 1,14,-1
 567 459 l 1,15,-1
 555 459 l 1,16,-1
 555 447 l 1,17,-1
 543 447 l 1,18,-1
 543 434 l 1,19,-1
 531 434 l 1,20,-1
 531 410 l 1,21,-1
 519 410 l 1,22,-1
 519 398 l 1,23,-1
 506 398 l 1,24,-1
 506 386 l 1,25,-1
 494 386 l 1,26,-1
 494 374 l 1,27,-1
 482 374 l 1,28,-1
 482 350 l 1,29,-1
 470 350 l 1,30,-1
 470 338 l 1,31,-1
 458 338 l 1,32,-1
 458 326 l 1,33,-1
 446 326 l 1,34,-1
 446 302 l 1,35,-1
 434 302 l 1,36,-1
 434 290 l 1,37,-1
 422 290 l 1,38,-1
 422 278 l 1,39,-1
 410 278 l 1,40,-1
 410 266 l 1,41,-1
 398 266 l 1,42,-1
 398 241 l 1,43,-1
 386 241 l 1,44,-1
 386 229 l 1,45,-1
 374 229 l 1,46,-1
 374 217 l 1,47,-1
 362 217 l 1,48,-1
 362 205 l 1,49,-1
 350 205 l 1,50,-1
 350 181 l 1,51,-1
 338 181 l 1,52,-1
 338 169 l 1,53,-1
 325 169 l 1,54,-1
 325 157 l 1,55,-1
 313 157 l 1,56,-1
 313 145 l 1,57,-1
 301 145 l 1,58,-1
 301 133 l 1,59,-1
 663 133 l 1,60,-1
 662 33 l 1,61,-1
 68 31 l 1,62,-1
 72 109 l 1,63,-1
 84 109 l 1,64,-1
 84 133 l 1,65,-1
 96 133 l 1,66,-1
 96 145 l 1,67,-1
 108 145 l 1,68,-1
 108 157 l 1,69,-1
 120 157 l 1,70,-1
 120 169 l 1,71,-1
 132 169 l 1,72,-1
 132 181 l 1,73,-1
 144 181 l 1,74,-1
 144 205 l 1,75,-1
 156 205 l 1,76,-1
 156 217 l 1,77,-1
 169 217 l 1,78,-1
 169 229 l 1,79,-1
 181 229 l 1,80,-1
 181 241 l 1,81,-1
 193 241 l 1,82,-1
 193 266 l 1,83,-1
 205 266 l 1,84,-1
 205 278 l 1,85,-1
 217 278 l 1,86,-1
 217 290 l 1,87,-1
 229 290 l 1,88,-1
 229 302 l 1,89,-1
 241 302 l 1,90,-1
 241 326 l 1,91,-1
 253 326 l 1,92,-1
 253 338 l 1,93,-1
 265 338 l 1,94,-1
 265 350 l 1,95,-1
 277 350 l 1,96,-1
 277 362 l 1,97,-1
 289 362 l 1,98,-1
 289 386 l 1,99,-1
 301 386 l 1,100,-1
 301 398 l 1,101,-1
 313 398 l 1,102,-1
 313 410 l 1,103,-1
 325 410 l 1,104,-1
 325 422 l 1,105,-1
 338 422 l 1,106,-1
 338 447 l 1,107,-1
 350 447 l 1,108,-1
 350 459 l 1,109,-1
 362 459 l 1,110,-1
 362 471 l 1,111,-1
 374 471 l 1,112,-1
 374 483 l 1,113,-1
 386 483 l 1,114,-1
 386 507 l 1,115,-1
 398 507 l 1,116,-1
 398 519 l 1,117,-1
 410 519 l 1,118,-1
 410 531 l 1,119,-1
 422 531 l 1,120,-1
 422 543 l 1,121,-1
 434 543 l 1,122,-1
 434 555 l 1,123,-1
 446 555 l 1,124,-1
 446 567 l 1,125,-1
 72 567 l 1,126,-1
 68 674 l 1,127,-1
 662 672 l 1,128,-1
 663 579 l 1,129,-1
 651 579 l 1,0,-1
EndSplineSet
EndChar

StartChar: a
Encoding: 97 97 60
Width: 651
GlyphClass: 1
Flags: W
LayerCount: 2
Fore
SplineSet
231 510 m 1,0,-1
 390 510 l 1,1,-1
 390 502 l 1,2,-1
 423 502 l 1,3,-1
 423 493 l 1,4,-1
 448 493 l 1,5,-1
 448 485 l 1,6,-1
 457 485 l 1,7,-1
 457 477 l 1,8,-1
 473 477 l 1,9,-1
 473 468 l 1,10,-1
 482 468 l 1,11,-1
 482 460 l 1,12,-1
 498 460 l 1,13,-1
 498 451 l 1,14,-1
 507 451 l 1,15,-1
 507 435 l 1,16,-1
 515 435 l 1,17,-1
 515 426 l 1,18,-1
 523 426 l 1,19,-1
 523 410 l 1,20,-1
 532 410 l 1,21,-1
 532 393 l 1,22,-1
 540 393 l 1,23,-1
 540 360 l 1,24,-1
 549 360 l 1,25,-1
 549 75 l 1,26,-1
 557 75 l 1,27,-1
 557 25 l 1,28,-1
 565 25 l 1,29,-1
 565 8 l 1,30,-1
 448 8 l 1,31,-1
 448 17 l 1,32,-1
 440 17 l 1,33,-1
 440 42 l 1,34,-1
 432 42 l 1,35,-1
 432 50 l 1,36,-1
 423 50 l 1,37,-1
 423 42 l 1,38,-1
 406 42 l 1,39,-1
 406 33 l 1,40,-1
 390 33 l 1,41,-1
 390 25 l 1,42,-1
 365 25 l 1,43,-1
 365 17 l 1,44,-1
 340 17 l 1,45,-1
 340 8 l 1,46,-1
 298 8 l 1,47,-1
 298 0 l 1,48,-1
 214 0 l 1,49,-1
 214 8 l 1,50,-1
 172 8 l 1,51,-1
 172 17 l 1,52,-1
 156 17 l 1,53,-1
 156 25 l 1,54,-1
 139 25 l 1,55,-1
 139 33 l 1,56,-1
 122 33 l 1,57,-1
 122 42 l 1,58,-1
 114 42 l 1,59,-1
 114 50 l 1,60,-1
 105 50 l 1,61,-1
 105 59 l 1,62,-1
 97 59 l 1,63,-1
 97 67 l 1,64,-1
 89 67 l 1,65,-1
 89 84 l 1,66,-1
 80 84 l 1,67,-1
 80 100 l 1,68,-1
 72 100 l 1,69,-1
 72 192 l 1,70,-1
 80 192 l 1,71,-1
 80 209 l 1,72,-1
 89 209 l 1,73,-1
 89 226 l 1,74,-1
 97 226 l 1,75,-1
 97 234 l 1,76,-1
 105 234 l 1,77,-1
 105 242 l 1,78,-1
 114 242 l 1,79,-1
 114 251 l 1,80,-1
 122 251 l 1,81,-1
 122 259 l 1,82,-1
 139 259 l 1,83,-1
 139 268 l 1,84,-1
 147 268 l 1,85,-1
 147 276 l 1,86,-1
 172 276 l 1,87,-1
 172 284 l 1,88,-1
 197 284 l 1,89,-1
 197 293 l 1,90,-1
 231 293 l 1,91,-1
 231 301 l 1,92,-1
 314 301 l 1,93,-1
 314 309 l 1,94,-1
 423 309 l 1,95,-1
 423 343 l 1,96,-1
 415 343 l 1,97,-1
 415 368 l 1,98,-1
 406 368 l 1,99,-1
 406 385 l 1,100,-1
 398 385 l 1,101,-1
 398 393 l 1,102,-1
 381 393 l 1,103,-1
 381 401 l 1,104,-1
 373 401 l 1,105,-1
 373 410 l 1,106,-1
 348 410 l 1,107,-1
 348 418 l 1,108,-1
 231 418 l 1,109,-1
 231 410 l 1,110,-1
 189 410 l 1,111,-1
 189 401 l 1,112,-1
 156 401 l 1,113,-1
 156 393 l 1,114,-1
 139 393 l 1,115,-1
 139 385 l 1,116,-1
 114 385 l 1,117,-1
 114 477 l 1,118,-1
 122 477 l 1,119,-1
 122 485 l 1,120,-1
 147 485 l 1,121,-1
 147 493 l 1,122,-1
 189 493 l 1,123,-1
 189 502 l 1,124,-1
 231 502 l 1,125,-1
 231 510 l 1,0,-1
306 84 m 1,126,-1
 306 92 l 1,127,-1
 340 92 l 1,128,-1
 340 100 l 1,129,-1
 365 100 l 1,130,-1
 365 109 l 1,131,-1
 373 109 l 1,132,-1
 373 117 l 1,133,-1
 390 117 l 1,134,-1
 390 125 l 1,135,-1
 406 125 l 1,136,-1
 406 134 l 1,137,-1
 415 134 l 1,138,-1
 415 142 l 1,139,-1
 423 142 l 1,140,-1
 423 234 l 1,141,-1
 348 234 l 1,142,-1
 348 226 l 1,143,-1
 273 226 l 1,144,-1
 273 217 l 1,145,-1
 239 217 l 1,146,-1
 239 209 l 1,147,-1
 222 209 l 1,148,-1
 222 201 l 1,149,-1
 214 201 l 1,150,-1
 214 192 l 1,151,-1
 206 192 l 1,152,-1
 206 184 l 1,153,-1
 197 184 l 1,154,-1
 197 117 l 1,155,-1
 206 117 l 1,156,-1
 206 109 l 1,157,-1
 214 109 l 1,158,-1
 214 100 l 1,159,-1
 222 100 l 1,160,-1
 222 92 l 1,161,-1
 248 92 l 1,162,-1
 248 84 l 1,163,-1
 306 84 l 1,126,-1
EndSplineSet
EndChar

StartChar: b
Encoding: 98 98 61
Width: 691
GlyphClass: 1
Flags: W
LayerCount: 2
Fore
SplineSet
314 508 m 1,0,-1
 430 508 l 1,1,-1
 430 500 l 1,2,-1
 464 500 l 1,3,-1
 464 492 l 1,4,-1
 480 492 l 1,5,-1
 480 483 l 1,6,-1
 497 483 l 1,7,-1
 497 475 l 1,8,-1
 514 475 l 1,9,-1
 514 467 l 1,10,-1
 522 467 l 1,11,-1
 522 458 l 1,12,-1
 530 458 l 1,13,-1
 530 450 l 1,14,-1
 539 450 l 1,15,-1
 539 442 l 1,16,-1
 547 442 l 1,17,-1
 547 433 l 1,18,-1
 555 433 l 1,19,-1
 555 425 l 1,20,-1
 564 425 l 1,21,-1
 564 408 l 1,22,-1
 572 408 l 1,23,-1
 572 400 l 1,24,-1
 580 400 l 1,25,-1
 580 383 l 1,26,-1
 589 383 l 1,27,-1
 589 358 l 1,28,-1
 597 358 l 1,29,-1
 597 325 l 1,30,-1
 605 325 l 1,31,-1
 605 183 l 1,32,-1
 597 183 l 1,33,-1
 597 158 l 1,34,-1
 589 158 l 1,35,-1
 589 133 l 1,36,-1
 580 133 l 1,37,-1
 580 117 l 1,38,-1
 572 117 l 1,39,-1
 572 108 l 1,40,-1
 564 108 l 1,41,-1
 564 92 l 1,42,-1
 555 92 l 1,43,-1
 555 83 l 1,44,-1
 547 83 l 1,45,-1
 547 75 l 1,46,-1
 539 75 l 1,47,-1
 539 67 l 1,48,-1
 530 67 l 1,49,-1
 530 58 l 1,50,-1
 522 58 l 1,51,-1
 522 50 l 1,52,-1
 505 50 l 1,53,-1
 505 42 l 1,54,-1
 497 42 l 1,55,-1
 497 33 l 1,56,-1
 480 33 l 1,57,-1
 480 25 l 1,58,-1
 464 25 l 1,59,-1
 464 17 l 1,60,-1
 430 17 l 1,61,-1
 430 8 l 1,62,-1
 397 8 l 1,63,-1
 397 0 l 1,64,-1
 322 0 l 1,65,-1
 322 8 l 1,66,-1
 272 8 l 1,67,-1
 272 17 l 1,68,-1
 247 17 l 1,69,-1
 247 25 l 1,70,-1
 230 25 l 1,71,-1
 230 33 l 1,72,-1
 214 33 l 1,73,-1
 214 42 l 1,74,-1
 197 42 l 1,75,-1
 197 8 l 1,76,-1
 80 8 l 1,77,-1
 80 17 l 1,78,-1
 72 17 l 1,79,-1
 72 700 l 1,80,-1
 197 700 l 1,81,-1
 197 458 l 1,82,-1
 205 458 l 1,83,-1
 205 467 l 1,84,-1
 214 467 l 1,85,-1
 214 475 l 1,86,-1
 230 475 l 1,87,-1
 230 483 l 1,88,-1
 247 483 l 1,89,-1
 247 492 l 1,90,-1
 272 492 l 1,91,-1
 272 500 l 1,92,-1
 314 500 l 1,93,-1
 314 508 l 1,0,-1
380 100 m 1,94,-1
 380 108 l 1,95,-1
 405 108 l 1,96,-1
 405 117 l 1,97,-1
 422 117 l 1,98,-1
 422 125 l 1,99,-1
 430 125 l 1,100,-1
 430 133 l 1,101,-1
 439 133 l 1,102,-1
 439 142 l 1,103,-1
 447 142 l 1,104,-1
 447 150 l 1,105,-1
 455 150 l 1,106,-1
 455 158 l 1,107,-1
 464 158 l 1,108,-1
 464 183 l 1,109,-1
 472 183 l 1,110,-1
 472 208 l 1,111,-1
 480 208 l 1,112,-1
 480 308 l 1,113,-1
 472 308 l 1,114,-1
 472 342 l 1,115,-1
 464 342 l 1,116,-1
 464 358 l 1,117,-1
 455 358 l 1,118,-1
 455 367 l 1,119,-1
 447 367 l 1,120,-1
 447 375 l 1,121,-1
 439 375 l 1,122,-1
 439 383 l 1,123,-1
 430 383 l 1,124,-1
 430 392 l 1,125,-1
 414 392 l 1,126,-1
 414 400 l 1,127,-1
 389 400 l 1,128,-1
 389 408 l 1,129,-1
 280 408 l 1,130,-1
 280 400 l 1,131,-1
 255 400 l 1,132,-1
 255 392 l 1,133,-1
 239 392 l 1,134,-1
 239 383 l 1,135,-1
 222 383 l 1,136,-1
 222 375 l 1,137,-1
 205 375 l 1,138,-1
 205 367 l 1,139,-1
 197 367 l 1,140,-1
 197 133 l 1,141,-1
 205 133 l 1,142,-1
 205 125 l 1,143,-1
 222 125 l 1,144,-1
 222 117 l 1,145,-1
 239 117 l 1,146,-1
 239 108 l 1,147,-1
 272 108 l 1,148,-1
 272 100 l 1,149,-1
 380 100 l 1,94,-1
EndSplineSet
EndChar

StartChar: c
Encoding: 99 99 62
Width: 598
GlyphClass: 1
Flags: W
LayerCount: 2
Fore
SplineSet
499 139 m 1,0,-1
 508 139 l 1,1,-1
 508 38 l 1,2,-1
 499 38 l 1,3,-1
 499 30 l 1,4,-1
 474 30 l 1,5,-1
 474 22 l 1,6,-1
 441 22 l 1,7,-1
 441 13 l 1,8,-1
 391 13 l 1,9,-1
 391 5 l 1,10,-1
 282 5 l 1,11,-1
 282 13 l 1,12,-1
 240 13 l 1,13,-1
 240 22 l 1,14,-1
 215 22 l 1,15,-1
 215 30 l 1,16,-1
 198 30 l 1,17,-1
 198 38 l 1,18,-1
 182 38 l 1,19,-1
 182 47 l 1,20,-1
 165 47 l 1,21,-1
 165 55 l 1,22,-1
 157 55 l 1,23,-1
 157 64 l 1,24,-1
 148 64 l 1,25,-1
 148 72 l 1,26,-1
 140 72 l 1,27,-1
 140 80 l 1,28,-1
 132 80 l 1,29,-1
 132 89 l 1,30,-1
 123 89 l 1,31,-1
 123 97 l 1,32,-1
 115 97 l 1,33,-1
 115 105 l 1,34,-1
 106 105 l 1,35,-1
 106 122 l 1,36,-1
 98 122 l 1,37,-1
 98 139 l 1,38,-1
 90 139 l 1,39,-1
 90 155 l 1,40,-1
 81 155 l 1,41,-1
 81 189 l 1,42,-1
 73 189 l 1,43,-1
 73 339 l 1,44,-1
 81 339 l 1,45,-1
 81 365 l 1,46,-1
 90 365 l 1,47,-1
 90 390 l 1,48,-1
 98 390 l 1,49,-1
 98 398 l 1,50,-1
 106 398 l 1,51,-1
 106 415 l 1,52,-1
 115 415 l 1,53,-1
 115 423 l 1,54,-1
 123 423 l 1,55,-1
 123 440 l 1,56,-1
 132 440 l 1,57,-1
 132 448 l 1,58,-1
 140 448 l 1,59,-1
 140 456 l 1,60,-1
 157 456 l 1,61,-1
 157 465 l 1,62,-1
 165 465 l 1,63,-1
 165 473 l 1,64,-1
 182 473 l 1,65,-1
 182 482 l 1,66,-1
 198 482 l 1,67,-1
 198 490 l 1,68,-1
 215 490 l 1,69,-1
 215 498 l 1,70,-1
 240 498 l 1,71,-1
 240 507 l 1,72,-1
 274 507 l 1,73,-1
 274 515 l 1,74,-1
 441 515 l 1,75,-1
 441 507 l 1,76,-1
 474 507 l 1,77,-1
 474 498 l 1,78,-1
 499 498 l 1,79,-1
 499 490 l 1,80,-1
 508 490 l 1,81,-1
 508 398 l 1,82,-1
 483 398 l 1,83,-1
 483 406 l 1,84,-1
 449 406 l 1,85,-1
 449 415 l 1,86,-1
 416 415 l 1,87,-1
 416 423 l 1,88,-1
 307 423 l 1,89,-1
 307 415 l 1,90,-1
 282 415 l 1,91,-1
 282 406 l 1,92,-1
 257 406 l 1,93,-1
 257 398 l 1,94,-1
 249 398 l 1,95,-1
 249 390 l 1,96,-1
 240 390 l 1,97,-1
 240 381 l 1,98,-1
 232 381 l 1,99,-1
 232 373 l 1,100,-1
 223 373 l 1,101,-1
 223 365 l 1,102,-1
 215 365 l 1,103,-1
 215 348 l 1,104,-1
 207 348 l 1,105,-1
 207 331 l 1,106,-1
 198 331 l 1,107,-1
 198 189 l 1,108,-1
 207 189 l 1,109,-1
 207 172 l 1,110,-1
 215 172 l 1,111,-1
 215 155 l 1,112,-1
 223 155 l 1,113,-1
 223 147 l 1,114,-1
 232 147 l 1,115,-1
 232 139 l 1,116,-1
 240 139 l 1,117,-1
 240 130 l 1,118,-1
 249 130 l 1,119,-1
 249 122 l 1,120,-1
 265 122 l 1,121,-1
 265 114 l 1,122,-1
 299 114 l 1,123,-1
 299 105 l 1,124,-1
 416 105 l 1,125,-1
 416 114 l 1,126,-1
 449 114 l 1,127,-1
 449 122 l 1,128,-1
 474 122 l 1,129,-1
 474 130 l 1,130,-1
 499 130 l 1,131,-1
 499 139 l 1,0,-1
EndSplineSet
EndChar

StartChar: d
Encoding: 100 100 63
Width: 682
GlyphClass: 1
Flags: W
LayerCount: 2
Fore
SplineSet
255 508 m 1,0,-1
 372 508 l 1,1,-1
 372 500 l 1,2,-1
 405 500 l 1,3,-1
 405 492 l 1,4,-1
 430 492 l 1,5,-1
 430 483 l 1,6,-1
 447 483 l 1,7,-1
 447 475 l 1,8,-1
 464 475 l 1,9,-1
 464 467 l 1,10,-1
 472 467 l 1,11,-1
 472 700 l 1,12,-1
 597 700 l 1,13,-1
 597 8 l 1,14,-1
 489 8 l 1,15,-1
 489 17 l 1,16,-1
 480 17 l 1,17,-1
 480 58 l 1,18,-1
 464 58 l 1,19,-1
 464 50 l 1,20,-1
 455 50 l 1,21,-1
 455 42 l 1,22,-1
 447 42 l 1,23,-1
 447 33 l 1,24,-1
 430 33 l 1,25,-1
 430 25 l 1,26,-1
 414 25 l 1,27,-1
 414 17 l 1,28,-1
 389 17 l 1,29,-1
 389 8 l 1,30,-1
 339 8 l 1,31,-1
 339 0 l 1,32,-1
 247 0 l 1,33,-1
 247 8 l 1,34,-1
 222 8 l 1,35,-1
 222 17 l 1,36,-1
 197 17 l 1,37,-1
 197 25 l 1,38,-1
 180 25 l 1,39,-1
 180 33 l 1,40,-1
 172 33 l 1,41,-1
 172 42 l 1,42,-1
 155 42 l 1,43,-1
 155 50 l 1,44,-1
 147 50 l 1,45,-1
 147 58 l 1,46,-1
 139 58 l 1,47,-1
 139 67 l 1,48,-1
 130 67 l 1,49,-1
 130 75 l 1,50,-1
 122 75 l 1,51,-1
 122 83 l 1,52,-1
 114 83 l 1,53,-1
 114 100 l 1,54,-1
 105 100 l 1,55,-1
 105 117 l 1,56,-1
 97 117 l 1,57,-1
 97 133 l 1,58,-1
 89 133 l 1,59,-1
 89 158 l 1,60,-1
 80 158 l 1,61,-1
 80 200 l 1,62,-1
 72 200 l 1,63,-1
 72 292 l 1,64,-1
 80 292 l 1,65,-1
 80 342 l 1,66,-1
 89 342 l 1,67,-1
 89 367 l 1,68,-1
 97 367 l 1,69,-1
 97 383 l 1,70,-1
 105 383 l 1,71,-1
 105 400 l 1,72,-1
 114 400 l 1,73,-1
 114 408 l 1,74,-1
 122 408 l 1,75,-1
 122 425 l 1,76,-1
 130 425 l 1,77,-1
 130 433 l 1,78,-1
 139 433 l 1,79,-1
 139 442 l 1,80,-1
 147 442 l 1,81,-1
 147 450 l 1,82,-1
 155 450 l 1,83,-1
 155 458 l 1,84,-1
 164 458 l 1,85,-1
 164 467 l 1,86,-1
 180 467 l 1,87,-1
 180 475 l 1,88,-1
 189 475 l 1,89,-1
 189 483 l 1,90,-1
 205 483 l 1,91,-1
 205 492 l 1,92,-1
 230 492 l 1,93,-1
 230 500 l 1,94,-1
 255 500 l 1,95,-1
 255 508 l 1,0,-1
380 100 m 1,96,-1
 380 108 l 1,97,-1
 414 108 l 1,98,-1
 414 117 l 1,99,-1
 430 117 l 1,100,-1
 430 125 l 1,101,-1
 447 125 l 1,102,-1
 447 133 l 1,103,-1
 464 133 l 1,104,-1
 464 142 l 1,105,-1
 472 142 l 1,106,-1
 472 383 l 1,107,-1
 464 383 l 1,108,-1
 464 392 l 1,109,-1
 447 392 l 1,110,-1
 447 400 l 1,111,-1
 414 400 l 1,112,-1
 414 408 l 1,113,-1
 289 408 l 1,114,-1
 289 400 l 1,115,-1
 272 400 l 1,116,-1
 272 392 l 1,117,-1
 255 392 l 1,118,-1
 255 383 l 1,119,-1
 239 383 l 1,120,-1
 239 375 l 1,121,-1
 230 375 l 1,122,-1
 230 358 l 1,123,-1
 222 358 l 1,124,-1
 222 350 l 1,125,-1
 214 350 l 1,126,-1
 214 333 l 1,127,-1
 205 333 l 1,128,-1
 205 300 l 1,129,-1
 197 300 l 1,130,-1
 197 208 l 1,131,-1
 205 208 l 1,132,-1
 205 183 l 1,133,-1
 214 183 l 1,134,-1
 214 158 l 1,135,-1
 222 158 l 1,136,-1
 222 150 l 1,137,-1
 230 150 l 1,138,-1
 230 133 l 1,139,-1
 247 133 l 1,140,-1
 247 125 l 1,141,-1
 255 125 l 1,142,-1
 255 117 l 1,143,-1
 272 117 l 1,144,-1
 272 108 l 1,145,-1
 297 108 l 1,146,-1
 297 100 l 1,147,-1
 380 100 l 1,96,-1
EndSplineSet
EndChar

StartChar: e
Encoding: 101 101 64
Width: 668
GlyphClass: 1
Flags: W
LayerCount: 2
Fore
SplineSet
549 134 m 1,0,-1
 565 134 l 1,1,-1
 565 33 l 1,2,-1
 557 33 l 1,3,-1
 557 25 l 1,4,-1
 523 25 l 1,5,-1
 523 17 l 1,6,-1
 490 17 l 1,7,-1
 490 8 l 1,8,-1
 440 8 l 1,9,-1
 440 0 l 1,10,-1
 306 0 l 1,11,-1
 306 8 l 1,12,-1
 256 8 l 1,13,-1
 256 17 l 1,14,-1
 222 17 l 1,15,-1
 222 25 l 1,16,-1
 206 25 l 1,17,-1
 206 33 l 1,18,-1
 189 33 l 1,19,-1
 189 42 l 1,20,-1
 172 42 l 1,21,-1
 172 50 l 1,22,-1
 164 50 l 1,23,-1
 164 59 l 1,24,-1
 147 59 l 1,25,-1
 147 67 l 1,26,-1
 139 67 l 1,27,-1
 139 75 l 1,28,-1
 131 75 l 1,29,-1
 131 84 l 1,30,-1
 122 84 l 1,31,-1
 122 100 l 1,32,-1
 114 100 l 1,33,-1
 114 109 l 1,34,-1
 105 109 l 1,35,-1
 105 125 l 1,36,-1
 97 125 l 1,37,-1
 97 142 l 1,38,-1
 89 142 l 1,39,-1
 89 167 l 1,40,-1
 80 167 l 1,41,-1
 80 226 l 1,42,-1
 72 226 l 1,43,-1
 72 276 l 1,44,-1
 80 276 l 1,45,-1
 80 334 l 1,46,-1
 89 334 l 1,47,-1
 89 368 l 1,48,-1
 97 368 l 1,49,-1
 97 385 l 1,50,-1
 105 385 l 1,51,-1
 105 401 l 1,52,-1
 114 401 l 1,53,-1
 114 410 l 1,54,-1
 122 410 l 1,55,-1
 122 426 l 1,56,-1
 131 426 l 1,57,-1
 131 435 l 1,58,-1
 139 435 l 1,59,-1
 139 443 l 1,60,-1
 147 443 l 1,61,-1
 147 451 l 1,62,-1
 156 451 l 1,63,-1
 156 460 l 1,64,-1
 172 460 l 1,65,-1
 172 468 l 1,66,-1
 181 468 l 1,67,-1
 181 477 l 1,68,-1
 197 477 l 1,69,-1
 197 485 l 1,70,-1
 214 485 l 1,71,-1
 214 493 l 1,72,-1
 239 493 l 1,73,-1
 239 502 l 1,74,-1
 273 502 l 1,75,-1
 273 510 l 1,76,-1
 415 510 l 1,77,-1
 415 502 l 1,78,-1
 448 502 l 1,79,-1
 448 493 l 1,80,-1
 465 493 l 1,81,-1
 465 485 l 1,82,-1
 482 485 l 1,83,-1
 482 477 l 1,84,-1
 498 477 l 1,85,-1
 498 468 l 1,86,-1
 507 468 l 1,87,-1
 507 460 l 1,88,-1
 515 460 l 1,89,-1
 515 451 l 1,90,-1
 523 451 l 1,91,-1
 523 443 l 1,92,-1
 532 443 l 1,93,-1
 532 435 l 1,94,-1
 540 435 l 1,95,-1
 540 426 l 1,96,-1
 549 426 l 1,97,-1
 549 410 l 1,98,-1
 557 410 l 1,99,-1
 557 401 l 1,100,-1
 565 401 l 1,101,-1
 565 376 l 1,102,-1
 574 376 l 1,103,-1
 574 351 l 1,104,-1
 582 351 l 1,105,-1
 582 217 l 1,106,-1
 574 217 l 1,107,-1
 574 226 l 1,108,-1
 206 226 l 1,109,-1
 206 184 l 1,110,-1
 214 184 l 1,111,-1
 214 167 l 1,112,-1
 222 167 l 1,113,-1
 222 159 l 1,114,-1
 231 159 l 1,115,-1
 231 142 l 1,116,-1
 239 142 l 1,117,-1
 239 134 l 1,118,-1
 256 134 l 1,119,-1
 256 125 l 1,120,-1
 264 125 l 1,121,-1
 264 117 l 1,122,-1
 281 117 l 1,123,-1
 281 109 l 1,124,-1
 314 109 l 1,125,-1
 314 100 l 1,126,-1
 465 100 l 1,127,-1
 465 109 l 1,128,-1
 498 109 l 1,129,-1
 498 117 l 1,130,-1
 532 117 l 1,131,-1
 532 125 l 1,132,-1
 549 125 l 1,133,-1
 549 134 l 1,0,-1
473 293 m 1,134,-1
 473 326 l 1,135,-1
 465 326 l 1,136,-1
 465 360 l 1,137,-1
 457 360 l 1,138,-1
 457 376 l 1,139,-1
 448 376 l 1,140,-1
 448 385 l 1,141,-1
 440 385 l 1,142,-1
 440 393 l 1,143,-1
 432 393 l 1,144,-1
 432 401 l 1,145,-1
 423 401 l 1,146,-1
 423 410 l 1,147,-1
 406 410 l 1,148,-1
 406 418 l 1,149,-1
 381 418 l 1,150,-1
 381 426 l 1,151,-1
 306 426 l 1,152,-1
 306 418 l 1,153,-1
 281 418 l 1,154,-1
 281 410 l 1,155,-1
 264 410 l 1,156,-1
 264 401 l 1,157,-1
 256 401 l 1,158,-1
 256 393 l 1,159,-1
 239 393 l 1,160,-1
 239 376 l 1,161,-1
 231 376 l 1,162,-1
 231 368 l 1,163,-1
 222 368 l 1,164,-1
 222 351 l 1,165,-1
 214 351 l 1,166,-1
 214 334 l 1,167,-1
 206 334 l 1,168,-1
 206 293 l 1,169,-1
 473 293 l 1,134,-1
EndSplineSet
EndChar

